<?xml version="1.0" encoding="UTF-8" standalone="no"?>
<!DOCTYPE svg PUBLIC "-//W3C//DTD SVG 1.1//EN"
 "http://www.w3.org/Graphics/SVG/1.1/DTD/svg11.dtd">
<!-- Generated by graphviz version 12.2.1 (20241206.2353)
 -->
<!-- Title: ChunkStoreWriter Pages: 1 -->
<svg width="231pt" height="101pt"
 viewBox="0.00 0.00 230.50 101.25" xmlns="http://www.w3.org/2000/svg" xmlns:xlink="http://www.w3.org/1999/xlink">
<g id="graph0" class="graph" transform="scale(1 1) rotate(0) translate(4 97.25)">
<title>ChunkStoreWriter</title>
<!-- Node1 -->
<g id="Node000001" class="node">
<title>Node1</title>
<g id="a_Node000001"><a xlink:title=" ">
<polygon fill="#999999" stroke="#666666" points="222.5,-56.25 129.25,-56.25 129.25,-37 222.5,-37 222.5,-56.25"/>
<text text-anchor="middle" x="175.88" y="-42.75" font-family="Helvetica,sans-Serif" font-size="10.00">ChunkStoreWriter</text>
</a>
</g>
</g>
<!-- Node1&#45;&gt;Node1 -->
<g id="edge1_Node000001_Node000001" class="edge">
<title>Node1&#45;&gt;Node1</title>
<g id="a_edge1_Node000001_Node000001"><a xlink:title=" ">
<path fill="none" stroke="#63b8ff" d="M198.82,-67.65C195.95,-71.53 188.3,-74.25 175.88,-74.25 153.16,-74.25 146.41,-65.15 155.64,-56.54"/>
<polygon fill="#63b8ff" stroke="#63b8ff" points="202.24,-66.9 196.47,-58.01 195.43,-68.55 202.24,-66.9"/>
</a>
</g>
</g>
<!-- Node2 -->
<g id="Node000002" class="node">
<title>Node2</title>
<g id="a_Node000002"><a xlink:href="classeglt_1_1_chunk_store_writer.html#a48aaa1eea5e8093d080fe5721678296d" target="_top" xlink:title=" ">
<polygon fill="white" stroke="#666666" points="93.25,-93.25 0,-93.25 0,-74 93.25,-74 93.25,-93.25"/>
<text text-anchor="middle" x="46.62" y="-79.75" font-family="Helvetica,sans-Serif" font-size="10.00">ChunkStoreWriter</text>
</a>
</g>
</g>
<!-- Node1&#45;&gt;Node2 -->
<g id="edge2_Node000001_Node000002" class="edge">
<title>Node1&#45;&gt;Node2</title>
<g id="a_edge2_Node000001_Node000002"><a xlink:title=" ">
<path fill="none" stroke="#63b8ff" d="M129.2,-59.91C113.76,-64.39 96.8,-69.33 82.35,-73.53"/>
<polygon fill="#63b8ff" stroke="#63b8ff" points="130.02,-63.31 138.65,-57.16 128.07,-56.59 130.02,-63.31"/>
</a>
</g>
</g>
<!-- Node3 -->
<g id="Node000003" class="node">
<title>Node3</title>
<g id="a_Node000003"><a xlink:href="classeglt_1_1_chunk_store_writer.html#af4aad9298b8c9deff1414d4276c689ab" target="_top" xlink:title=" ">
<polygon fill="white" stroke="#666666" points="78.25,-56.25 15,-56.25 15,-37 78.25,-37 78.25,-56.25"/>
<text text-anchor="middle" x="46.62" y="-42.75" font-family="Helvetica,sans-Serif" font-size="10.00">operator&lt;&lt;</text>
</a>
</g>
</g>
<!-- Node1&#45;&gt;Node3 -->
<g id="edge3_Node000001_Node000003" class="edge">
<title>Node1&#45;&gt;Node3</title>
<g id="a_edge3_Node000001_Node000003"><a xlink:title=" ">
<path fill="none" stroke="#63b8ff" d="M117.71,-46.62C104.17,-46.62 90.23,-46.62 78.39,-46.62"/>
<polygon fill="#63b8ff" stroke="#63b8ff" points="117.42,-50.13 127.42,-46.63 117.42,-43.13 117.42,-50.13"/>
</a>
</g>
</g>
<!-- Node4 -->
<g id="Node000004" class="node">
<title>Node4</title>
<g id="a_Node000004"><a xlink:href="classeglt_1_1_chunk_store_writer.html#a541bd885f1f7c48e5e9873e6958f876d" target="_top" xlink:title=" ">
<polygon fill="white" stroke="#666666" points="75.25,-19.25 18,-19.25 18,0 75.25,0 75.25,-19.25"/>
<text text-anchor="middle" x="46.62" y="-5.75" font-family="Helvetica,sans-Serif" font-size="10.00">operator=</text>
</a>
</g>
</g>
<!-- Node1&#45;&gt;Node4 -->
<g id="edge4_Node000001_Node000004" class="edge">
<title>Node1&#45;&gt;Node4</title>
<g id="a_edge4_Node000001_Node000004"><a xlink:title=" ">
<path fill="none" stroke="#63b8ff" d="M129.25,-33.36C111.29,-28.14 91.24,-22.31 75.51,-17.73"/>
<polygon fill="#63b8ff" stroke="#63b8ff" points="128.07,-36.66 138.65,-36.09 130.02,-29.94 128.07,-36.66"/>
</a>
</g>
</g>
</g>
</svg>
