<?xml version="1.0" encoding="UTF-8" standalone="no"?>
<!DOCTYPE svg PUBLIC "-//W3C//DTD SVG 1.1//EN"
 "http://www.w3.org/Graphics/SVG/1.1/DTD/svg11.dtd">
<!-- Generated by graphviz version 12.2.1 (20241206.2353)
 -->
<!-- Title: ChunkStoreReader Pages: 1 -->
<svg width="243pt" height="101pt"
 viewBox="0.00 0.00 242.50 101.25" xmlns="http://www.w3.org/2000/svg" xmlns:xlink="http://www.w3.org/1999/xlink">
<g id="graph0" class="graph" transform="scale(1 1) rotate(0) translate(4 97.25)">
<title>ChunkStoreReader</title>
<!-- Node1 -->
<g id="Node000001" class="node">
<title>Node1</title>
<g id="a_Node000001"><a xlink:title=" ">
<polygon fill="#999999" stroke="#666666" points="234.5,-56.25 135.25,-56.25 135.25,-37 234.5,-37 234.5,-56.25"/>
<text text-anchor="middle" x="184.88" y="-42.75" font-family="Helvetica,sans-Serif" font-size="10.00">ChunkStoreReader</text>
</a>
</g>
</g>
<!-- Node2 -->
<g id="Node000002" class="node">
<title>Node2</title>
<g id="a_Node000002"><a xlink:href="classeglt_1_1_chunk_store_reader.html#ae9d8d27d51e69be4e451bfb1de0820e1" target="_top" xlink:title=" ">
<polygon fill="white" stroke="#666666" points="99.25,-93.25 0,-93.25 0,-74 99.25,-74 99.25,-93.25"/>
<text text-anchor="middle" x="49.62" y="-79.75" font-family="Helvetica,sans-Serif" font-size="10.00">ChunkStoreReader</text>
</a>
</g>
</g>
<!-- Node1&#45;&gt;Node2 -->
<g id="edge1_Node000001_Node000002" class="edge">
<title>Node1&#45;&gt;Node2</title>
<g id="a_edge1_Node000001_Node000002"><a xlink:title=" ">
<path fill="none" stroke="#63b8ff" d="M136.51,-59.78C120.23,-64.3 102.26,-69.29 86.99,-73.53"/>
<polygon fill="#63b8ff" stroke="#63b8ff" points="137.31,-63.19 146.01,-57.14 135.43,-56.44 137.31,-63.19"/>
</a>
</g>
</g>
<!-- Node3 -->
<g id="Node000003" class="node">
<title>Node3</title>
<g id="a_Node000003"><a xlink:href="classeglt_1_1_chunk_store_reader.html#a5d6a477f4a403d29a3022ff484d55af4" target="_top" xlink:title=" ">
<polygon fill="white" stroke="#666666" points="78.25,-56.25 21,-56.25 21,-37 78.25,-37 78.25,-56.25"/>
<text text-anchor="middle" x="49.62" y="-42.75" font-family="Helvetica,sans-Serif" font-size="10.00">operator=</text>
</a>
</g>
</g>
<!-- Node1&#45;&gt;Node3 -->
<g id="edge2_Node000001_Node000003" class="edge">
<title>Node1&#45;&gt;Node3</title>
<g id="a_edge2_Node000001_Node000003"><a xlink:title=" ">
<path fill="none" stroke="#63b8ff" d="M123.69,-46.62C107.94,-46.62 91.71,-46.62 78.56,-46.62"/>
<polygon fill="#63b8ff" stroke="#63b8ff" points="123.5,-50.13 133.5,-46.63 123.5,-43.13 123.5,-50.13"/>
</a>
</g>
</g>
<!-- Node4 -->
<g id="Node000004" class="node">
<title>Node4</title>
<g id="a_Node000004"><a xlink:href="classeglt_1_1_chunk_store_reader.html#a1333c4c750746cb23f746ee0c7306c50" target="_top" xlink:title=" ">
<polygon fill="white" stroke="#666666" points="81.25,-19.25 18,-19.25 18,0 81.25,0 81.25,-19.25"/>
<text text-anchor="middle" x="49.62" y="-5.75" font-family="Helvetica,sans-Serif" font-size="10.00">operator&gt;&gt;</text>
</a>
</g>
</g>
<!-- Node1&#45;&gt;Node4 -->
<g id="edge3_Node000001_Node000004" class="edge">
<title>Node1&#45;&gt;Node4</title>
<g id="a_edge3_Node000001_Node000004"><a xlink:title=" ">
<path fill="none" stroke="#63b8ff" d="M136.44,-33.45C118.2,-28.39 97.87,-22.74 81.57,-18.22"/>
<polygon fill="#63b8ff" stroke="#63b8ff" points="135.43,-36.81 146.01,-36.11 137.31,-30.06 135.43,-36.81"/>
</a>
</g>
</g>
</g>
</svg>
