<?xml version="1.0" encoding="UTF-8" standalone="no"?>
<!DOCTYPE svg PUBLIC "-//W3C//DTD SVG 1.1//EN"
 "http://www.w3.org/Graphics/SVG/1.1/DTD/svg11.dtd">
<!-- Generated by graphviz version 12.2.1 (20241206.2353)
 -->
<!-- Title: WaitForSeqId Pages: 1 -->
<svg width="153pt" height="64pt"
 viewBox="0.00 0.00 152.50 64.25" xmlns="http://www.w3.org/2000/svg" xmlns:xlink="http://www.w3.org/1999/xlink">
<g id="graph0" class="graph" transform="scale(1 1) rotate(0) translate(4 60.25)">
<title>WaitForSeqId</title>
<!-- Node1 -->
<g id="Node000001" class="node">
<title>Node1</title>
<g id="a_Node000001"><a xlink:title=" ">
<polygon fill="#999999" stroke="#666666" points="144.5,-37.25 69.25,-37.25 69.25,-18 144.5,-18 144.5,-37.25"/>
<text text-anchor="middle" x="106.88" y="-23.75" font-family="Helvetica,sans-Serif" font-size="10.00">WaitForSeqId</text>
</a>
</g>
</g>
<!-- Node2 -->
<g id="Node000002" class="node">
<title>Node2</title>
<g id="a_Node000002"><a xlink:href="classeglt_1_1_chunk_store.html#a00b1dee00a487e5e60e247794e44cc5c" target="_top" xlink:title=" ">
<polygon fill="white" stroke="#666666" points="32.5,-56.25 0.75,-56.25 0.75,-37 32.5,-37 32.5,-56.25"/>
<text text-anchor="middle" x="16.62" y="-42.75" font-family="Helvetica,sans-Serif" font-size="10.00">Get</text>
</a>
</g>
</g>
<!-- Node1&#45;&gt;Node2 -->
<g id="edge1_Node000001_Node000002" class="edge">
<title>Node1&#45;&gt;Node2</title>
<g id="a_edge1_Node000001_Node000002"><a xlink:title=" ">
<path fill="none" stroke="#63b8ff" d="M57.88,-37.96C48.81,-39.91 39.95,-41.82 32.86,-43.34"/>
<polygon fill="#63b8ff" stroke="#63b8ff" points="58.44,-41.42 67.48,-35.89 56.97,-34.57 58.44,-41.42"/>
</a>
</g>
</g>
<!-- Node3 -->
<g id="Node000003" class="node">
<title>Node3</title>
<g id="a_Node000003"><a xlink:href="classeglt_1_1_chunk_store.html#a1dcadf3d8b255184d1c8d92054a3a19e" target="_top" xlink:title=" ">
<polygon fill="white" stroke="#666666" points="33.25,-19.25 0,-19.25 0,0 33.25,0 33.25,-19.25"/>
<text text-anchor="middle" x="16.62" y="-5.75" font-family="Helvetica,sans-Serif" font-size="10.00">Pop</text>
</a>
</g>
</g>
<!-- Node1&#45;&gt;Node3 -->
<g id="edge2_Node000001_Node000003" class="edge">
<title>Node1&#45;&gt;Node3</title>
<g id="a_edge2_Node000001_Node000003"><a xlink:title=" ">
<path fill="none" stroke="#63b8ff" d="M57.75,-17.81C48.91,-16.01 40.29,-14.25 33.31,-12.82"/>
<polygon fill="#63b8ff" stroke="#63b8ff" points="56.98,-21.22 67.48,-19.79 58.38,-14.37 56.98,-21.22"/>
</a>
</g>
</g>
</g>
</svg>
