<?xml version="1.0" encoding="UTF-8" standalone="no"?>
<!DOCTYPE svg PUBLIC "-//W3C//DTD SVG 1.1//EN"
 "http://www.w3.org/Graphics/SVG/1.1/DTD/svg11.dtd">
<!-- Generated by graphviz version 12.2.1 (20241206.2353)
 -->
<!-- Title: HasBeenNotified Pages: 1 -->
<svg width="247pt" height="88pt"
 viewBox="0.00 0.00 247.00 87.50" xmlns="http://www.w3.org/2000/svg" xmlns:xlink="http://www.w3.org/1999/xlink">
<g id="graph0" class="graph" transform="scale(1 1) rotate(0) translate(4 83.5)">
<title>HasBeenNotified</title>
<!-- Node1 -->
<g id="Node000001" class="node">
<title>Node1</title>
<g id="a_Node000001"><a xlink:title=" ">
<polygon fill="#999999" stroke="#666666" points="239,-48.88 148.75,-48.88 148.75,-29.62 239,-29.62 239,-48.88"/>
<text text-anchor="middle" x="193.88" y="-35.38" font-family="Helvetica,sans-Serif" font-size="10.00">HasBeenNotified</text>
</a>
</g>
</g>
<!-- Node2 -->
<g id="Node000002" class="node">
<title>Node2</title>
<g id="a_Node000002"><a xlink:href="classeglt_1_1_local_chunk_store.html#a6016beca22856b29c54245b31477794f" target="_top" xlink:title=" ">
<polygon fill="white" stroke="#666666" points="112.75,-79.5 0,-79.5 0,-49 112.75,-49 112.75,-79.5"/>
<text text-anchor="start" x="8" y="-66" font-family="Helvetica,sans-Serif" font-size="10.00">eglt::LocalChunkStore</text>
<text text-anchor="middle" x="56.38" y="-54.75" font-family="Helvetica,sans-Serif" font-size="10.00">::WaitForArrivalOffset</text>
</a>
</g>
</g>
<!-- Node1&#45;&gt;Node2 -->
<g id="edge1_Node000001_Node000002" class="edge">
<title>Node1&#45;&gt;Node2</title>
<g id="a_edge1_Node000001_Node000002"><a xlink:title=" ">
<path fill="none" stroke="#63b8ff" d="M137.42,-49.48C129.44,-50.95 121.22,-52.47 113.23,-53.95"/>
<polygon fill="#63b8ff" stroke="#63b8ff" points="137.82,-52.97 147.02,-47.71 136.55,-46.08 137.82,-52.97"/>
</a>
</g>
</g>
<!-- Node3 -->
<g id="Node000003" class="node">
<title>Node3</title>
<g id="a_Node000003"><a xlink:href="classeglt_1_1_local_chunk_store.html#aa8b6b2e66ec7a2e7074c0d08a6e22782" target="_top" xlink:title=" ">
<polygon fill="white" stroke="#666666" points="112.75,-30.5 0,-30.5 0,0 112.75,0 112.75,-30.5"/>
<text text-anchor="start" x="8" y="-17" font-family="Helvetica,sans-Serif" font-size="10.00">eglt::LocalChunkStore</text>
<text text-anchor="middle" x="56.38" y="-5.75" font-family="Helvetica,sans-Serif" font-size="10.00">::WaitForSeqId</text>
</a>
</g>
</g>
<!-- Node1&#45;&gt;Node3 -->
<g id="edge2_Node000001_Node000003" class="edge">
<title>Node1&#45;&gt;Node3</title>
<g id="a_edge2_Node000001_Node000003"><a xlink:title=" ">
<path fill="none" stroke="#63b8ff" d="M137.42,-29.43C129.44,-28.01 121.22,-26.56 113.23,-25.14"/>
<polygon fill="#63b8ff" stroke="#63b8ff" points="136.56,-32.83 147.02,-31.13 137.78,-25.94 136.56,-32.83"/>
</a>
</g>
</g>
</g>
</svg>
