<?xml version="1.0" encoding="UTF-8" standalone="no"?>
<!DOCTYPE svg PUBLIC "-//W3C//DTD SVG 1.1//EN"
 "http://www.w3.org/Graphics/SVG/1.1/DTD/svg11.dtd">
<!-- Generated by graphviz version 12.2.1 (20241206.2353)
 -->
<!-- Title: ChunkStore Pages: 1 -->
<svg width="373pt" height="187pt"
 viewBox="0.00 0.00 373.25 187.25" xmlns="http://www.w3.org/2000/svg" xmlns:xlink="http://www.w3.org/1999/xlink">

<svg id="main" version="1.1" xmlns="http://www.w3.org/2000/svg" xmlns:xlink="http://www.w3.org/1999/xlink" xml:space="preserve">

<style type="text/css"><![CDATA[
.node, .edge {opacity: 0.7;}
.node.selected, .edge.selected {opacity: 1;}
.edge:hover path { stroke: red; }
.edge:hover polygon { stroke: red; fill: red; }
]]></style>
<script type="application/ecmascript" xlink:href="svg.min.js"/>
<svg id="graph" class="graph">
<g id="graph0" class="graph" transform="scale(1 1) rotate(0) translate(4 183.25)">
<title>ChunkStore</title>
<!-- Node1 -->
<g id="Node000001" class="node">
<title>Node1</title>
<g id="a_Node000001"><a xlink:title=" ">
<polygon fill="#999999" stroke="#666666" points="365.25,-99.25 297.5,-99.25 297.5,-80 365.25,-80 365.25,-99.25"/>
<text text-anchor="middle" x="331.38" y="-85.75" font-family="Helvetica,sans-Serif" font-size="10.00">ChunkStore</text>
</a>
</g>
</g>
<!-- Node2 -->
<g id="Node000002" class="node">
<title>Node2</title>
<g id="a_Node000002"><a xlink:href="classeglt_1_1_chunk_store.html#adbc022054dea0703850ac1db874c7487" target="_top" xlink:title=" ">
<polygon fill="white" stroke="#666666" points="239,-179.25 171.25,-179.25 171.25,-160 239,-160 239,-179.25"/>
<text text-anchor="middle" x="205.12" y="-165.75" font-family="Helvetica,sans-Serif" font-size="10.00">ChunkStore</text>
</a>
</g>
</g>
<!-- Node1&#45;&gt;Node2 -->
<g id="edge1_Node000001_Node000002" class="edge">
<title>Node1&#45;&gt;Node2</title>
<g id="a_edge1_Node000001_Node000002"><a xlink:title=" ">
<path fill="none" stroke="#63b8ff" d="M314.43,-107.62C301.39,-121.36 281.84,-139.88 261.5,-151.62 254.67,-155.57 246.86,-158.78 239.31,-161.34"/>
<polygon fill="#63b8ff" stroke="#63b8ff" points="316.77,-110.24 320.97,-100.51 311.62,-105.5 316.77,-110.24"/>
</a>
</g>
</g>
<!-- Node3 -->
<g id="Node000003" class="node">
<title>Node3</title>
<g id="a_Node000003"><a xlink:href="classeglt_1_1_chunk_store.html#a5a3feb01603712ce83a382b60fe5395f" target="_top" xlink:title=" ">
<polygon fill="white" stroke="#666666" points="239,-142.25 171.25,-142.25 171.25,-123 239,-123 239,-142.25"/>
<text text-anchor="middle" x="205.12" y="-128.75" font-family="Helvetica,sans-Serif" font-size="10.00">ChunkStore</text>
</a>
</g>
</g>
<!-- Node1&#45;&gt;Node3 -->
<g id="edge2_Node000001_Node000003" class="edge">
<title>Node1&#45;&gt;Node3</title>
<g id="a_edge2_Node000001_Node000003"><a xlink:title=" ">
<path fill="none" stroke="#63b8ff" d="M290.71,-103.48C281.15,-106.81 270.96,-110.35 261.5,-113.62 253.05,-116.55 243.86,-119.71 235.45,-122.59"/>
<polygon fill="#63b8ff" stroke="#63b8ff" points="291.85,-106.79 300.14,-100.2 289.54,-100.18 291.85,-106.79"/>
</a>
</g>
</g>
<!-- Node4 -->
<g id="Node000004" class="node">
<title>Node4</title>
<g id="a_Node000004"><a xlink:href="classeglt_1_1_local_chunk_store.html#ae8dbdecde07de9db3b8f57730de36094" target="_top" xlink:title=" ">
<polygon fill="white" stroke="#666666" points="261.5,-104.88 148.75,-104.88 148.75,-74.38 261.5,-74.38 261.5,-104.88"/>
<text text-anchor="start" x="156.75" y="-91.38" font-family="Helvetica,sans-Serif" font-size="10.00">eglt::LocalChunkStore</text>
<text text-anchor="middle" x="205.12" y="-80.12" font-family="Helvetica,sans-Serif" font-size="10.00">::LocalChunkStore</text>
</a>
</g>
</g>
<!-- Node1&#45;&gt;Node4 -->
<g id="edge3_Node000001_Node000004" class="edge">
<title>Node1&#45;&gt;Node4</title>
<g id="a_edge3_Node000001_Node000004"><a xlink:title=" ">
<path fill="none" stroke="#63b8ff" d="M285.62,-89.62C277.82,-89.62 269.63,-89.62 261.58,-89.62"/>
<polygon fill="#63b8ff" stroke="#63b8ff" points="285.56,-93.13 295.56,-89.63 285.56,-86.13 285.56,-93.13"/>
</a>
</g>
</g>
<!-- Node9 -->
<g id="Node000009" class="node">
<title>Node9</title>
<g id="a_Node000009"><a xlink:href="classeglt_1_1_chunk_store.html#a869d6bd11be98917f404f4fbff9bf490" target="_top" xlink:title=" ">
<polygon fill="white" stroke="#666666" points="233.75,-56.25 176.5,-56.25 176.5,-37 233.75,-37 233.75,-56.25"/>
<text text-anchor="middle" x="205.12" y="-42.75" font-family="Helvetica,sans-Serif" font-size="10.00">operator=</text>
</a>
</g>
</g>
<!-- Node1&#45;&gt;Node9 -->
<g id="edge8_Node000001_Node000009" class="edge">
<title>Node1&#45;&gt;Node9</title>
<g id="a_edge8_Node000001_Node000009"><a xlink:title=" ">
<path fill="none" stroke="#63b8ff" d="M290.71,-75.77C281.15,-72.44 270.96,-68.9 261.5,-65.62 252.57,-62.54 242.82,-59.18 234.02,-56.17"/>
<polygon fill="#63b8ff" stroke="#63b8ff" points="289.54,-79.07 300.14,-79.05 291.85,-72.46 289.54,-79.07"/>
</a>
</g>
</g>
<!-- Node10 -->
<g id="Node000010" class="node">
<title>Node10</title>
<g id="a_Node000010"><a xlink:href="classeglt_1_1_chunk_store.html#a2b92129abc367bfcd06011dbd308ed31" target="_top" xlink:title=" ">
<polygon fill="white" stroke="#666666" points="233.75,-19.25 176.5,-19.25 176.5,0 233.75,0 233.75,-19.25"/>
<text text-anchor="middle" x="205.12" y="-5.75" font-family="Helvetica,sans-Serif" font-size="10.00">operator=</text>
</a>
</g>
</g>
<!-- Node1&#45;&gt;Node10 -->
<g id="edge9_Node000001_Node000010" class="edge">
<title>Node1&#45;&gt;Node10</title>
<g id="a_edge9_Node000001_Node000010"><a xlink:title=" ">
<path fill="none" stroke="#63b8ff" d="M314.43,-71.63C301.39,-57.89 281.84,-39.37 261.5,-27.62 253.1,-22.77 243.21,-19.03 234.13,-16.24"/>
<polygon fill="#63b8ff" stroke="#63b8ff" points="311.62,-73.75 320.97,-78.74 316.77,-69.01 311.62,-73.75"/>
</a>
</g>
</g>
<!-- Node5 -->
<g id="Node000005" class="node">
<title>Node5</title>
<g id="a_Node000005"><a xlink:href="classeglt_1_1_local_chunk_store.html#ad4f02548fb15791481dc15234aaeb59c" target="_top" xlink:title=" ">
<polygon fill="white" stroke="#666666" points="112.75,-177.88 0,-177.88 0,-147.38 112.75,-147.38 112.75,-177.88"/>
<text text-anchor="start" x="8" y="-164.38" font-family="Helvetica,sans-Serif" font-size="10.00">eglt::LocalChunkStore</text>
<text text-anchor="middle" x="56.38" y="-153.12" font-family="Helvetica,sans-Serif" font-size="10.00">::LocalChunkStore</text>
</a>
</g>
</g>
<!-- Node4&#45;&gt;Node5 -->
<g id="edge4_Node000004_Node000005" class="edge">
<title>Node4&#45;&gt;Node5</title>
<g id="a_edge4_Node000004_Node000005"><a xlink:title=" ">
<path fill="none" stroke="#63b8ff" d="M155.43,-110.13C153.16,-111.28 150.92,-112.44 148.75,-113.62 131.86,-122.82 129.57,-128.3 112.75,-137.62 106.94,-140.85 100.63,-144 94.43,-146.91"/>
<polygon fill="#63b8ff" stroke="#63b8ff" points="156.7,-113.41 164.2,-105.93 153.67,-107.1 156.7,-113.41"/>
</a>
</g>
</g>
<!-- Node6 -->
<g id="Node000006" class="node">
<title>Node6</title>
<g id="a_Node000006"><a xlink:href="classeglt_1_1_local_chunk_store.html#a4c34dad908ffa912325639da7010b54a" target="_top" xlink:title=" ">
<polygon fill="white" stroke="#666666" points="112.75,-128.88 0,-128.88 0,-98.38 112.75,-98.38 112.75,-128.88"/>
<text text-anchor="start" x="8" y="-115.38" font-family="Helvetica,sans-Serif" font-size="10.00">eglt::LocalChunkStore</text>
<text text-anchor="middle" x="56.38" y="-104.12" font-family="Helvetica,sans-Serif" font-size="10.00">::LocalChunkStore</text>
</a>
</g>
</g>
<!-- Node4&#45;&gt;Node6 -->
<g id="edge5_Node000004_Node000006" class="edge">
<title>Node4&#45;&gt;Node6</title>
<g id="a_edge5_Node000004_Node000006"><a xlink:title=" ">
<path fill="none" stroke="#63b8ff" d="M137.54,-100.51C129.31,-101.86 120.97,-103.22 112.93,-104.54"/>
<polygon fill="#63b8ff" stroke="#63b8ff" points="137.85,-104.01 147.15,-98.94 136.72,-97.1 137.85,-104.01"/>
</a>
</g>
</g>
<!-- Node7 -->
<g id="Node000007" class="node">
<title>Node7</title>
<g id="a_Node000007"><a xlink:href="classeglt_1_1_local_chunk_store.html#a4f2328ba9acfb431ed2ce9c0f6e35c3b" target="_top" xlink:title=" ">
<polygon fill="white" stroke="#666666" points="112.75,-79.88 0,-79.88 0,-49.38 112.75,-49.38 112.75,-79.88"/>
<text text-anchor="start" x="8" y="-66.38" font-family="Helvetica,sans-Serif" font-size="10.00">eglt::LocalChunkStore</text>
<text text-anchor="middle" x="56.38" y="-55.12" font-family="Helvetica,sans-Serif" font-size="10.00">::operator=</text>
</a>
</g>
</g>
<!-- Node4&#45;&gt;Node7 -->
<g id="edge6_Node000004_Node000007" class="edge">
<title>Node4&#45;&gt;Node7</title>
<g id="a_edge6_Node000004_Node000007"><a xlink:title=" ">
<path fill="none" stroke="#63b8ff" d="M137.54,-78.28C129.31,-76.88 120.97,-75.46 112.93,-74.09"/>
<polygon fill="#63b8ff" stroke="#63b8ff" points="136.71,-81.69 147.15,-79.92 137.88,-74.79 136.71,-81.69"/>
</a>
</g>
</g>
<!-- Node8 -->
<g id="Node000008" class="node">
<title>Node8</title>
<g id="a_Node000008"><a xlink:href="classeglt_1_1_local_chunk_store.html#ae4e6835dcd42911077bc5b4928335c95" target="_top" xlink:title=" ">
<polygon fill="white" stroke="#666666" points="112.75,-30.88 0,-30.88 0,-0.37 112.75,-0.37 112.75,-30.88"/>
<text text-anchor="start" x="8" y="-17.38" font-family="Helvetica,sans-Serif" font-size="10.00">eglt::LocalChunkStore</text>
<text text-anchor="middle" x="56.38" y="-6.12" font-family="Helvetica,sans-Serif" font-size="10.00">::operator=</text>
</a>
</g>
</g>
<!-- Node4&#45;&gt;Node8 -->
<g id="edge7_Node000004_Node000008" class="edge">
<title>Node4&#45;&gt;Node8</title>
<g id="a_edge7_Node000004_Node000008"><a xlink:title=" ">
<path fill="none" stroke="#63b8ff" d="M155.03,-68.98C152.89,-67.88 150.79,-66.76 148.75,-65.62 131.73,-56.15 129.7,-50.23 112.75,-40.62 106.97,-37.35 100.68,-34.17 94.48,-31.24"/>
<polygon fill="#63b8ff" stroke="#63b8ff" points="153.34,-72.04 163.86,-73.27 156.4,-65.75 153.34,-72.04"/>
</a>
</g>
</g>
</g>
</svg>
</svg>

<style type='text/css'>
<![CDATA[
[data-mouse-over-selected='false'] { opacity: 0.7; }
[data-mouse-over-selected='true']  { opacity: 1.0; }
]]>
</style>
<script type="application/ecmascript"><![CDATA[
document.addEventListener('DOMContentLoaded', (event) => {
  highlightEdges();
  highlightAdjacentNodes();
});
]]></script>
</svg>
