<?xml version="1.0" encoding="UTF-8" standalone="no"?>
<!DOCTYPE svg PUBLIC "-//W3C//DTD SVG 1.1//EN"
 "http://www.w3.org/Graphics/SVG/1.1/DTD/svg11.dtd">
<!-- Generated by graphviz version 12.2.1 (20241206.2353)
 -->
<!-- Title: MakeAction Pages: 1 -->
<svg width="259pt" height="76pt"
 viewBox="0.00 0.00 259.00 75.88" xmlns="http://www.w3.org/2000/svg" xmlns:xlink="http://www.w3.org/1999/xlink">
<g id="graph0" class="graph" transform="scale(1 1) rotate(0) translate(4 71.88)">
<title>MakeAction</title>
<!-- Node1 -->
<g id="Node000001" class="node">
<title>Node1</title>
<g id="a_Node000001"><a xlink:title=" ">
<polygon fill="#999999" stroke="#666666" points="251,-45.88 183.25,-45.88 183.25,-26.62 251,-26.62 251,-45.88"/>
<text text-anchor="middle" x="217.12" y="-32.38" font-family="Helvetica,sans-Serif" font-size="10.00">MakeAction</text>
</a>
</g>
</g>
<!-- Node2 -->
<g id="Node000002" class="node">
<title>Node2</title>
<g id="a_Node000002"><a xlink:href="namespaceeglt.html#a95366fc4aaf2b267febdfedd75fab80f" target="_top" xlink:title=" ">
<polygon fill="white" stroke="#666666" points="147.25,-67.88 0,-67.88 0,-48.62 147.25,-48.62 147.25,-67.88"/>
<text text-anchor="middle" x="73.62" y="-54.38" font-family="Helvetica,sans-Serif" font-size="10.00">eglt::MakeActionInConnection</text>
</a>
</g>
</g>
<!-- Node1&#45;&gt;Node2 -->
<g id="edge1_Node000001_Node000002" class="edge">
<title>Node1&#45;&gt;Node2</title>
<g id="a_edge1_Node000001_Node000002"><a xlink:title=" ">
<path fill="none" stroke="#63b8ff" d="M171.82,-43.14C161.58,-44.73 150.49,-46.46 139.58,-48.15"/>
<polygon fill="#63b8ff" stroke="#63b8ff" points="172.11,-46.64 181.45,-41.64 171.03,-39.72 172.11,-46.64"/>
</a>
</g>
</g>
<!-- Node3 -->
<g id="Node000003" class="node">
<title>Node3</title>
<g id="a_Node000003"><a xlink:href="classeglt_1_1_action.html#a9da84dfe723ceffb3aa40b722e9bc38c" target="_top" xlink:title="Makes a different action in the same session. Should be used to create nested actions.">
<polygon fill="white" stroke="#666666" points="135.25,-30.5 12,-30.5 12,0 135.25,0 135.25,-30.5"/>
<text text-anchor="start" x="20" y="-17" font-family="Helvetica,sans-Serif" font-size="10.00">eglt::Action::MakeAction</text>
<text text-anchor="middle" x="73.62" y="-5.75" font-family="Helvetica,sans-Serif" font-size="10.00">InSameSession</text>
</a>
</g>
</g>
<!-- Node1&#45;&gt;Node3 -->
<g id="edge2_Node000001_Node000003" class="edge">
<title>Node1&#45;&gt;Node3</title>
<g id="a_edge2_Node000001_Node000003"><a xlink:title=" ">
<path fill="none" stroke="#63b8ff" d="M171.88,-29.68C160.39,-27.98 147.81,-26.11 135.62,-24.3"/>
<polygon fill="#63b8ff" stroke="#63b8ff" points="171.05,-33.1 181.45,-31.1 172.07,-26.17 171.05,-33.1"/>
</a>
</g>
</g>
</g>
</svg>
