<?xml version="1.0" encoding="UTF-8" standalone="no"?>
<!DOCTYPE svg PUBLIC "-//W3C//DTD SVG 1.1//EN"
 "http://www.w3.org/Graphics/SVG/1.1/DTD/svg11.dtd">
<!-- Generated by graphviz version 12.2.1 (20241206.2353)
 -->
<!-- Title: work_stealing_with_properties Pages: 1 -->
<svg width="256pt" height="105pt"
 viewBox="0.00 0.00 256.38 105.00" xmlns="http://www.w3.org/2000/svg" xmlns:xlink="http://www.w3.org/1999/xlink">
<g id="graph0" class="graph" transform="scale(1 1) rotate(0) translate(4 101)">
<title>work_stealing_with_properties</title>
<!-- Node1 -->
<g id="Node000001" class="node">
<title>Node1</title>
<g id="a_Node000001"><a xlink:title=" ">
<polygon fill="#999999" stroke="#666666" points="193,-30.5 93.75,-30.5 93.75,0 193,0 193,-30.5"/>
<text text-anchor="start" x="101.75" y="-17" font-family="Helvetica,sans-Serif" font-size="10.00">work_stealing_with</text>
<text text-anchor="middle" x="143.38" y="-5.75" font-family="Helvetica,sans-Serif" font-size="10.00">_properties</text>
</a>
</g>
</g>
<!-- Node2 -->
<g id="Node000002" class="node">
<title>Node2</title>
<g id="a_Node000002"><a xlink:title=" ">
<polygon fill="white" stroke="#666666" points="154.75,-97 0,-97 0,-66.5 154.75,-66.5 154.75,-97"/>
<text text-anchor="start" x="8" y="-83.5" font-family="Helvetica,sans-Serif" font-size="10.00">algorithm_with_properties</text>
<text text-anchor="middle" x="77.38" y="-72.25" font-family="Helvetica,sans-Serif" font-size="10.00">&lt; FiberPropertiesWithContext &gt;</text>
</a>
</g>
</g>
<!-- Node2&#45;&gt;Node1 -->
<g id="edge1_Node000001_Node000002" class="edge">
<title>Node2&#45;&gt;Node1</title>
<g id="a_edge1_Node000001_Node000002"><a xlink:title=" ">
<path fill="none" stroke="#63b8ff" d="M100.46,-58.19C109.75,-49.11 120.2,-38.9 128.46,-30.83"/>
<polygon fill="#63b8ff" stroke="#63b8ff" points="98.14,-55.56 93.43,-65.06 103.03,-60.57 98.14,-55.56"/>
</a>
</g>
</g>
<!-- Node3 -->
<g id="Node000003" class="node">
<title>Node3</title>
<g id="a_Node000003"><a xlink:title=" ">
<polygon fill="white" stroke="#666666" points="248.38,-91.38 172.38,-91.38 172.38,-72.12 248.38,-72.12 248.38,-91.38"/>
<text text-anchor="middle" x="210.38" y="-77.88" font-family="Helvetica,sans-Serif" font-size="10.00">work_stealing</text>
</a>
</g>
</g>
<!-- Node3&#45;&gt;Node1 -->
<g id="edge2_Node000001_Node000003" class="edge">
<title>Node3&#45;&gt;Node1</title>
<g id="a_edge2_Node000001_Node000003"><a xlink:title=" ">
<path fill="none" stroke="#63b8ff" d="M192.9,-63.93C182.24,-53.66 168.74,-40.67 158.53,-30.84"/>
<polygon fill="#63b8ff" stroke="#63b8ff" points="190.34,-66.32 199.97,-70.73 195.19,-61.27 190.34,-66.32"/>
</a>
</g>
</g>
</g>
</svg>
