<?xml version="1.0" encoding="UTF-8" standalone="no"?>
<!DOCTYPE svg PUBLIC "-//W3C//DTD SVG 1.1//EN"
 "http://www.w3.org/Graphics/SVG/1.1/DTD/svg11.dtd">
<!-- Generated by graphviz version 12.2.1 (20241206.2353)
 -->
<!-- Title: MutexLock Pages: 1 -->
<svg width="172pt" height="138pt"
 viewBox="0.00 0.00 172.00 138.25" xmlns="http://www.w3.org/2000/svg" xmlns:xlink="http://www.w3.org/1999/xlink">
<g id="graph0" class="graph" transform="scale(1 1) rotate(0) translate(4 134.25)">
<title>MutexLock</title>
<!-- Node1 -->
<g id="Node000001" class="node">
<title>Node1</title>
<g id="a_Node000001"><a xlink:title=" ">
<polygon fill="#999999" stroke="#666666" points="164,-74.25 100,-74.25 100,-55 164,-55 164,-74.25"/>
<text text-anchor="middle" x="132" y="-60.75" font-family="Helvetica,sans-Serif" font-size="10.00">MutexLock</text>
</a>
</g>
</g>
<!-- Node2 -->
<g id="Node000002" class="node">
<title>Node2</title>
<g id="a_Node000002"><a xlink:href="classeglt_1_1concurrency_1_1impl_1_1_mutex_lock.html#a96233a773bd6ee23164cae4ef949c5c9" target="_top" xlink:title=" ">
<polygon fill="white" stroke="#666666" points="64,-130.25 0,-130.25 0,-111 64,-111 64,-130.25"/>
<text text-anchor="middle" x="32" y="-116.75" font-family="Helvetica,sans-Serif" font-size="10.00">MutexLock</text>
</a>
</g>
</g>
<!-- Node1&#45;&gt;Node2 -->
<g id="edge1_Node000001_Node000002" class="edge">
<title>Node1&#45;&gt;Node2</title>
<g id="a_edge1_Node000001_Node000002"><a xlink:title=" ">
<path fill="none" stroke="#63b8ff" d="M103.59,-80.29C86.66,-89.96 65.43,-102.09 50.7,-110.51"/>
<polygon fill="#63b8ff" stroke="#63b8ff" points="105.22,-83.39 112.17,-75.39 101.75,-77.31 105.22,-83.39"/>
</a>
</g>
</g>
<!-- Node3 -->
<g id="Node000003" class="node">
<title>Node3</title>
<g id="a_Node000003"><a xlink:href="classeglt_1_1concurrency_1_1impl_1_1_mutex_lock.html#a47b509ae4effba2645effa22dc031960" target="_top" xlink:title=" ">
<polygon fill="white" stroke="#666666" points="64,-93.25 0,-93.25 0,-74 64,-74 64,-93.25"/>
<text text-anchor="middle" x="32" y="-79.75" font-family="Helvetica,sans-Serif" font-size="10.00">MutexLock</text>
</a>
</g>
</g>
<!-- Node1&#45;&gt;Node3 -->
<g id="edge2_Node000001_Node000003" class="edge">
<title>Node1&#45;&gt;Node3</title>
<g id="a_edge2_Node000001_Node000003"><a xlink:title=" ">
<path fill="none" stroke="#63b8ff" d="M88.5,-72.87C80.37,-74.44 72.01,-76.06 64.32,-77.55"/>
<polygon fill="#63b8ff" stroke="#63b8ff" points="89.09,-76.32 98.24,-70.98 87.75,-69.44 89.09,-76.32"/>
</a>
</g>
</g>
<!-- Node4 -->
<g id="Node000004" class="node">
<title>Node4</title>
<g id="a_Node000004"><a xlink:href="classeglt_1_1concurrency_1_1impl_1_1_mutex_lock.html#a46d5fbe83edbcd5fea9d1bbe7fd9fe40" target="_top" xlink:title=" ">
<polygon fill="white" stroke="#666666" points="60.62,-56.25 3.38,-56.25 3.38,-37 60.62,-37 60.62,-56.25"/>
<text text-anchor="middle" x="32" y="-42.75" font-family="Helvetica,sans-Serif" font-size="10.00">operator=</text>
</a>
</g>
</g>
<!-- Node1&#45;&gt;Node4 -->
<g id="edge3_Node000001_Node000004" class="edge">
<title>Node1&#45;&gt;Node4</title>
<g id="a_edge3_Node000001_Node000004"><a xlink:title=" ">
<path fill="none" stroke="#63b8ff" d="M88.59,-56.84C79.26,-55.12 69.6,-53.35 61,-51.77"/>
<polygon fill="#63b8ff" stroke="#63b8ff" points="87.77,-60.24 98.23,-58.61 89.03,-53.36 87.77,-60.24"/>
</a>
</g>
</g>
<!-- Node5 -->
<g id="Node000005" class="node">
<title>Node5</title>
<g id="a_Node000005"><a xlink:href="classeglt_1_1concurrency_1_1impl_1_1_mutex_lock.html#adc4770f41249a9e15112c998bafeb9ae" target="_top" xlink:title=" ">
<polygon fill="white" stroke="#666666" points="60.62,-19.25 3.38,-19.25 3.38,0 60.62,0 60.62,-19.25"/>
<text text-anchor="middle" x="32" y="-5.75" font-family="Helvetica,sans-Serif" font-size="10.00">operator=</text>
</a>
</g>
</g>
<!-- Node1&#45;&gt;Node5 -->
<g id="edge4_Node000001_Node000005" class="edge">
<title>Node1&#45;&gt;Node5</title>
<g id="a_edge4_Node000001_Node000005"><a xlink:title=" ">
<path fill="none" stroke="#63b8ff" d="M103.19,-49.02C86.39,-39.59 65.47,-27.85 50.86,-19.65"/>
<polygon fill="#63b8ff" stroke="#63b8ff" points="101.27,-51.95 111.71,-53.8 104.7,-45.85 101.27,-51.95"/>
</a>
</g>
</g>
</g>
</svg>
