<?xml version="1.0" encoding="UTF-8" standalone="no"?>
<!DOCTYPE svg PUBLIC "-//W3C//DTD SVG 1.1//EN"
 "http://www.w3.org/Graphics/SVG/1.1/DTD/svg11.dtd">
<!-- Generated by graphviz version 12.2.1 (20241206.2353)
 -->
<!-- Title: LocalChunkStore Pages: 1 -->
<svg width="226pt" height="138pt"
 viewBox="0.00 0.00 226.00 138.25" xmlns="http://www.w3.org/2000/svg" xmlns:xlink="http://www.w3.org/1999/xlink">
<g id="graph0" class="graph" transform="scale(1 1) rotate(0) translate(4 134.25)">
<title>LocalChunkStore</title>
<!-- Node1 -->
<g id="Node000001" class="node">
<title>Node1</title>
<g id="a_Node000001"><a xlink:title=" ">
<polygon fill="#999999" stroke="#666666" points="218,-74.25 127,-74.25 127,-55 218,-55 218,-74.25"/>
<text text-anchor="middle" x="172.5" y="-60.75" font-family="Helvetica,sans-Serif" font-size="10.00">LocalChunkStore</text>
</a>
</g>
</g>
<!-- Node2 -->
<g id="Node000002" class="node">
<title>Node2</title>
<g id="a_Node000002"><a xlink:href="classeglt_1_1_local_chunk_store.html#ad4f02548fb15791481dc15234aaeb59c" target="_top" xlink:title=" ">
<polygon fill="white" stroke="#666666" points="91,-130.25 0,-130.25 0,-111 91,-111 91,-130.25"/>
<text text-anchor="middle" x="45.5" y="-116.75" font-family="Helvetica,sans-Serif" font-size="10.00">LocalChunkStore</text>
</a>
</g>
</g>
<!-- Node1&#45;&gt;Node2 -->
<g id="edge1_Node000001_Node000002" class="edge">
<title>Node1&#45;&gt;Node2</title>
<g id="a_edge1_Node000001_Node000002"><a xlink:title=" ">
<path fill="none" stroke="#63b8ff" d="M140.91,-79.56C125.95,-86.74 107.63,-95.34 91,-102.62 84.89,-105.3 78.26,-108.06 72.02,-110.59"/>
<polygon fill="#63b8ff" stroke="#63b8ff" points="142.28,-82.79 149.77,-75.29 139.24,-76.48 142.28,-82.79"/>
</a>
</g>
</g>
<!-- Node3 -->
<g id="Node000003" class="node">
<title>Node3</title>
<g id="a_Node000003"><a xlink:href="classeglt_1_1_local_chunk_store.html#a4c34dad908ffa912325639da7010b54a" target="_top" xlink:title=" ">
<polygon fill="white" stroke="#666666" points="91,-93.25 0,-93.25 0,-74 91,-74 91,-93.25"/>
<text text-anchor="middle" x="45.5" y="-79.75" font-family="Helvetica,sans-Serif" font-size="10.00">LocalChunkStore</text>
</a>
</g>
</g>
<!-- Node1&#45;&gt;Node3 -->
<g id="edge2_Node000001_Node000003" class="edge">
<title>Node1&#45;&gt;Node3</title>
<g id="a_edge2_Node000001_Node000003"><a xlink:title=" ">
<path fill="none" stroke="#63b8ff" d="M115.47,-73.14C107.41,-74.37 99.19,-75.62 91.38,-76.8"/>
<polygon fill="#63b8ff" stroke="#63b8ff" points="115.87,-76.62 125.23,-71.66 114.82,-69.7 115.87,-76.62"/>
</a>
</g>
</g>
<!-- Node4 -->
<g id="Node000004" class="node">
<title>Node4</title>
<g id="a_Node000004"><a xlink:href="classeglt_1_1_local_chunk_store.html#a4f2328ba9acfb431ed2ce9c0f6e35c3b" target="_top" xlink:title=" ">
<polygon fill="white" stroke="#666666" points="74.12,-56.25 16.88,-56.25 16.88,-37 74.12,-37 74.12,-56.25"/>
<text text-anchor="middle" x="45.5" y="-42.75" font-family="Helvetica,sans-Serif" font-size="10.00">operator=</text>
</a>
</g>
</g>
<!-- Node1&#45;&gt;Node4 -->
<g id="edge3_Node000001_Node000004" class="edge">
<title>Node1&#45;&gt;Node4</title>
<g id="a_edge3_Node000001_Node000004"><a xlink:title=" ">
<path fill="none" stroke="#63b8ff" d="M115.43,-56.55C101.15,-54.5 86.42,-52.37 74.26,-50.62"/>
<polygon fill="#63b8ff" stroke="#63b8ff" points="114.83,-60 125.23,-57.96 115.83,-53.07 114.83,-60"/>
</a>
</g>
</g>
<!-- Node5 -->
<g id="Node000005" class="node">
<title>Node5</title>
<g id="a_Node000005"><a xlink:href="classeglt_1_1_local_chunk_store.html#ae4e6835dcd42911077bc5b4928335c95" target="_top" xlink:title=" ">
<polygon fill="white" stroke="#666666" points="74.12,-19.25 16.88,-19.25 16.88,0 74.12,0 74.12,-19.25"/>
<text text-anchor="middle" x="45.5" y="-5.75" font-family="Helvetica,sans-Serif" font-size="10.00">operator=</text>
</a>
</g>
</g>
<!-- Node1&#45;&gt;Node5 -->
<g id="edge4_Node000001_Node000005" class="edge">
<title>Node1&#45;&gt;Node5</title>
<g id="a_edge4_Node000001_Node000005"><a xlink:title=" ">
<path fill="none" stroke="#63b8ff" d="M140.26,-49.85C125.41,-42.94 107.36,-34.69 91,-27.62 84.88,-24.98 78.24,-22.23 72,-19.7"/>
<polygon fill="#63b8ff" stroke="#63b8ff" points="138.52,-52.91 149.06,-53.98 141.49,-46.57 138.52,-52.91"/>
</a>
</g>
</g>
</g>
</svg>
