<?xml version="1.0" encoding="UTF-8" standalone="no"?>
<!DOCTYPE svg PUBLIC "-//W3C//DTD SVG 1.1//EN"
 "http://www.w3.org/Graphics/SVG/1.1/DTD/svg11.dtd">
<!-- Generated by graphviz version 12.2.1 (20241206.2353)
 -->
<!-- Title: ChunkStore Pages: 1 -->
<svg width="354pt" height="632pt"
 viewBox="0.00 0.00 353.75 632.25" xmlns="http://www.w3.org/2000/svg" xmlns:xlink="http://www.w3.org/1999/xlink">
<g id="graph0" class="graph" transform="scale(1 1) rotate(0) translate(4 628.25)">
<title>ChunkStore</title>
<!-- Node1 -->
<g id="Node000001" class="node">
<title>Node1</title>
<g id="a_Node000001"><a xlink:title=" ">
<polygon fill="#999999" stroke="#666666" points="345.75,-321.25 278,-321.25 278,-302 345.75,-302 345.75,-321.25"/>
<text text-anchor="middle" x="311.88" y="-307.75" font-family="Helvetica,sans-Serif" font-size="10.00">ChunkStore</text>
</a>
</g>
</g>
<!-- Node2 -->
<g id="Node000002" class="node">
<title>Node2</title>
<g id="a_Node000002"><a xlink:href="classeglt_1_1pybindings_1_1_py_chunk_store.html#a6b1f6b5724dd5d0b103185994934c88c" target="_top" xlink:title=" ">
<polygon fill="white" stroke="#666666" points="242,-321.25 162.25,-321.25 162.25,-302 242,-302 242,-321.25"/>
<text text-anchor="middle" x="202.12" y="-307.75" font-family="Helvetica,sans-Serif" font-size="10.00">PyChunkStore</text>
</a>
</g>
</g>
<!-- Node1&#45;&gt;Node2 -->
<g id="edge1_Node000001_Node000002" class="edge">
<title>Node1&#45;&gt;Node2</title>
<g id="a_edge1_Node000001_Node000002"><a xlink:title=" ">
<path fill="none" stroke="#63b8ff" d="M266.35,-311.62C258.43,-311.62 250.23,-311.62 242.47,-311.62"/>
<polygon fill="#63b8ff" stroke="#63b8ff" points="266.15,-315.13 276.15,-311.63 266.15,-308.13 266.15,-315.13"/>
</a>
</g>
</g>
<!-- Node3 -->
<g id="Node000003" class="node">
<title>Node3</title>
<g id="a_Node000003"><a xlink:href="classeglt_1_1pybindings_1_1_py_chunk_store.html#a1763ee9dec6a0d11d9d1b1d8a8133f24" target="_top" xlink:title=" ">
<polygon fill="white" stroke="#666666" points="90.62,-606.25 35.62,-606.25 35.62,-587 90.62,-587 90.62,-606.25"/>
<text text-anchor="middle" x="63.12" y="-592.75" font-family="Helvetica,sans-Serif" font-size="10.00">Contains</text>
</a>
</g>
</g>
<!-- Node2&#45;&gt;Node3 -->
<g id="edge2_Node000002_Node000003" class="edge">
<title>Node2&#45;&gt;Node3</title>
<g id="a_edge2_Node000002_Node000003"><a xlink:title=" ">
<path fill="none" stroke="#63b8ff" d="M201.67,-332.75C201.78,-382.77 194.85,-509.43 126.25,-578.62 117,-587.95 103.23,-592.52 91,-594.72"/>
<polygon fill="#63b8ff" stroke="#63b8ff" points="205.18,-332.98 201.54,-323.03 198.18,-333.08 205.18,-332.98"/>
</a>
</g>
</g>
<!-- Node4 -->
<g id="Node000004" class="node">
<title>Node4</title>
<g id="a_Node000004"><a xlink:href="classeglt_1_1pybindings_1_1_py_chunk_store.html#a8ff4b5e31b726c3d72d38289d8b5dfc4" target="_top" xlink:title=" ">
<polygon fill="white" stroke="#666666" points="102.25,-551.25 24,-551.25 24,-532 102.25,-532 102.25,-551.25"/>
<text text-anchor="middle" x="63.12" y="-537.75" font-family="Helvetica,sans-Serif" font-size="10.00">GetFinalSeqId</text>
</a>
</g>
</g>
<!-- Node2&#45;&gt;Node4 -->
<g id="edge4_Node000002_Node000004" class="edge">
<title>Node2&#45;&gt;Node4</title>
<g id="a_edge4_Node000002_Node000004"><a xlink:title=" ">
<path fill="none" stroke="#63b8ff" d="M199.87,-332.61C196.18,-374.98 181.81,-471.17 126.25,-523.62 119.72,-529.79 111.2,-533.86 102.58,-536.54"/>
<polygon fill="#63b8ff" stroke="#63b8ff" points="203.35,-333.04 200.59,-322.81 196.36,-332.52 203.35,-333.04"/>
</a>
</g>
</g>
<!-- Node5 -->
<g id="Node000005" class="node">
<title>Node5</title>
<g id="a_Node000005"><a xlink:href="classeglt_1_1pybindings_1_1_py_chunk_store.html#a1fb1e3adad02fd476133b42ff0aeced9" target="_top" xlink:title=" ">
<polygon fill="white" stroke="#666666" points="105.62,-514.25 20.62,-514.25 20.62,-495 105.62,-495 105.62,-514.25"/>
<text text-anchor="middle" x="63.12" y="-500.75" font-family="Helvetica,sans-Serif" font-size="10.00">GetImmediately</text>
</a>
</g>
</g>
<!-- Node2&#45;&gt;Node5 -->
<g id="edge6_Node000002_Node000005" class="edge">
<title>Node2&#45;&gt;Node5</title>
<g id="a_edge6_Node000002_Node000005"><a xlink:title=" ">
<path fill="none" stroke="#63b8ff" d="M198.01,-332.96C191.5,-369.78 172.97,-445.3 126.25,-486.62 120.45,-491.76 113.26,-495.43 105.85,-498.06"/>
<polygon fill="#63b8ff" stroke="#63b8ff" points="201.45,-333.59 199.6,-323.16 194.54,-332.47 201.45,-333.59"/>
</a>
</g>
</g>
<!-- Node6 -->
<g id="Node000006" class="node">
<title>Node6</title>
<g id="a_Node000006"><a xlink:href="classeglt_1_1pybindings_1_1_py_chunk_store.html#acdcccc6df26cf23c9a4df14b1a4f6d25" target="_top" xlink:title=" ">
<polygon fill="white" stroke="#666666" points="126.25,-459.25 0,-459.25 0,-440 126.25,-440 126.25,-459.25"/>
<text text-anchor="middle" x="63.12" y="-445.75" font-family="Helvetica,sans-Serif" font-size="10.00">GetSeqIdForArrivalOffset</text>
</a>
</g>
</g>
<!-- Node2&#45;&gt;Node6 -->
<g id="edge7_Node000002_Node000006" class="edge">
<title>Node2&#45;&gt;Node6</title>
<g id="a_edge7_Node000002_Node000006"><a xlink:title=" ">
<path fill="none" stroke="#63b8ff" d="M193.69,-332.24C182.95,-359.1 160.54,-405.69 126.25,-431.62 122.04,-434.81 117.28,-437.43 112.32,-439.59"/>
<polygon fill="#63b8ff" stroke="#63b8ff" points="196.86,-333.74 197.15,-323.15 190.32,-331.25 196.86,-333.74"/>
</a>
</g>
</g>
<!-- Node7 -->
<g id="Node000007" class="node">
<title>Node7</title>
<g id="a_Node000007"><a xlink:href="classeglt_1_1pybindings_1_1_py_chunk_store.html#a5c5fcf0163147eb006ffb9febe21fc49" target="_top" xlink:title=" ">
<polygon fill="white" stroke="#666666" points="106.38,-404.25 19.88,-404.25 19.88,-385 106.38,-385 106.38,-404.25"/>
<text text-anchor="middle" x="63.12" y="-390.75" font-family="Helvetica,sans-Serif" font-size="10.00">NotifyAllWaiters</text>
</a>
</g>
</g>
<!-- Node2&#45;&gt;Node7 -->
<g id="edge9_Node000002_Node000007" class="edge">
<title>Node2&#45;&gt;Node7</title>
<g id="a_edge9_Node000002_Node000007"><a xlink:title=" ">
<path fill="none" stroke="#63b8ff" d="M184.64,-329.75C170.46,-344.34 148.79,-364.36 126.25,-376.62 120.14,-379.95 113.34,-382.73 106.55,-385.02"/>
<polygon fill="#63b8ff" stroke="#63b8ff" points="187.08,-332.27 191.4,-322.59 181.99,-327.46 187.08,-332.27"/>
</a>
</g>
</g>
<!-- Node8 -->
<g id="Node000008" class="node">
<title>Node8</title>
<g id="a_Node000008"><a xlink:href="classeglt_1_1pybindings_1_1_py_chunk_store.html#ac6b6b1468b6ede5751a1b02b282e26b7" target="_top" xlink:title=" ">
<polygon fill="white" stroke="#666666" points="100.75,-349.25 25.5,-349.25 25.5,-330 100.75,-330 100.75,-349.25"/>
<text text-anchor="middle" x="63.12" y="-335.75" font-family="Helvetica,sans-Serif" font-size="10.00">NotifyWaiters</text>
</a>
</g>
</g>
<!-- Node2&#45;&gt;Node8 -->
<g id="edge11_Node000002_Node000008" class="edge">
<title>Node2&#45;&gt;Node8</title>
<g id="a_edge11_Node000002_Node000008"><a xlink:title=" ">
<path fill="none" stroke="#63b8ff" d="M150.76,-321.92C134.29,-325.28 116.32,-328.96 101.04,-332.08"/>
<polygon fill="#63b8ff" stroke="#63b8ff" points="151.29,-325.38 160.38,-319.95 149.89,-318.53 151.29,-325.38"/>
</a>
</g>
</g>
<!-- Node9 -->
<g id="Node000009" class="node">
<title>Node9</title>
<g id="a_Node000009"><a xlink:href="classeglt_1_1pybindings_1_1_py_chunk_store.html#a739d5c685b41dac2c5be2dcdeb2fa1ca" target="_top" xlink:title=" ">
<polygon fill="white" stroke="#666666" points="106.38,-294.25 19.88,-294.25 19.88,-275 106.38,-275 106.38,-294.25"/>
<text text-anchor="middle" x="63.12" y="-280.75" font-family="Helvetica,sans-Serif" font-size="10.00">PopImmediately</text>
</a>
</g>
</g>
<!-- Node2&#45;&gt;Node9 -->
<g id="edge13_Node000002_Node000009" class="edge">
<title>Node2&#45;&gt;Node9</title>
<g id="a_edge13_Node000002_Node000009"><a xlink:title=" ">
<path fill="none" stroke="#63b8ff" d="M150.61,-301.67C136.19,-298.83 120.64,-295.76 106.75,-293.02"/>
<polygon fill="#63b8ff" stroke="#63b8ff" points="149.89,-305.1 160.38,-303.6 151.25,-298.23 149.89,-305.1"/>
</a>
</g>
</g>
<!-- Node10 -->
<g id="Node000010" class="node">
<title>Node10</title>
<g id="a_Node000010"><a xlink:href="classeglt_1_1pybindings_1_1_py_chunk_store.html#a557c0c618dcddf1378d370ca75951bc6" target="_top" xlink:title=" ">
<polygon fill="white" stroke="#666666" points="101.88,-239.25 24.38,-239.25 24.38,-220 101.88,-220 101.88,-239.25"/>
<text text-anchor="middle" x="63.12" y="-225.75" font-family="Helvetica,sans-Serif" font-size="10.00">SetFinalSeqId</text>
</a>
</g>
</g>
<!-- Node2&#45;&gt;Node10 -->
<g id="edge15_Node000002_Node000010" class="edge">
<title>Node2&#45;&gt;Node10</title>
<g id="a_edge15_Node000002_Node000010"><a xlink:title=" ">
<path fill="none" stroke="#63b8ff" d="M175.42,-295.61C161.02,-286.69 142.7,-275.44 126.25,-265.62 111.37,-256.75 94.33,-246.9 81.87,-239.75"/>
<polygon fill="#63b8ff" stroke="#63b8ff" points="173.5,-298.54 183.85,-300.84 177.19,-292.59 173.5,-298.54"/>
</a>
</g>
</g>
<!-- Node11 -->
<g id="Node000011" class="node">
<title>Node11</title>
<g id="a_Node000011"><a xlink:href="classeglt_1_1pybindings_1_1_py_chunk_store.html#aab22c0901280030eee761c991f84bf62" target="_top" xlink:title=" ">
<polygon fill="white" stroke="#666666" points="80.88,-184.25 45.38,-184.25 45.38,-165 80.88,-165 80.88,-184.25"/>
<text text-anchor="middle" x="63.12" y="-170.75" font-family="Helvetica,sans-Serif" font-size="10.00">Size</text>
</a>
</g>
</g>
<!-- Node2&#45;&gt;Node11 -->
<g id="edge17_Node000002_Node000011" class="edge">
<title>Node2&#45;&gt;Node11</title>
<g id="a_edge17_Node000002_Node000011"><a xlink:title=" ">
<path fill="none" stroke="#63b8ff" d="M189.88,-291.89C176.72,-270.05 153.27,-234.76 126.25,-210.62 112.68,-198.5 94.38,-188.5 81.16,-182.14"/>
<polygon fill="#63b8ff" stroke="#63b8ff" points="186.79,-293.53 194.87,-300.38 192.82,-289.99 186.79,-293.53"/>
</a>
</g>
</g>
<!-- Node12 -->
<g id="Node000012" class="node">
<title>Node12</title>
<g id="a_Node000012"><a xlink:href="classeglt_1_1pybindings_1_1_py_chunk_store.html#afa09c665ce8f219e3b248985279f3863" target="_top" xlink:title=" ">
<polygon fill="white" stroke="#666666" points="115.38,-129.25 10.88,-129.25 10.88,-110 115.38,-110 115.38,-129.25"/>
<text text-anchor="middle" x="63.12" y="-115.75" font-family="Helvetica,sans-Serif" font-size="10.00">WaitForArrivalOffset</text>
</a>
</g>
</g>
<!-- Node2&#45;&gt;Node12 -->
<g id="edge19_Node000002_Node000012" class="edge">
<title>Node2&#45;&gt;Node12</title>
<g id="a_edge19_Node000002_Node000012"><a xlink:title=" ">
<path fill="none" stroke="#63b8ff" d="M195.53,-290.94C185.94,-258.73 163.7,-196.1 126.25,-155.62 115.92,-144.46 101.33,-135.76 88.88,-129.71"/>
<polygon fill="#63b8ff" stroke="#63b8ff" points="192.07,-291.57 198.17,-300.23 198.8,-289.65 192.07,-291.57"/>
</a>
</g>
</g>
<!-- Node13 -->
<g id="Node000013" class="node">
<title>Node13</title>
<g id="a_Node000013"><a xlink:href="classeglt_1_1pybindings_1_1_py_chunk_store.html#a06b17db28dad3083e75041f1d7f636b9" target="_top" xlink:title=" ">
<polygon fill="white" stroke="#666666" points="100.75,-74.25 25.5,-74.25 25.5,-55 100.75,-55 100.75,-74.25"/>
<text text-anchor="middle" x="63.12" y="-60.75" font-family="Helvetica,sans-Serif" font-size="10.00">WaitForSeqId</text>
</a>
</g>
</g>
<!-- Node2&#45;&gt;Node13 -->
<g id="edge21_Node000002_Node000013" class="edge">
<title>Node2&#45;&gt;Node13</title>
<g id="a_edge21_Node000002_Node000013"><a xlink:title=" ">
<path fill="none" stroke="#63b8ff" d="M198.51,-290.39C192.5,-249.44 174.32,-158.48 126.25,-100.62 116.77,-89.22 102.68,-80.63 90.31,-74.72"/>
<polygon fill="#63b8ff" stroke="#63b8ff" points="195.02,-290.68 199.83,-300.12 201.96,-289.74 195.02,-290.68"/>
</a>
</g>
</g>
<!-- Node14 -->
<g id="Node000014" class="node">
<title>Node14</title>
<g id="a_Node000014"><a xlink:href="classeglt_1_1pybindings_1_1_py_chunk_store.html#ab7f6f759b0ccb89004f69c74189121ab" target="_top" xlink:title=" ">
<polygon fill="white" stroke="#666666" points="122.12,-19.25 4.12,-19.25 4.12,0 122.12,0 122.12,-19.25"/>
<text text-anchor="middle" x="63.12" y="-5.75" font-family="Helvetica,sans-Serif" font-size="10.00">WriteToImmediateStore</text>
</a>
</g>
</g>
<!-- Node2&#45;&gt;Node14 -->
<g id="edge23_Node000002_Node000014" class="edge">
<title>Node2&#45;&gt;Node14</title>
<g id="a_edge23_Node000002_Node000014"><a xlink:title=" ">
<path fill="none" stroke="#63b8ff" d="M200.41,-290.31C197.76,-241.83 185.25,-121.64 126.25,-45.62 117.31,-34.1 103.56,-25.59 91.27,-19.75"/>
<polygon fill="#63b8ff" stroke="#63b8ff" points="196.9,-290.16 200.85,-299.99 203.89,-289.85 196.9,-290.16"/>
</a>
</g>
</g>
<!-- Node3&#45;&gt;Node3 -->
<g id="edge3_Node000003_Node000003" class="edge">
<title>Node3&#45;&gt;Node3</title>
<g id="a_edge3_Node000003_Node000003"><a xlink:title=" ">
<path fill="none" stroke="#63b8ff" d="M87.8,-617.65C84.71,-621.53 76.49,-624.25 63.12,-624.25 38.69,-624.25 31.44,-615.15 41.36,-606.54"/>
<polygon fill="#63b8ff" stroke="#63b8ff" points="91.19,-616.79 85.27,-608 84.42,-618.56 91.19,-616.79"/>
</a>
</g>
</g>
<!-- Node4&#45;&gt;Node4 -->
<g id="edge5_Node000004_Node000004" class="edge">
<title>Node4&#45;&gt;Node4</title>
<g id="a_edge5_Node000004_Node000004"><a xlink:title=" ">
<path fill="none" stroke="#63b8ff" d="M87.8,-562.65C84.71,-566.53 76.49,-569.25 63.12,-569.25 38.69,-569.25 31.44,-560.15 41.36,-551.54"/>
<polygon fill="#63b8ff" stroke="#63b8ff" points="91.19,-561.79 85.27,-553 84.42,-563.56 91.19,-561.79"/>
</a>
</g>
</g>
<!-- Node6&#45;&gt;Node6 -->
<g id="edge8_Node000006_Node000006" class="edge">
<title>Node6&#45;&gt;Node6</title>
<g id="a_edge8_Node000006_Node000006"><a xlink:title=" ">
<path fill="none" stroke="#63b8ff" d="M87.8,-470.65C84.71,-474.53 76.49,-477.25 63.12,-477.25 38.69,-477.25 31.44,-468.15 41.36,-459.54"/>
<polygon fill="#63b8ff" stroke="#63b8ff" points="91.19,-469.79 85.27,-461 84.42,-471.56 91.19,-469.79"/>
</a>
</g>
</g>
<!-- Node7&#45;&gt;Node7 -->
<g id="edge10_Node000007_Node000007" class="edge">
<title>Node7&#45;&gt;Node7</title>
<g id="a_edge10_Node000007_Node000007"><a xlink:title=" ">
<path fill="none" stroke="#63b8ff" d="M87.8,-415.65C84.71,-419.53 76.49,-422.25 63.12,-422.25 38.69,-422.25 31.44,-413.15 41.36,-404.54"/>
<polygon fill="#63b8ff" stroke="#63b8ff" points="91.19,-414.79 85.27,-406 84.42,-416.56 91.19,-414.79"/>
</a>
</g>
</g>
<!-- Node8&#45;&gt;Node8 -->
<g id="edge12_Node000008_Node000008" class="edge">
<title>Node8&#45;&gt;Node8</title>
<g id="a_edge12_Node000008_Node000008"><a xlink:title=" ">
<path fill="none" stroke="#63b8ff" d="M87.8,-360.65C84.71,-364.53 76.49,-367.25 63.12,-367.25 38.69,-367.25 31.44,-358.15 41.36,-349.54"/>
<polygon fill="#63b8ff" stroke="#63b8ff" points="91.19,-359.79 85.27,-351 84.42,-361.56 91.19,-359.79"/>
</a>
</g>
</g>
<!-- Node9&#45;&gt;Node9 -->
<g id="edge14_Node000009_Node000009" class="edge">
<title>Node9&#45;&gt;Node9</title>
<g id="a_edge14_Node000009_Node000009"><a xlink:title=" ">
<path fill="none" stroke="#63b8ff" d="M87.8,-305.65C84.71,-309.53 76.49,-312.25 63.12,-312.25 38.69,-312.25 31.44,-303.15 41.36,-294.54"/>
<polygon fill="#63b8ff" stroke="#63b8ff" points="91.19,-304.79 85.27,-296 84.42,-306.56 91.19,-304.79"/>
</a>
</g>
</g>
<!-- Node10&#45;&gt;Node10 -->
<g id="edge16_Node000010_Node000010" class="edge">
<title>Node10&#45;&gt;Node10</title>
<g id="a_edge16_Node000010_Node000010"><a xlink:title=" ">
<path fill="none" stroke="#63b8ff" d="M87.8,-250.65C84.71,-254.53 76.49,-257.25 63.12,-257.25 38.69,-257.25 31.44,-248.15 41.36,-239.54"/>
<polygon fill="#63b8ff" stroke="#63b8ff" points="91.19,-249.79 85.27,-241 84.42,-251.56 91.19,-249.79"/>
</a>
</g>
</g>
<!-- Node11&#45;&gt;Node11 -->
<g id="edge18_Node000011_Node000011" class="edge">
<title>Node11&#45;&gt;Node11</title>
<g id="a_edge18_Node000011_Node000011"><a xlink:title=" ">
<path fill="none" stroke="#63b8ff" d="M88.79,-189.72C91.19,-196.44 82.64,-202.25 63.12,-202.25 35.98,-202.25 30.04,-191.01 45.31,-181.7"/>
<polygon fill="#63b8ff" stroke="#63b8ff" points="91.5,-187.48 82,-182.78 86.5,-192.38 91.5,-187.48"/>
</a>
</g>
</g>
<!-- Node12&#45;&gt;Node12 -->
<g id="edge20_Node000012_Node000012" class="edge">
<title>Node12&#45;&gt;Node12</title>
<g id="a_edge20_Node000012_Node000012"><a xlink:title=" ">
<path fill="none" stroke="#63b8ff" d="M87.8,-140.65C84.71,-144.53 76.49,-147.25 63.12,-147.25 38.69,-147.25 31.44,-138.15 41.36,-129.54"/>
<polygon fill="#63b8ff" stroke="#63b8ff" points="91.19,-139.79 85.27,-131 84.42,-141.56 91.19,-139.79"/>
</a>
</g>
</g>
<!-- Node13&#45;&gt;Node13 -->
<g id="edge22_Node000013_Node000013" class="edge">
<title>Node13&#45;&gt;Node13</title>
<g id="a_edge22_Node000013_Node000013"><a xlink:title=" ">
<path fill="none" stroke="#63b8ff" d="M87.8,-85.65C84.71,-89.53 76.49,-92.25 63.12,-92.25 38.69,-92.25 31.44,-83.15 41.36,-74.54"/>
<polygon fill="#63b8ff" stroke="#63b8ff" points="91.19,-84.79 85.27,-76 84.42,-86.56 91.19,-84.79"/>
</a>
</g>
</g>
<!-- Node14&#45;&gt;Node14 -->
<g id="edge24_Node000014_Node000014" class="edge">
<title>Node14&#45;&gt;Node14</title>
<g id="a_edge24_Node000014_Node000014"><a xlink:title=" ">
<path fill="none" stroke="#63b8ff" d="M87.8,-30.65C84.71,-34.53 76.49,-37.25 63.12,-37.25 38.69,-37.25 31.44,-28.15 41.36,-19.54"/>
<polygon fill="#63b8ff" stroke="#63b8ff" points="91.19,-29.79 85.27,-21 84.42,-31.56 91.19,-29.79"/>
</a>
</g>
</g>
</g>
</svg>
