<?xml version="1.0" encoding="UTF-8" standalone="no"?>
<!DOCTYPE svg PUBLIC "-//W3C//DTD SVG 1.1//EN"
 "http://www.w3.org/Graphics/SVG/1.1/DTD/svg11.dtd">
<!-- Generated by graphviz version 12.2.1 (20241206.2353)
 -->
<!-- Title: AsyncNode Pages: 1 -->
<svg width="343pt" height="286pt"
 viewBox="0.00 0.00 342.50 286.25" xmlns="http://www.w3.org/2000/svg" xmlns:xlink="http://www.w3.org/1999/xlink">

<svg id="main" version="1.1" xmlns="http://www.w3.org/2000/svg" xmlns:xlink="http://www.w3.org/1999/xlink" xml:space="preserve">

<style type="text/css"><![CDATA[
.node, .edge {opacity: 0.7;}
.node.selected, .edge.selected {opacity: 1;}
.edge:hover path { stroke: red; }
.edge:hover polygon { stroke: red; fill: red; }
]]></style>
<script type="application/ecmascript" xlink:href="svg.min.js"/>
<svg id="graph" class="graph">
<g id="graph0" class="graph" transform="scale(1 1) rotate(0) translate(4 282.25)">
<title>AsyncNode</title>
<!-- Node1 -->
<g id="Node000001" class="node">
<title>Node1</title>
<g id="a_Node000001"><a xlink:title=" ">
<polygon fill="#999999" stroke="#666666" points="334.5,-148.25 267.5,-148.25 267.5,-129 334.5,-129 334.5,-148.25"/>
<text text-anchor="middle" x="301" y="-134.75" font-family="Helvetica,sans-Serif" font-size="10.00">AsyncNode</text>
</a>
</g>
</g>
<!-- Node2 -->
<g id="Node000002" class="node">
<title>Node2</title>
<g id="a_Node000002"><a xlink:href="classeglt_1_1_async_node.html#a676805d74e002d6b71eeb883e54eaaa1" target="_top" xlink:title=" ">
<polygon fill="white" stroke="#666666" points="216.88,-278.25 149.88,-278.25 149.88,-259 216.88,-259 216.88,-278.25"/>
<text text-anchor="middle" x="183.38" y="-264.75" font-family="Helvetica,sans-Serif" font-size="10.00">AsyncNode</text>
</a>
</g>
</g>
<!-- Node1&#45;&gt;Node2 -->
<g id="edge1_Node000001_Node000002" class="edge">
<title>Node1&#45;&gt;Node2</title>
<g id="a_edge1_Node000001_Node000002"><a xlink:title=" ">
<path fill="none" stroke="#63b8ff" d="M292.42,-158.88C282.16,-183.72 261.62,-225.6 231.5,-250.62 227.32,-254.1 222.41,-256.94 217.35,-259.26"/>
<polygon fill="#63b8ff" stroke="#63b8ff" points="295.54,-160.49 295.96,-149.91 289.03,-157.92 295.54,-160.49"/>
</a>
</g>
</g>
<!-- Node3 -->
<g id="Node000003" class="node">
<title>Node3</title>
<g id="a_Node000003"><a xlink:href="classeglt_1_1_async_node.html#a5d2adfb20d2a4b4c215fdc3fb3454a96" target="_top" xlink:title=" ">
<polygon fill="white" stroke="#666666" points="216.88,-241.25 149.88,-241.25 149.88,-222 216.88,-222 216.88,-241.25"/>
<text text-anchor="middle" x="183.38" y="-227.75" font-family="Helvetica,sans-Serif" font-size="10.00">AsyncNode</text>
</a>
</g>
</g>
<!-- Node1&#45;&gt;Node3 -->
<g id="edge2_Node000001_Node000003" class="edge">
<title>Node1&#45;&gt;Node3</title>
<g id="a_edge2_Node000001_Node000003"><a xlink:title=" ">
<path fill="none" stroke="#63b8ff" d="M286.89,-157.37C274.35,-174.1 254.04,-198.28 231.5,-213.62 227.01,-216.68 221.93,-219.31 216.81,-221.55"/>
<polygon fill="#63b8ff" stroke="#63b8ff" points="289.4,-159.87 292.45,-149.72 283.74,-155.75 289.4,-159.87"/>
</a>
</g>
</g>
<!-- Node4 -->
<g id="Node000004" class="node">
<title>Node4</title>
<g id="a_Node000004"><a xlink:href="classeglt_1_1_async_node.html#a082156a3f3afb00ffa347dceff148366" target="_top" xlink:title=" ">
<polygon fill="white" stroke="#666666" points="215,-204.25 151.75,-204.25 151.75,-185 215,-185 215,-204.25"/>
<text text-anchor="middle" x="183.38" y="-190.75" font-family="Helvetica,sans-Serif" font-size="10.00">operator&lt;&lt;</text>
</a>
</g>
</g>
<!-- Node1&#45;&gt;Node4 -->
<g id="edge3_Node000001_Node000004" class="edge">
<title>Node1&#45;&gt;Node4</title>
<g id="a_edge3_Node000001_Node000004"><a xlink:title=" ">
<path fill="none" stroke="#63b8ff" d="M273.66,-154.39C261.11,-161.6 245.76,-169.99 231.5,-176.62 225.47,-179.43 218.86,-182.16 212.56,-184.61"/>
<polygon fill="#63b8ff" stroke="#63b8ff" points="275.27,-157.5 282.15,-149.44 271.75,-151.45 275.27,-157.5"/>
</a>
</g>
</g>
<!-- Node5 -->
<g id="Node000005" class="node">
<title>Node5</title>
<g id="a_Node000005"><a xlink:href="classeglt_1_1_async_node.html#a6a1a4675d36dbcab8b980dfa1d29da7d" target="_top" xlink:title=" ">
<polygon fill="white" stroke="#666666" points="212,-167.25 154.75,-167.25 154.75,-148 212,-148 212,-167.25"/>
<text text-anchor="middle" x="183.38" y="-153.75" font-family="Helvetica,sans-Serif" font-size="10.00">operator=</text>
</a>
</g>
</g>
<!-- Node1&#45;&gt;Node5 -->
<g id="edge4_Node000001_Node000005" class="edge">
<title>Node1&#45;&gt;Node5</title>
<g id="a_edge4_Node000001_Node000005"><a xlink:title=" ">
<path fill="none" stroke="#63b8ff" d="M256.21,-145.82C241.44,-148.25 225.37,-150.89 212.19,-153.05"/>
<polygon fill="#63b8ff" stroke="#63b8ff" points="256.38,-149.34 265.68,-144.26 255.25,-142.43 256.38,-149.34"/>
</a>
</g>
</g>
<!-- Node6 -->
<g id="Node000006" class="node">
<title>Node6</title>
<g id="a_Node000006"><a xlink:href="classeglt_1_1_async_node.html#a6872e343c67ee044ff2ae6be6b6e713b" target="_top" xlink:title=" ">
<polygon fill="white" stroke="#666666" points="212,-130.25 154.75,-130.25 154.75,-111 212,-111 212,-130.25"/>
<text text-anchor="middle" x="183.38" y="-116.75" font-family="Helvetica,sans-Serif" font-size="10.00">operator=</text>
</a>
</g>
</g>
<!-- Node1&#45;&gt;Node6 -->
<g id="edge5_Node000001_Node000006" class="edge">
<title>Node1&#45;&gt;Node6</title>
<g id="a_edge5_Node000001_Node000006"><a xlink:title=" ">
<path fill="none" stroke="#63b8ff" d="M256.21,-131.81C241.44,-129.51 225.37,-127.01 212.19,-124.96"/>
<polygon fill="#63b8ff" stroke="#63b8ff" points="255.26,-135.2 265.68,-133.28 256.34,-128.29 255.26,-135.2"/>
</a>
</g>
</g>
<!-- Node7 -->
<g id="Node000007" class="node">
<title>Node7</title>
<g id="a_Node000007"><a xlink:href="classeglt_1_1_async_node.html#ad870712f7251aa43c7a924611a735ac6" target="_top" xlink:title=" ">
<polygon fill="white" stroke="#666666" points="215,-93.25 151.75,-93.25 151.75,-74 215,-74 215,-93.25"/>
<text text-anchor="middle" x="183.38" y="-79.75" font-family="Helvetica,sans-Serif" font-size="10.00">operator&gt;&gt;</text>
</a>
</g>
</g>
<!-- Node1&#45;&gt;Node7 -->
<g id="edge6_Node000001_Node000007" class="edge">
<title>Node1&#45;&gt;Node7</title>
<g id="a_edge6_Node000001_Node000007"><a xlink:title=" ">
<path fill="none" stroke="#63b8ff" d="M273.1,-123.04C260.64,-116.1 245.51,-108.05 231.5,-101.62 225.45,-98.85 218.84,-96.14 212.53,-93.69"/>
<polygon fill="#63b8ff" stroke="#63b8ff" points="271.12,-125.94 281.54,-127.81 274.56,-119.85 271.12,-125.94"/>
</a>
</g>
</g>
<!-- Node8 -->
<g id="Node000008" class="node">
<title>Node8</title>
<g id="a_Node000008"><a xlink:href="classeglt_1_1_async_node.html#a19708025b66cc5cd66bea421ea2f9fad" target="_top" xlink:title=" ">
<polygon fill="white" stroke="#666666" points="220.25,-56.25 146.5,-56.25 146.5,-37 220.25,-37 220.25,-56.25"/>
<text text-anchor="middle" x="183.38" y="-42.75" font-family="Helvetica,sans-Serif" font-size="10.00">ResetReader</text>
</a>
</g>
</g>
<!-- Node1&#45;&gt;Node8 -->
<g id="edge7_Node000001_Node000008" class="edge">
<title>Node1&#45;&gt;Node8</title>
<g id="a_edge7_Node000001_Node000008"><a xlink:title=" ">
<path fill="none" stroke="#63b8ff" d="M286.28,-119.41C273.66,-102.94 253.6,-79.56 231.5,-64.62 227,-61.58 221.92,-58.96 216.8,-56.73"/>
<polygon fill="#63b8ff" stroke="#63b8ff" points="283.45,-121.48 292.22,-127.42 289.08,-117.31 283.45,-121.48"/>
</a>
</g>
</g>
<!-- Node9 -->
<g id="Node000009" class="node">
<title>Node9</title>
<g id="a_Node000009"><a xlink:href="classeglt_1_1_async_node.html#ae2b2a825fe2628a8ce6f12b03f523f95" target="_top" xlink:title=" ">
<polygon fill="white" stroke="#666666" points="231.5,-19.25 135.25,-19.25 135.25,0 231.5,0 231.5,-19.25"/>
<text text-anchor="middle" x="183.38" y="-5.75" font-family="Helvetica,sans-Serif" font-size="10.00">SetReaderOptions</text>
</a>
</g>
</g>
<!-- Node1&#45;&gt;Node9 -->
<g id="edge8_Node000001_Node000009" class="edge">
<title>Node1&#45;&gt;Node9</title>
<g id="a_edge8_Node000001_Node000009"><a xlink:title=" ">
<path fill="none" stroke="#63b8ff" d="M292.07,-117.84C281.67,-93.14 261.18,-52.19 231.5,-27.62 227.72,-24.5 223.34,-21.88 218.8,-19.69"/>
<polygon fill="#63b8ff" stroke="#63b8ff" points="288.82,-119.14 295.8,-127.11 295.32,-116.53 288.82,-119.14"/>
</a>
</g>
</g>
<!-- Node10 -->
<g id="Node000010" class="node">
<title>Node10</title>
<g id="a_Node000010"><a xlink:href="classeglt_1_1_async_node.html#a1513e284ae2148e8708dfead9dfca38e" target="_top" xlink:title=" ">
<polygon fill="white" stroke="#666666" points="99.25,-19.25 0,-19.25 0,0 99.25,0 99.25,-19.25"/>
<text text-anchor="middle" x="49.62" y="-5.75" font-family="Helvetica,sans-Serif" font-size="10.00">WaitForCompletion</text>
</a>
</g>
</g>
<!-- Node9&#45;&gt;Node10 -->
<g id="edge9_Node000009_Node000010" class="edge">
<title>Node9&#45;&gt;Node10</title>
<g id="a_edge9_Node000009_Node000010"><a xlink:title=" ">
<path fill="none" stroke="#63b8ff" d="M123.56,-9.62C115.5,-9.62 107.3,-9.62 99.45,-9.62"/>
<polygon fill="#63b8ff" stroke="#63b8ff" points="123.3,-13.13 133.3,-9.63 123.3,-6.13 123.3,-13.13"/>
</a>
</g>
</g>
</g>
</svg>
</svg>

<style type='text/css'>
<![CDATA[
[data-mouse-over-selected='false'] { opacity: 0.7; }
[data-mouse-over-selected='true']  { opacity: 1.0; }
]]>
</style>
<script type="application/ecmascript"><![CDATA[
document.addEventListener('DOMContentLoaded', (event) => {
  highlightEdges();
  highlightAdjacentNodes();
});
]]></script>
</svg>
