<?xml version="1.0" encoding="UTF-8" standalone="no"?>
<!DOCTYPE svg PUBLIC "-//W3C//DTD SVG 1.1//EN"
 "http://www.w3.org/Graphics/SVG/1.1/DTD/svg11.dtd">
<!-- Generated by graphviz version 12.2.1 (20241206.2353)
 -->
<!-- Title: DispatchMessage Pages: 1 -->
<svg width="269pt" height="76pt"
 viewBox="0.00 0.00 268.75 75.88" xmlns="http://www.w3.org/2000/svg" xmlns:xlink="http://www.w3.org/1999/xlink">
<g id="graph0" class="graph" transform="scale(1 1) rotate(0) translate(4 71.88)">
<title>DispatchMessage</title>
<!-- Node1 -->
<g id="Node000001" class="node">
<title>Node1</title>
<g id="a_Node000001"><a xlink:title=" ">
<polygon fill="#999999" stroke="#666666" points="260.75,-45.88 166,-45.88 166,-26.62 260.75,-26.62 260.75,-45.88"/>
<text text-anchor="middle" x="213.38" y="-32.38" font-family="Helvetica,sans-Serif" font-size="10.00">DispatchMessage</text>
</a>
</g>
</g>
<!-- Node2 -->
<g id="Node000002" class="node">
<title>Node2</title>
<g id="a_Node000002"><a xlink:href="classeglt_1_1_session.html#a9d124daa5a683635acb09dc3d25beac1" target="_top" xlink:title=" ">
<polygon fill="white" stroke="#666666" points="103.75,-67.88 26.25,-67.88 26.25,-48.62 103.75,-48.62 103.75,-67.88"/>
<text text-anchor="middle" x="65" y="-54.38" font-family="Helvetica,sans-Serif" font-size="10.00">DispatchFrom</text>
</a>
</g>
</g>
<!-- Node1&#45;&gt;Node2 -->
<g id="edge1_Node000001_Node000002" class="edge">
<title>Node1&#45;&gt;Node2</title>
<g id="a_edge1_Node000001_Node000002"><a xlink:title=" ">
<path fill="none" stroke="#63b8ff" d="M154.67,-44.92C137.64,-47.48 119.43,-50.22 103.97,-52.54"/>
<polygon fill="#63b8ff" stroke="#63b8ff" points="154.79,-48.44 164.16,-43.5 153.75,-41.52 154.79,-48.44"/>
</a>
</g>
</g>
<!-- Node3 -->
<g id="Node000003" class="node">
<title>Node3</title>
<g id="a_Node000003"><a xlink:href="namespaceeglt.html#a64b25ce286e2492002d161095e418aa4" target="_top" xlink:title=" ">
<polygon fill="white" stroke="#666666" points="130,-30.5 0,-30.5 0,0 130,0 130,-30.5"/>
<text text-anchor="start" x="8" y="-17" font-family="Helvetica,sans-Serif" font-size="10.00">eglt::RunSimpleEvergreen</text>
<text text-anchor="middle" x="65" y="-5.75" font-family="Helvetica,sans-Serif" font-size="10.00">Session</text>
</a>
</g>
</g>
<!-- Node1&#45;&gt;Node3 -->
<g id="edge2_Node000001_Node000003" class="edge">
<title>Node1&#45;&gt;Node3</title>
<g id="a_edge2_Node000001_Node000003"><a xlink:title=" ">
<path fill="none" stroke="#63b8ff" d="M154.36,-27.93C146.49,-26.8 138.39,-25.64 130.42,-24.49"/>
<polygon fill="#63b8ff" stroke="#63b8ff" points="153.76,-31.38 164.16,-29.33 154.76,-24.45 153.76,-31.38"/>
</a>
</g>
</g>
</g>
</svg>
