<?xml version="1.0" encoding="UTF-8" standalone="no"?>
<!DOCTYPE svg PUBLIC "-//W3C//DTD SVG 1.1//EN"
 "http://www.w3.org/Graphics/SVG/1.1/DTD/svg11.dtd">
<!-- Generated by graphviz version 12.2.1 (20241206.2353)
 -->
<!-- Title: TwoMutexLock Pages: 1 -->
<svg width="208pt" height="138pt"
 viewBox="0.00 0.00 208.00 138.25" xmlns="http://www.w3.org/2000/svg" xmlns:xlink="http://www.w3.org/1999/xlink">

<svg id="main" version="1.1" xmlns="http://www.w3.org/2000/svg" xmlns:xlink="http://www.w3.org/1999/xlink" xml:space="preserve">

<style type="text/css"><![CDATA[
.node, .edge {opacity: 0.7;}
.node.selected, .edge.selected {opacity: 1;}
.edge:hover path { stroke: red; }
.edge:hover polygon { stroke: red; fill: red; }
]]></style>
<script type="application/ecmascript" xlink:href="svg.min.js"/>
<svg id="graph" class="graph">
<g id="graph0" class="graph" transform="scale(1 1) rotate(0) translate(4 134.25)">
<title>TwoMutexLock</title>
<!-- Node1 -->
<g id="Node000001" class="node">
<title>Node1</title>
<g id="a_Node000001"><a xlink:title=" ">
<polygon fill="#999999" stroke="#666666" points="200,-74.25 118,-74.25 118,-55 200,-55 200,-74.25"/>
<text text-anchor="middle" x="159" y="-60.75" font-family="Helvetica,sans-Serif" font-size="10.00">TwoMutexLock</text>
</a>
</g>
</g>
<!-- Node2 -->
<g id="Node000002" class="node">
<title>Node2</title>
<g id="a_Node000002"><a xlink:href="classeglt_1_1concurrency_1_1_two_mutex_lock.html#ac146e8b0ac4cf551e4c53a9796c9cbf4" target="_top" xlink:title=" ">
<polygon fill="white" stroke="#666666" points="69.62,-130.25 12.38,-130.25 12.38,-111 69.62,-111 69.62,-130.25"/>
<text text-anchor="middle" x="41" y="-116.75" font-family="Helvetica,sans-Serif" font-size="10.00">operator=</text>
</a>
</g>
</g>
<!-- Node1&#45;&gt;Node2 -->
<g id="edge1_Node000001_Node000002" class="edge">
<title>Node1&#45;&gt;Node2</title>
<g id="a_edge1_Node000001_Node000002"><a xlink:title=" ">
<path fill="none" stroke="#63b8ff" d="M128.38,-79.79C114.38,-86.86 97.4,-95.31 82,-102.62 76.5,-105.24 70.53,-107.98 64.92,-110.5"/>
<polygon fill="#63b8ff" stroke="#63b8ff" points="129.74,-83.02 137.07,-75.37 126.57,-76.78 129.74,-83.02"/>
</a>
</g>
</g>
<!-- Node3 -->
<g id="Node000003" class="node">
<title>Node3</title>
<g id="a_Node000003"><a xlink:href="classeglt_1_1concurrency_1_1_two_mutex_lock.html#a50130dc53230e664856300cd491819e5" target="_top" xlink:title=" ">
<polygon fill="white" stroke="#666666" points="69.62,-93.25 12.38,-93.25 12.38,-74 69.62,-74 69.62,-93.25"/>
<text text-anchor="middle" x="41" y="-79.75" font-family="Helvetica,sans-Serif" font-size="10.00">operator=</text>
</a>
</g>
</g>
<!-- Node1&#45;&gt;Node3 -->
<g id="edge2_Node000001_Node000003" class="edge">
<title>Node1&#45;&gt;Node3</title>
<g id="a_edge2_Node000001_Node000003"><a xlink:title=" ">
<path fill="none" stroke="#63b8ff" d="M106.75,-73.02C94.03,-75.1 80.88,-77.26 69.77,-79.08"/>
<polygon fill="#63b8ff" stroke="#63b8ff" points="106.96,-76.53 116.26,-71.46 105.83,-69.62 106.96,-76.53"/>
</a>
</g>
</g>
<!-- Node4 -->
<g id="Node000004" class="node">
<title>Node4</title>
<g id="a_Node000004"><a xlink:href="classeglt_1_1concurrency_1_1_two_mutex_lock.html#ac5177f1516ebb0bc64e2ebdc27104e72" target="_top" xlink:title=" ">
<polygon fill="white" stroke="#666666" points="82,-56.25 0,-56.25 0,-37 82,-37 82,-56.25"/>
<text text-anchor="middle" x="41" y="-42.75" font-family="Helvetica,sans-Serif" font-size="10.00">TwoMutexLock</text>
</a>
</g>
</g>
<!-- Node1&#45;&gt;Node4 -->
<g id="edge3_Node000001_Node000004" class="edge">
<title>Node1&#45;&gt;Node4</title>
<g id="a_edge3_Node000001_Node000004"><a xlink:title=" ">
<path fill="none" stroke="#63b8ff" d="M106.44,-56.62C98.3,-55.36 90,-54.07 82.17,-52.86"/>
<polygon fill="#63b8ff" stroke="#63b8ff" points="105.84,-60.07 116.26,-58.15 106.91,-53.16 105.84,-60.07"/>
</a>
</g>
</g>
<!-- Node5 -->
<g id="Node000005" class="node">
<title>Node5</title>
<g id="a_Node000005"><a xlink:href="classeglt_1_1concurrency_1_1_two_mutex_lock.html#af5174a2a540ab224377e08d2769fe71e" target="_top" xlink:title=" ">
<polygon fill="white" stroke="#666666" points="82,-19.25 0,-19.25 0,0 82,0 82,-19.25"/>
<text text-anchor="middle" x="41" y="-5.75" font-family="Helvetica,sans-Serif" font-size="10.00">TwoMutexLock</text>
</a>
</g>
</g>
<!-- Node1&#45;&gt;Node5 -->
<g id="edge4_Node000001_Node000005" class="edge">
<title>Node1&#45;&gt;Node5</title>
<g id="a_edge4_Node000001_Node000005"><a xlink:title=" ">
<path fill="none" stroke="#63b8ff" d="M127.76,-49.64C113.86,-42.83 97.14,-34.72 82,-27.62 76.34,-24.98 70.21,-22.18 64.48,-19.6"/>
<polygon fill="#63b8ff" stroke="#63b8ff" points="125.88,-52.62 136.4,-53.9 128.97,-46.34 125.88,-52.62"/>
</a>
</g>
</g>
</g>
</svg>
</svg>

<style type='text/css'>
<![CDATA[
[data-mouse-over-selected='false'] { opacity: 0.7; }
[data-mouse-over-selected='true']  { opacity: 1.0; }
]]>
</style>
<script type="application/ecmascript"><![CDATA[
document.addEventListener('DOMContentLoaded', (event) => {
  highlightEdges();
  highlightAdjacentNodes();
});
]]></script>
</svg>
