<?xml version="1.0" encoding="UTF-8" standalone="no"?>
<!DOCTYPE svg PUBLIC "-//W3C//DTD SVG 1.1//EN"
 "http://www.w3.org/Graphics/SVG/1.1/DTD/svg11.dtd">
<!-- Generated by graphviz version 12.2.1 (20241206.2353)
 -->
<!-- Title: PyEvergreenStream Pages: 1 -->
<svg width="249pt" height="302pt"
 viewBox="0.00 0.00 249.25 302.25" xmlns="http://www.w3.org/2000/svg" xmlns:xlink="http://www.w3.org/1999/xlink">
<g id="graph0" class="graph" transform="scale(1 1) rotate(0) translate(4 298.25)">
<title>PyEvergreenStream</title>
<!-- Node1 -->
<g id="Node000001" class="node">
<title>Node1</title>
<g id="a_Node000001"><a xlink:title=" ">
<polygon fill="#999999" stroke="#666666" points="241.25,-138.25 137.5,-138.25 137.5,-119 241.25,-119 241.25,-138.25"/>
<text text-anchor="middle" x="189.38" y="-124.75" font-family="Helvetica,sans-Serif" font-size="10.00">PyEvergreenStream</text>
</a>
</g>
</g>
<!-- Node2 -->
<g id="Node000002" class="node">
<title>Node2</title>
<g id="a_Node000002"><a xlink:href="classeglt_1_1pybindings_1_1_py_evergreen_stream.html#a4092d07dd4acdedd0f2f535276be30da" target="_top" xlink:title="Accept the stream on the server side. Clients should not call this.">
<polygon fill="white" stroke="#666666" points="74.12,-276.25 27.38,-276.25 27.38,-257 74.12,-257 74.12,-276.25"/>
<text text-anchor="middle" x="50.75" y="-262.75" font-family="Helvetica,sans-Serif" font-size="10.00">Accept</text>
</a>
</g>
</g>
<!-- Node1&#45;&gt;Node2 -->
<g id="edge1_Node000001_Node000002" class="edge">
<title>Node1&#45;&gt;Node2</title>
<g id="a_edge1_Node000001_Node000002"><a xlink:title=" ">
<path fill="none" stroke="#63b8ff" d="M178.79,-148.53C165.12,-174.95 137.63,-221.41 101.5,-248.62 93.58,-254.59 83.48,-258.73 74.46,-261.52"/>
<polygon fill="#63b8ff" stroke="#63b8ff" points="181.76,-150.42 183.11,-139.91 175.5,-147.28 181.76,-150.42"/>
</a>
</g>
</g>
<!-- Node3 -->
<g id="Node000003" class="node">
<title>Node3</title>
<g id="a_Node000003"><a xlink:href="classeglt_1_1pybindings_1_1_py_evergreen_stream.html#a8f6ca913ff7bdb455d9acd67657272ba" target="_top" xlink:title="Returns the implementation&#45;dependent identifier of the stream.">
<polygon fill="white" stroke="#666666" points="70.75,-221.25 30.75,-221.25 30.75,-202 70.75,-202 70.75,-221.25"/>
<text text-anchor="middle" x="50.75" y="-207.75" font-family="Helvetica,sans-Serif" font-size="10.00">GetId</text>
</a>
</g>
</g>
<!-- Node1&#45;&gt;Node3 -->
<g id="edge3_Node000001_Node000003" class="edge">
<title>Node1&#45;&gt;Node3</title>
<g id="a_edge3_Node000001_Node000003"><a xlink:title=" ">
<path fill="none" stroke="#63b8ff" d="M168.88,-145.87C151.98,-160.15 126.4,-180.19 101.5,-193.62 91.96,-198.77 80.65,-203 71.22,-206.06"/>
<polygon fill="#63b8ff" stroke="#63b8ff" points="170.87,-148.78 176.17,-139.6 166.3,-143.47 170.87,-148.78"/>
</a>
</g>
</g>
<!-- Node4 -->
<g id="Node000004" class="node">
<title>Node4</title>
<g id="a_Node000004"><a xlink:href="classeglt_1_1pybindings_1_1_py_evergreen_stream.html#ab97599bf0a2f4ac493700a590e5a66b3" target="_top" xlink:title="Returns the status of the last send operation.">
<polygon fill="white" stroke="#666666" points="101.5,-166.25 0,-166.25 0,-147 101.5,-147 101.5,-166.25"/>
<text text-anchor="middle" x="50.75" y="-152.75" font-family="Helvetica,sans-Serif" font-size="10.00">GetLastSendStatus</text>
</a>
</g>
</g>
<!-- Node1&#45;&gt;Node4 -->
<g id="edge5_Node000001_Node000004" class="edge">
<title>Node1&#45;&gt;Node4</title>
<g id="a_edge5_Node000001_Node000004"><a xlink:title=" ">
<path fill="none" stroke="#63b8ff" d="M127.83,-141.03C118.86,-142.87 109.71,-144.75 101,-146.53"/>
<polygon fill="#63b8ff" stroke="#63b8ff" points="128.47,-144.47 137.57,-139.04 127.07,-137.62 128.47,-144.47"/>
</a>
</g>
</g>
<!-- Node5 -->
<g id="Node000005" class="node">
<title>Node5</title>
<g id="a_Node000005"><a xlink:href="classeglt_1_1pybindings_1_1_py_evergreen_stream.html#a894e8bdaacc808f0c063651064091bc4" target="_top" xlink:title=" ">
<polygon fill="white" stroke="#666666" points="77.12,-111.25 24.38,-111.25 24.38,-92 77.12,-92 77.12,-111.25"/>
<text text-anchor="middle" x="50.75" y="-97.75" font-family="Helvetica,sans-Serif" font-size="10.00">GetLoop</text>
</a>
</g>
</g>
<!-- Node1&#45;&gt;Node5 -->
<g id="edge7_Node000001_Node000005" class="edge">
<title>Node1&#45;&gt;Node5</title>
<g id="a_edge7_Node000001_Node000005"><a xlink:title=" ">
<path fill="none" stroke="#63b8ff" d="M126.29,-116.36C109.04,-112.95 91.25,-109.43 77.38,-106.69"/>
<polygon fill="#63b8ff" stroke="#63b8ff" points="125.53,-119.77 136.02,-118.28 126.88,-112.91 125.53,-119.77"/>
</a>
</g>
</g>
<!-- Node6 -->
<g id="Node000006" class="node">
<title>Node6</title>
<g id="a_Node000006"><a xlink:href="classeglt_1_1pybindings_1_1_py_evergreen_stream.html#a77428c6c7aebd3c4380911ba02b41f84" target="_top" xlink:title=" ">
<polygon fill="white" stroke="#666666" points="80.5,-74.25 21,-74.25 21,-55 80.5,-55 80.5,-74.25"/>
<text text-anchor="middle" x="50.75" y="-60.75" font-family="Helvetica,sans-Serif" font-size="10.00">HalfClose</text>
</a>
</g>
</g>
<!-- Node1&#45;&gt;Node6 -->
<g id="edge9_Node000001_Node000006" class="edge">
<title>Node1&#45;&gt;Node6</title>
<g id="a_edge9_Node000001_Node000006"><a xlink:title=" ">
<path fill="none" stroke="#63b8ff" d="M161.34,-113.06C144.44,-103.64 122.05,-91.73 101.5,-82.62 94.95,-79.72 87.77,-76.92 80.96,-74.42"/>
<polygon fill="#63b8ff" stroke="#63b8ff" points="159.35,-115.95 169.78,-117.81 162.78,-109.85 159.35,-115.95"/>
</a>
</g>
</g>
<!-- Node7 -->
<g id="Node000007" class="node">
<title>Node7</title>
<g id="a_Node000007"><a xlink:href="classeglt_1_1pybindings_1_1_py_evergreen_stream.html#a156f3866ca69d98b4d9e6e1c1b3ec7da" target="_top" xlink:title="Start the stream on the client side. Servers should not call this.">
<polygon fill="white" stroke="#666666" points="69.25,-19.25 32.25,-19.25 32.25,0 69.25,0 69.25,-19.25"/>
<text text-anchor="middle" x="50.75" y="-5.75" font-family="Helvetica,sans-Serif" font-size="10.00">Start</text>
</a>
</g>
</g>
<!-- Node1&#45;&gt;Node7 -->
<g id="edge10_Node000001_Node000007" class="edge">
<title>Node1&#45;&gt;Node7</title>
<g id="a_edge10_Node000001_Node000007"><a xlink:title=" ">
<path fill="none" stroke="#63b8ff" d="M170.91,-110.57C153.82,-93.24 126.75,-66.66 101.5,-45.62 90.2,-36.21 76.62,-26.48 66.51,-19.52"/>
<polygon fill="#63b8ff" stroke="#63b8ff" points="168.32,-112.93 177.82,-117.63 173.33,-108.03 168.32,-112.93"/>
</a>
</g>
</g>
<!-- Node2&#45;&gt;Node2 -->
<g id="edge2_Node000002_Node000002" class="edge">
<title>Node2&#45;&gt;Node2</title>
<g id="a_edge2_Node000002_Node000002"><a xlink:title=" ">
<path fill="none" stroke="#63b8ff" d="M75.36,-287.65C72.28,-291.53 64.08,-294.25 50.75,-294.25 26.38,-294.25 19.15,-285.15 29.05,-276.54"/>
<polygon fill="#63b8ff" stroke="#63b8ff" points="78.75,-286.79 72.84,-278 71.98,-288.56 78.75,-286.79"/>
</a>
</g>
</g>
<!-- Node3&#45;&gt;Node3 -->
<g id="edge4_Node000003_Node000003" class="edge">
<title>Node3&#45;&gt;Node3</title>
<g id="a_edge4_Node000003_Node000003"><a xlink:title=" ">
<path fill="none" stroke="#63b8ff" d="M76.57,-230.28C75.26,-235.37 66.66,-239.25 50.75,-239.25 25.3,-239.25 18.54,-229.32 30.47,-220.39"/>
<polygon fill="#63b8ff" stroke="#63b8ff" points="79.71,-228.73 71.77,-221.71 73.6,-232.15 79.71,-228.73"/>
</a>
</g>
</g>
<!-- Node4&#45;&gt;Node4 -->
<g id="edge6_Node000004_Node000004" class="edge">
<title>Node4&#45;&gt;Node4</title>
<g id="a_edge6_Node000004_Node000004"><a xlink:title=" ">
<path fill="none" stroke="#63b8ff" d="M75.36,-177.65C72.28,-181.53 64.08,-184.25 50.75,-184.25 26.38,-184.25 19.15,-175.15 29.05,-166.54"/>
<polygon fill="#63b8ff" stroke="#63b8ff" points="78.75,-176.79 72.84,-168 71.98,-178.56 78.75,-176.79"/>
</a>
</g>
</g>
<!-- Node5&#45;&gt;Node5 -->
<g id="edge8_Node000005_Node000005" class="edge">
<title>Node5&#45;&gt;Node5</title>
<g id="a_edge8_Node000005_Node000005"><a xlink:title=" ">
<path fill="none" stroke="#63b8ff" d="M75.36,-122.65C72.28,-126.53 64.08,-129.25 50.75,-129.25 26.38,-129.25 19.15,-120.15 29.05,-111.54"/>
<polygon fill="#63b8ff" stroke="#63b8ff" points="78.75,-121.79 72.84,-113 71.98,-123.56 78.75,-121.79"/>
</a>
</g>
</g>
<!-- Node7&#45;&gt;Node7 -->
<g id="edge11_Node000007_Node000007" class="edge">
<title>Node7&#45;&gt;Node7</title>
<g id="a_edge11_Node000007_Node000007"><a xlink:title=" ">
<path fill="none" stroke="#63b8ff" d="M76.67,-25.97C77.63,-32.15 68.99,-37.25 50.75,-37.25 24.22,-37.25 18,-26.45 32.09,-17.26"/>
<polygon fill="#63b8ff" stroke="#63b8ff" points="79.47,-23.86 70.38,-18.42 74.09,-28.35 79.47,-23.86"/>
</a>
</g>
</g>
</g>
</svg>
