<?xml version="1.0" encoding="UTF-8" standalone="no"?>
<!DOCTYPE svg PUBLIC "-//W3C//DTD SVG 1.1//EN"
 "http://www.w3.org/Graphics/SVG/1.1/DTD/svg11.dtd">
<!-- Generated by graphviz version 12.2.1 (20241206.2353)
 -->
<!-- Title: Session Pages: 1 -->
<svg width="153pt" height="64pt"
 viewBox="0.00 0.00 152.50 64.25" xmlns="http://www.w3.org/2000/svg" xmlns:xlink="http://www.w3.org/1999/xlink">
<g id="graph0" class="graph" transform="scale(1 1) rotate(0) translate(4 60.25)">
<title>Session</title>
<!-- Node1 -->
<g id="Node000001" class="node">
<title>Node1</title>
<g id="a_Node000001"><a xlink:title=" ">
<polygon fill="#999999" stroke="#666666" points="144.5,-37.25 93.25,-37.25 93.25,-18 144.5,-18 144.5,-37.25"/>
<text text-anchor="middle" x="118.88" y="-23.75" font-family="Helvetica,sans-Serif" font-size="10.00">Session</text>
</a>
</g>
</g>
<!-- Node2 -->
<g id="Node000002" class="node">
<title>Node2</title>
<g id="a_Node000002"><a xlink:href="classeglt_1_1_session.html#ac614f372c4480707e7017ae56932fe81" target="_top" xlink:title=" ">
<polygon fill="white" stroke="#666666" points="57.25,-56.25 0,-56.25 0,-37 57.25,-37 57.25,-56.25"/>
<text text-anchor="middle" x="28.62" y="-42.75" font-family="Helvetica,sans-Serif" font-size="10.00">operator=</text>
</a>
</g>
</g>
<!-- Node1&#45;&gt;Node2 -->
<g id="edge1_Node000001_Node000002" class="edge">
<title>Node1&#45;&gt;Node2</title>
<g id="a_edge1_Node000001_Node000002"><a xlink:title=" ">
<path fill="none" stroke="#63b8ff" d="M81.76,-35.4C73.68,-37.14 65.22,-38.96 57.53,-40.62"/>
<polygon fill="#63b8ff" stroke="#63b8ff" points="82.3,-38.86 91.34,-33.34 80.83,-32.02 82.3,-38.86"/>
</a>
</g>
</g>
<!-- Node3 -->
<g id="Node000003" class="node">
<title>Node3</title>
<g id="a_Node000003"><a xlink:href="classeglt_1_1_session.html#ad3b6bab86a1784c863c1b192519a9730" target="_top" xlink:title=" ">
<polygon fill="white" stroke="#666666" points="54.25,-19.25 3,-19.25 3,0 54.25,0 54.25,-19.25"/>
<text text-anchor="middle" x="28.62" y="-5.75" font-family="Helvetica,sans-Serif" font-size="10.00">Session</text>
</a>
</g>
</g>
<!-- Node1&#45;&gt;Node3 -->
<g id="edge2_Node000001_Node000003" class="edge">
<title>Node1&#45;&gt;Node3</title>
<g id="a_edge2_Node000001_Node000003"><a xlink:title=" ">
<path fill="none" stroke="#63b8ff" d="M81.71,-20.25C72.65,-18.4 63.13,-16.46 54.74,-14.75"/>
<polygon fill="#63b8ff" stroke="#63b8ff" points="80.84,-23.64 91.34,-22.21 82.24,-16.78 80.84,-23.64"/>
</a>
</g>
</g>
</g>
</svg>
