<?xml version="1.0" encoding="UTF-8" standalone="no"?>
<!DOCTYPE svg PUBLIC "-//W3C//DTD SVG 1.1//EN"
 "http://www.w3.org/Graphics/SVG/1.1/DTD/svg11.dtd">
<!-- Generated by graphviz version 12.2.1 (20241206.2353)
 -->
<!-- Title: NodeMap Pages: 1 -->
<svg width="160pt" height="138pt"
 viewBox="0.00 0.00 160.00 138.25" xmlns="http://www.w3.org/2000/svg" xmlns:xlink="http://www.w3.org/1999/xlink">
<g id="graph0" class="graph" transform="scale(1 1) rotate(0) translate(4 134.25)">
<title>NodeMap</title>
<!-- Node1 -->
<g id="Node000001" class="node">
<title>Node1</title>
<g id="a_Node000001"><a xlink:title=" ">
<polygon fill="#999999" stroke="#666666" points="152,-74.25 94,-74.25 94,-55 152,-55 152,-74.25"/>
<text text-anchor="middle" x="123" y="-60.75" font-family="Helvetica,sans-Serif" font-size="10.00">NodeMap</text>
</a>
</g>
</g>
<!-- Node2 -->
<g id="Node000002" class="node">
<title>Node2</title>
<g id="a_Node000002"><a xlink:href="classeglt_1_1_node_map.html#a8226c69972f3448c6f1bb7479d79c343" target="_top" xlink:title=" ">
<polygon fill="white" stroke="#666666" points="58,-130.25 0,-130.25 0,-111 58,-111 58,-130.25"/>
<text text-anchor="middle" x="29" y="-116.75" font-family="Helvetica,sans-Serif" font-size="10.00">NodeMap</text>
</a>
</g>
</g>
<!-- Node1&#45;&gt;Node2 -->
<g id="edge1_Node000001_Node000002" class="edge">
<title>Node1&#45;&gt;Node2</title>
<g id="a_edge1_Node000001_Node000002"><a xlink:title=" ">
<path fill="none" stroke="#63b8ff" d="M95.82,-80.56C80,-90.19 60.32,-102.17 46.62,-110.51"/>
<polygon fill="#63b8ff" stroke="#63b8ff" points="97.54,-83.61 104.26,-75.42 93.9,-77.63 97.54,-83.61"/>
</a>
</g>
</g>
<!-- Node3 -->
<g id="Node000003" class="node">
<title>Node3</title>
<g id="a_Node000003"><a xlink:href="classeglt_1_1_node_map.html#a688e94e69c4c4ba885ce8aff7f86ad4b" target="_top" xlink:title=" ">
<polygon fill="white" stroke="#666666" points="58,-93.25 0,-93.25 0,-74 58,-74 58,-93.25"/>
<text text-anchor="middle" x="29" y="-79.75" font-family="Helvetica,sans-Serif" font-size="10.00">NodeMap</text>
</a>
</g>
</g>
<!-- Node1&#45;&gt;Node3 -->
<g id="edge2_Node000001_Node000003" class="edge">
<title>Node1&#45;&gt;Node3</title>
<g id="a_edge2_Node000001_Node000003"><a xlink:title=" ">
<path fill="none" stroke="#63b8ff" d="M82.49,-72.78C74.4,-74.46 66.03,-76.18 58.42,-77.76"/>
<polygon fill="#63b8ff" stroke="#63b8ff" points="83.08,-76.24 92.16,-70.79 81.66,-69.38 83.08,-76.24"/>
</a>
</g>
</g>
<!-- Node4 -->
<g id="Node000004" class="node">
<title>Node4</title>
<g id="a_Node000004"><a xlink:href="classeglt_1_1_node_map.html#af797cd375923178d615b480cfa5cca2d" target="_top" xlink:title=" ">
<polygon fill="white" stroke="#666666" points="57.62,-56.25 0.38,-56.25 0.38,-37 57.62,-37 57.62,-56.25"/>
<text text-anchor="middle" x="29" y="-42.75" font-family="Helvetica,sans-Serif" font-size="10.00">operator=</text>
</a>
</g>
</g>
<!-- Node1&#45;&gt;Node4 -->
<g id="edge3_Node000001_Node000004" class="edge">
<title>Node1&#45;&gt;Node4</title>
<g id="a_edge3_Node000001_Node000004"><a xlink:title=" ">
<path fill="none" stroke="#63b8ff" d="M82.38,-56.87C74.21,-55.28 65.76,-53.62 58.1,-52.12"/>
<polygon fill="#63b8ff" stroke="#63b8ff" points="81.67,-60.3 92.16,-58.79 83.02,-53.43 81.67,-60.3"/>
</a>
</g>
</g>
<!-- Node5 -->
<g id="Node000005" class="node">
<title>Node5</title>
<g id="a_Node000005"><a xlink:href="classeglt_1_1_node_map.html#ade8a79c8caa0249f67dd081d63942dc7" target="_top" xlink:title=" ">
<polygon fill="white" stroke="#666666" points="57.62,-19.25 0.38,-19.25 0.38,0 57.62,0 57.62,-19.25"/>
<text text-anchor="middle" x="29" y="-5.75" font-family="Helvetica,sans-Serif" font-size="10.00">operator=</text>
</a>
</g>
</g>
<!-- Node1&#45;&gt;Node5 -->
<g id="edge4_Node000001_Node000005" class="edge">
<title>Node1&#45;&gt;Node5</title>
<g id="a_edge4_Node000001_Node000005"><a xlink:title=" ">
<path fill="none" stroke="#63b8ff" d="M95.44,-48.75C79.75,-39.37 60.35,-27.77 46.77,-19.65"/>
<polygon fill="#63b8ff" stroke="#63b8ff" points="93.45,-51.63 103.83,-53.76 97.04,-45.63 93.45,-51.63"/>
</a>
</g>
</g>
</g>
</svg>
