<?xml version="1.0" encoding="UTF-8" standalone="no"?>
<!DOCTYPE svg PUBLIC "-//W3C//DTD SVG 1.1//EN"
 "http://www.w3.org/Graphics/SVG/1.1/DTD/svg11.dtd">
<!-- Generated by graphviz version 12.2.1 (20241206.2353)
 -->
<!-- Title: GetNode Pages: 1 -->
<svg width="160pt" height="64pt"
 viewBox="0.00 0.00 160.00 64.25" xmlns="http://www.w3.org/2000/svg" xmlns:xlink="http://www.w3.org/1999/xlink">
<g id="graph0" class="graph" transform="scale(1 1) rotate(0) translate(4 60.25)">
<title>GetNode</title>
<!-- Node1 -->
<g id="Node000001" class="node">
<title>Node1</title>
<g id="a_Node000001"><a xlink:title="Gets an AsyncNode with the given id from the node map.">
<polygon fill="#999999" stroke="#666666" points="152,-37.25 97,-37.25 97,-18 152,-18 152,-37.25"/>
<text text-anchor="middle" x="124.5" y="-23.75" font-family="Helvetica,sans-Serif" font-size="10.00">GetNode</text>
</a>
</g>
</g>
<!-- Node2 -->
<g id="Node000002" class="node">
<title>Node2</title>
<g id="a_Node000002"><a xlink:href="classeglt_1_1_action.html#abf36611c7ec80308b61b848c5cc41c8a" target="_top" xlink:title="Gets an AsyncNode input with the given name from the node map. If no input with the given name is fou...">
<polygon fill="white" stroke="#666666" points="57.25,-56.25 3.75,-56.25 3.75,-37 57.25,-37 57.25,-56.25"/>
<text text-anchor="middle" x="30.5" y="-42.75" font-family="Helvetica,sans-Serif" font-size="10.00">GetInput</text>
</a>
</g>
</g>
<!-- Node1&#45;&gt;Node2 -->
<g id="edge1_Node000001_Node000002" class="edge">
<title>Node1&#45;&gt;Node2</title>
<g id="a_edge1_Node000001_Node000002"><a xlink:title=" ">
<path fill="none" stroke="#63b8ff" d="M85.76,-35.42C76.34,-37.36 66.45,-39.41 57.73,-41.21"/>
<polygon fill="#63b8ff" stroke="#63b8ff" points="86.32,-38.88 95.41,-33.43 84.91,-32.02 86.32,-38.88"/>
</a>
</g>
</g>
<!-- Node3 -->
<g id="Node000003" class="node">
<title>Node3</title>
<g id="a_Node000003"><a xlink:href="classeglt_1_1_action.html#ad7cc2e2e263bd92a6a3ece6b686f7c15" target="_top" xlink:title="Gets an AsyncNode output with the given name from the node map. If no output with the given name is f...">
<polygon fill="white" stroke="#666666" points="61,-19.25 0,-19.25 0,0 61,0 61,-19.25"/>
<text text-anchor="middle" x="30.5" y="-5.75" font-family="Helvetica,sans-Serif" font-size="10.00">GetOutput</text>
</a>
</g>
</g>
<!-- Node1&#45;&gt;Node3 -->
<g id="edge2_Node000001_Node000003" class="edge">
<title>Node1&#45;&gt;Node3</title>
<g id="a_edge2_Node000001_Node000003"><a xlink:title=" ">
<path fill="none" stroke="#63b8ff" d="M85.72,-20.23C77.57,-18.64 69.07,-16.98 61.28,-15.45"/>
<polygon fill="#63b8ff" stroke="#63b8ff" points="84.92,-23.64 95.4,-22.13 86.26,-16.77 84.92,-23.64"/>
</a>
</g>
</g>
</g>
</svg>
