<?xml version="1.0" encoding="UTF-8" standalone="no"?>
<!DOCTYPE svg PUBLIC "-//W3C//DTD SVG 1.1//EN"
 "http://www.w3.org/Graphics/SVG/1.1/DTD/svg11.dtd">
<!-- Generated by graphviz version 12.2.1 (20241206.2353)
 -->
<!-- Title: Put Pages: 1 -->
<svg width="207pt" height="45pt"
 viewBox="0.00 0.00 207.22 45.25" xmlns="http://www.w3.org/2000/svg" xmlns:xlink="http://www.w3.org/1999/xlink">
<g id="graph0" class="graph" transform="scale(1 1) rotate(0) translate(4 41.25)">
<title>Put</title>
<!-- Node1 -->
<g id="Node000001" class="node">
<title>Node1</title>
<g id="a_Node000001"><a xlink:title=" ">
<polygon fill="#999999" stroke="#666666" points="193.25,-19.25 162.25,-19.25 162.25,0 193.25,0 193.25,-19.25"/>
<text text-anchor="middle" x="177.75" y="-5.75" font-family="Helvetica,sans-Serif" font-size="10.00">Put</text>
</a>
</g>
</g>
<!-- Node1&#45;&gt;Node1 -->
<g id="edge2_Node000001_Node000001" class="edge">
<title>Node1&#45;&gt;Node1</title>
<g id="a_edge2_Node000001_Node000001"><a xlink:title=" ">
<path fill="none" stroke="#63b8ff" d="M199.22,-27.39C198.82,-32.91 191.66,-37.25 177.75,-37.25 156.03,-37.25 150.77,-26.67 161.97,-17.54"/>
<polygon fill="#63b8ff" stroke="#63b8ff" points="202.32,-25.76 194.29,-18.85 196.26,-29.26 202.32,-25.76"/>
</a>
</g>
</g>
<!-- Node2 -->
<g id="Node000002" class="node">
<title>Node2</title>
<g id="a_Node000002"><a xlink:href="namespaceeglt.html#a11f75fa04f53e282a0dacf593fc0211c" target="_top" xlink:title=" ">
<polygon fill="white" stroke="#666666" points="126.25,-19.25 0,-19.25 0,0 126.25,0 126.25,-19.25"/>
<text text-anchor="middle" x="63.12" y="-5.75" font-family="Helvetica,sans-Serif" font-size="10.00">eglt::Put&lt; base::Chunk &gt;</text>
</a>
</g>
</g>
<!-- Node1&#45;&gt;Node2 -->
<g id="edge1_Node000001_Node000002" class="edge">
<title>Node1&#45;&gt;Node2</title>
<g id="a_edge1_Node000001_Node000002"><a xlink:title=" ">
<path fill="none" stroke="#63b8ff" d="M150.73,-9.62C143.39,-9.62 135.06,-9.62 126.55,-9.62"/>
<polygon fill="#63b8ff" stroke="#63b8ff" points="150.51,-13.13 160.51,-9.63 150.51,-6.13 150.51,-13.13"/>
</a>
</g>
</g>
</g>
</svg>
