<?xml version="1.0" encoding="UTF-8" standalone="no"?>
<!DOCTYPE svg PUBLIC "-//W3C//DTD SVG 1.1//EN"
 "http://www.w3.org/Graphics/SVG/1.1/DTD/svg11.dtd">
<!-- Generated by graphviz version 12.2.1 (20241206.2353)
 -->
<!-- Title: Put Pages: 1 -->
<svg width="161pt" height="64pt"
 viewBox="0.00 0.00 161.18 64.25" xmlns="http://www.w3.org/2000/svg" xmlns:xlink="http://www.w3.org/1999/xlink">

<svg id="main" version="1.1" xmlns="http://www.w3.org/2000/svg" xmlns:xlink="http://www.w3.org/1999/xlink" xml:space="preserve">

<style type="text/css"><![CDATA[
.node, .edge {opacity: 0.7;}
.node.selected, .edge.selected {opacity: 1;}
.edge:hover path { stroke: red; }
.edge:hover polygon { stroke: red; fill: red; }
]]></style>
<script type="application/ecmascript" xlink:href="svg.min.js"/>
<svg id="graph" class="graph">
<g id="graph0" class="graph" transform="scale(1 1) rotate(0) translate(4 60.25)">
<title>Put</title>
<!-- Node1 -->
<g id="Node000001" class="node">
<title>Node1</title>
<g id="a_Node000001"><a xlink:title=" ">
<polygon fill="#999999" stroke="#666666" points="152,-37.25 121,-37.25 121,-18 152,-18 152,-37.25"/>
<text text-anchor="middle" x="136.5" y="-23.75" font-family="Helvetica,sans-Serif" font-size="10.00">Put</text>
</a>
</g>
</g>
<!-- Node1&#45;&gt;Node1 -->
<g id="edge3_Node000001_Node000001" class="edge">
<title>Node1&#45;&gt;Node1</title>
<g id="a_edge3_Node000001_Node000001"><a xlink:title=" ">
<path fill="none" stroke="#63b8ff" d="M153.18,-48.65C151.1,-52.53 145.54,-55.25 136.5,-55.25 119.98,-55.25 115.07,-46.15 121.78,-37.54"/>
<polygon fill="#63b8ff" stroke="#63b8ff" points="156.67,-48.26 151.48,-39.03 149.78,-49.49 156.67,-48.26"/>
</a>
</g>
</g>
<!-- Node2 -->
<g id="Node000002" class="node">
<title>Node2</title>
<g id="a_Node000002"><a xlink:href="classeglt_1_1_chunk_store_writer.html#af4aad9298b8c9deff1414d4276c689ab" target="_top" xlink:title=" ">
<polygon fill="white" stroke="#666666" points="74.12,-56.25 10.88,-56.25 10.88,-37 74.12,-37 74.12,-56.25"/>
<text text-anchor="middle" x="42.5" y="-42.75" font-family="Helvetica,sans-Serif" font-size="10.00">operator&lt;&lt;</text>
</a>
</g>
</g>
<!-- Node1&#45;&gt;Node2 -->
<g id="edge1_Node000001_Node000002" class="edge">
<title>Node1&#45;&gt;Node2</title>
<g id="a_edge1_Node000001_Node000002"><a xlink:title=" ">
<path fill="none" stroke="#63b8ff" d="M109.69,-32.96C98.68,-35.23 85.75,-37.9 74.25,-40.27"/>
<polygon fill="#63b8ff" stroke="#63b8ff" points="110.15,-36.43 119.24,-30.98 108.74,-29.58 110.15,-36.43"/>
</a>
</g>
</g>
<!-- Node3 -->
<g id="Node000003" class="node">
<title>Node3</title>
<g id="a_Node000003"><a xlink:href="namespaceeglt.html#a8b111d164774a256a58f202a8f5136c5" target="_top" xlink:title=" ">
<polygon fill="white" stroke="#666666" points="85,-19.25 0,-19.25 0,0 85,0 85,-19.25"/>
<text text-anchor="middle" x="42.5" y="-5.75" font-family="Helvetica,sans-Serif" font-size="10.00">eglt::operator&lt;&lt;</text>
</a>
</g>
</g>
<!-- Node1&#45;&gt;Node3 -->
<g id="edge2_Node000001_Node000003" class="edge">
<title>Node1&#45;&gt;Node3</title>
<g id="a_edge2_Node000001_Node000003"><a xlink:title=" ">
<path fill="none" stroke="#63b8ff" d="M109.42,-22.52C101.9,-21.05 93.49,-19.4 85.26,-17.8"/>
<polygon fill="#63b8ff" stroke="#63b8ff" points="108.75,-25.96 119.23,-24.44 110.09,-19.09 108.75,-25.96"/>
</a>
</g>
</g>
</g>
</svg>
</svg>

<style type='text/css'>
<![CDATA[
[data-mouse-over-selected='false'] { opacity: 0.7; }
[data-mouse-over-selected='true']  { opacity: 1.0; }
]]>
</style>
<script type="application/ecmascript"><![CDATA[
document.addEventListener('DOMContentLoaded', (event) => {
  highlightEdges();
  highlightAdjacentNodes();
});
]]></script>
</svg>
