<?xml version="1.0" encoding="UTF-8" standalone="no"?>
<!DOCTYPE svg PUBLIC "-//W3C//DTD SVG 1.1//EN"
 "http://www.w3.org/Graphics/SVG/1.1/DTD/svg11.dtd">
<!-- Generated by graphviz version 12.2.1 (20241206.2353)
 -->
<!-- Title: Graphical Class Hierarchy Pages: 1 -->
<svg width="203pt" height="64pt"
 viewBox="0.00 0.00 202.75 64.25" xmlns="http://www.w3.org/2000/svg" xmlns:xlink="http://www.w3.org/1999/xlink">
<g id="graph0" class="graph" transform="scale(1 1) rotate(0) translate(4 60.25)">
<title>Graphical Class Hierarchy</title>
<!-- Node0 -->
<g id="Node000000" class="node">
<title>Node0</title>
<g id="a_Node000000"><a xlink:href="classeglt_1_1_chunk_store.html" target="_top" xlink:title=" ">
<polygon fill="white" stroke="#666666" points="67.75,-37.25 0,-37.25 0,-18 67.75,-18 67.75,-37.25"/>
<text text-anchor="middle" x="33.88" y="-23.75" font-family="Helvetica,sans-Serif" font-size="10.00">ChunkStore</text>
</a>
</g>
</g>
<!-- Node1 -->
<g id="Node000001" class="node">
<title>Node1</title>
<g id="a_Node000001"><a xlink:href="classeglt_1_1_local_chunk_store.html" target="_top" xlink:title=" ">
<polygon fill="white" stroke="#666666" points="194.75,-56.25 103.75,-56.25 103.75,-37 194.75,-37 194.75,-56.25"/>
<text text-anchor="middle" x="149.25" y="-42.75" font-family="Helvetica,sans-Serif" font-size="10.00">LocalChunkStore</text>
</a>
</g>
</g>
<!-- Node0&#45;&gt;Node1 -->
<g id="edge3_Node000000_Node000001" class="edge">
<title>Node0&#45;&gt;Node1</title>
<g id="a_edge3_Node000000_Node000001"><a xlink:title=" ">
<path fill="none" stroke="#63b8ff" d="M79.31,-35.07C87.26,-36.4 95.56,-37.79 103.52,-39.13"/>
<polygon fill="#63b8ff" stroke="#63b8ff" points="79.91,-31.62 69.47,-33.42 78.75,-38.53 79.91,-31.62"/>
</a>
</g>
</g>
<!-- Node2 -->
<g id="Node000002" class="node">
<title>Node2</title>
<g id="a_Node000002"><a xlink:href="classeglt_1_1pybindings_1_1_py_chunk_store.html" target="_top" xlink:title=" ">
<polygon fill="white" stroke="#666666" points="189.12,-19.25 109.38,-19.25 109.38,0 189.12,0 189.12,-19.25"/>
<text text-anchor="middle" x="149.25" y="-5.75" font-family="Helvetica,sans-Serif" font-size="10.00">PyChunkStore</text>
</a>
</g>
</g>
<!-- Node0&#45;&gt;Node2 -->
<g id="edge4_Node000000_Node000002" class="edge">
<title>Node0&#45;&gt;Node2</title>
<g id="a_edge4_Node000000_Node000002"><a xlink:title=" ">
<path fill="none" stroke="#63b8ff" d="M79.17,-20.59C88.98,-19.04 99.3,-17.4 108.9,-15.87"/>
<polygon fill="#63b8ff" stroke="#63b8ff" points="78.79,-17.11 69.47,-22.13 79.89,-24.02 78.79,-17.11"/>
</a>
</g>
</g>
</g>
</svg>
