<?xml version="1.0" encoding="UTF-8" standalone="no"?>
<!DOCTYPE svg PUBLIC "-//W3C//DTD SVG 1.1//EN"
 "http://www.w3.org/Graphics/SVG/1.1/DTD/svg11.dtd">
<!-- Generated by graphviz version 12.2.1 (20241206.2353)
 -->
<!-- Title: Graphical Class Hierarchy Pages: 1 -->
<svg width="218pt" height="64pt"
 viewBox="0.00 0.00 217.75 64.25" xmlns="http://www.w3.org/2000/svg" xmlns:xlink="http://www.w3.org/1999/xlink">
<g id="graph0" class="graph" transform="scale(1 1) rotate(0) translate(4 60.25)">
<title>Graphical Class Hierarchy</title>
<!-- Node0 -->
<g id="Node000000" class="node">
<title>Node0</title>
<g id="a_Node000000"><a xlink:title=" ">
<polygon fill="#e0e0e0" stroke="#999999" points="124.75,-37.25 0,-37.25 0,-18 124.75,-18 124.75,-37.25"/>
<text text-anchor="middle" x="62.38" y="-23.75" font-family="Helvetica,sans-Serif" font-size="10.00">enable_shared_from_this</text>
</a>
</g>
</g>
<!-- Node1 -->
<g id="Node000001" class="node">
<title>Node1</title>
<g id="a_Node000001"><a xlink:href="classeglt_1_1_action.html" target="_top" xlink:title="An accessor class for an Evergreen action.">
<polygon fill="white" stroke="#666666" points="207.12,-56.25 163.38,-56.25 163.38,-37 207.12,-37 207.12,-56.25"/>
<text text-anchor="middle" x="185.25" y="-42.75" font-family="Helvetica,sans-Serif" font-size="10.00">Action</text>
</a>
</g>
</g>
<!-- Node0&#45;&gt;Node1 -->
<g id="edge5_Node000000_Node000001" class="edge">
<title>Node0&#45;&gt;Node1</title>
<g id="a_edge5_Node000000_Node000001"><a xlink:title=" ">
<path fill="none" stroke="#63b8ff" d="M136.3,-39.09C145.99,-40.61 155.23,-42.06 162.97,-43.28"/>
<polygon fill="#63b8ff" stroke="#63b8ff" points="137.15,-35.68 126.72,-37.58 136.06,-42.59 137.15,-35.68"/>
</a>
</g>
</g>
<!-- Node2 -->
<g id="Node000002" class="node">
<title>Node2</title>
<g id="a_Node000002"><a xlink:href="classeglt_1_1_service.html" target="_top" xlink:title="The Evergreen service class. Manages sessions, streams, and connections.">
<polygon fill="white" stroke="#666666" points="209.75,-19.25 160.75,-19.25 160.75,0 209.75,0 209.75,-19.25"/>
<text text-anchor="middle" x="185.25" y="-5.75" font-family="Helvetica,sans-Serif" font-size="10.00">Service</text>
</a>
</g>
</g>
<!-- Node0&#45;&gt;Node2 -->
<g id="edge6_Node000000_Node000002" class="edge">
<title>Node0&#45;&gt;Node2</title>
<g id="a_edge6_Node000000_Node000002"><a xlink:title=" ">
<path fill="none" stroke="#63b8ff" d="M136.61,-16.72C145.16,-15.45 153.35,-14.23 160.46,-13.17"/>
<polygon fill="#63b8ff" stroke="#63b8ff" points="136.1,-13.26 126.73,-18.19 137.13,-20.18 136.1,-13.26"/>
</a>
</g>
</g>
</g>
</svg>
