<?xml version="1.0" encoding="UTF-8" standalone="no"?>
<!DOCTYPE svg PUBLIC "-//W3C//DTD SVG 1.1//EN"
 "http://www.w3.org/Graphics/SVG/1.1/DTD/svg11.dtd">
<!-- Generated by graphviz version 12.2.1 (20241206.2353)
 -->
<!-- Title: Graphical Class Hierarchy Pages: 1 -->
<svg width="270pt" height="64pt"
 viewBox="0.00 0.00 270.25 64.25" xmlns="http://www.w3.org/2000/svg" xmlns:xlink="http://www.w3.org/1999/xlink">
<g id="graph0" class="graph" transform="scale(1 1) rotate(0) translate(4 60.25)">
<title>Graphical Class Hierarchy</title>
<!-- Node0 -->
<g id="Node000000" class="node">
<title>Node0</title>
<g id="a_Node000000"><a xlink:title=" ">
<polygon fill="#e0e0e0" stroke="#999999" points="127,-56.25 0,-56.25 0,-37 127,-37 127,-56.25"/>
<text text-anchor="middle" x="63.5" y="-42.75" font-family="Helvetica,sans-Serif" font-size="10.00">algorithm_with_properties</text>
</a>
</g>
</g>
<!-- Node1 -->
<g id="Node000001" class="node">
<title>Node1</title>
<g id="a_Node000001"><a xlink:href="classeglt_1_1concurrency_1_1impl_1_1work__stealing__with__properties.html" target="_top" xlink:title=" ">
<polygon fill="white" stroke="#666666" points="262.25,-42.88 163,-42.88 163,-12.37 262.25,-12.37 262.25,-42.88"/>
<text text-anchor="start" x="171" y="-29.38" font-family="Helvetica,sans-Serif" font-size="10.00">work_stealing_with</text>
<text text-anchor="middle" x="212.62" y="-18.12" font-family="Helvetica,sans-Serif" font-size="10.00">_properties</text>
</a>
</g>
</g>
<!-- Node0&#45;&gt;Node1 -->
<g id="edge1_Node000000_Node000001" class="edge">
<title>Node0&#45;&gt;Node1</title>
<g id="a_edge1_Node000000_Node000001"><a xlink:title=" ">
<path fill="none" stroke="#63b8ff" d="M138.52,-37.07C146.76,-36 155,-34.94 162.81,-33.93"/>
<polygon fill="#63b8ff" stroke="#63b8ff" points="138.29,-33.57 128.82,-38.32 139.19,-40.51 138.29,-33.57"/>
</a>
</g>
</g>
<!-- Node2 -->
<g id="Node000002" class="node">
<title>Node2</title>
<g id="a_Node000002"><a xlink:title=" ">
<polygon fill="#e0e0e0" stroke="#999999" points="101.5,-19.25 25.5,-19.25 25.5,0 101.5,0 101.5,-19.25"/>
<text text-anchor="middle" x="63.5" y="-5.75" font-family="Helvetica,sans-Serif" font-size="10.00">work_stealing</text>
</a>
</g>
</g>
<!-- Node2&#45;&gt;Node1 -->
<g id="edge2_Node000002_Node000001" class="edge">
<title>Node2&#45;&gt;Node1</title>
<g id="a_edge2_Node000002_Node000001"><a xlink:title=" ">
<path fill="none" stroke="#63b8ff" d="M112.87,-15.54C128.81,-17.49 146.55,-19.66 162.55,-21.62"/>
<polygon fill="#63b8ff" stroke="#63b8ff" points="113.48,-12.09 103.13,-14.35 112.63,-19.04 113.48,-12.09"/>
</a>
</g>
</g>
</g>
</svg>
