<?xml version="1.0" encoding="UTF-8" standalone="no"?>
<!DOCTYPE svg PUBLIC "-//W3C//DTD SVG 1.1//EN"
 "http://www.w3.org/Graphics/SVG/1.1/DTD/svg11.dtd">
<!-- Generated by graphviz version 12.2.1 (20241206.2353)
 -->
<!-- Title: GenerateUUID4 Pages: 1 -->
<svg width="394pt" height="97pt"
 viewBox="0.00 0.00 394.25 96.88" xmlns="http://www.w3.org/2000/svg" xmlns:xlink="http://www.w3.org/1999/xlink">
<g id="graph0" class="graph" transform="scale(1 1) rotate(0) translate(4 92.88)">
<title>GenerateUUID4</title>
<!-- Node1 -->
<g id="Node000001" class="node">
<title>Node1</title>
<g id="a_Node000001"><a xlink:title=" ">
<polygon fill="#999999" stroke="#666666" points="386.25,-66.88 299.75,-66.88 299.75,-47.62 386.25,-47.62 386.25,-66.88"/>
<text text-anchor="middle" x="343" y="-53.38" font-family="Helvetica,sans-Serif" font-size="10.00">GenerateUUID4</text>
</a>
</g>
</g>
<!-- Node2 -->
<g id="Node000002" class="node">
<title>Node2</title>
<g id="a_Node000002"><a xlink:href="classeglt_1_1_action.html#a9166629843bcec872b5aa572c617975b" target="_top" xlink:title="Constructor. Creates an action in the context given by node_map, stream, and session.">
<polygon fill="white" stroke="#666666" points="262.25,-88.88 163,-88.88 163,-69.62 262.25,-69.62 262.25,-88.88"/>
<text text-anchor="middle" x="212.62" y="-75.38" font-family="Helvetica,sans-Serif" font-size="10.00">eglt::Action::Action</text>
</a>
</g>
</g>
<!-- Node1&#45;&gt;Node2 -->
<g id="edge1_Node000001_Node000002" class="edge">
<title>Node1&#45;&gt;Node2</title>
<g id="a_edge1_Node000001_Node000002"><a xlink:title=" ">
<path fill="none" stroke="#63b8ff" d="M287.91,-66.52C279.44,-67.97 270.74,-69.46 262.4,-70.89"/>
<polygon fill="#63b8ff" stroke="#63b8ff" points="288.5,-69.97 297.76,-64.83 287.31,-63.07 288.5,-69.97"/>
</a>
</g>
</g>
<!-- Node3 -->
<g id="Node000003" class="node">
<title>Node3</title>
<g id="a_Node000003"><a xlink:href="classeglt_1_1_action_registry.html#a46cdfcfce135eff394148025bc0ac44e" target="_top" xlink:title=" ">
<polygon fill="white" stroke="#666666" points="263.75,-51.5 161.5,-51.5 161.5,-21 263.75,-21 263.75,-51.5"/>
<text text-anchor="start" x="169.5" y="-38" font-family="Helvetica,sans-Serif" font-size="10.00">eglt::ActionRegistry</text>
<text text-anchor="middle" x="212.62" y="-26.75" font-family="Helvetica,sans-Serif" font-size="10.00">::MakeAction</text>
</a>
</g>
</g>
<!-- Node1&#45;&gt;Node3 -->
<g id="edge2_Node000001_Node000003" class="edge">
<title>Node1&#45;&gt;Node3</title>
<g id="a_edge2_Node000001_Node000003"><a xlink:title=" ">
<path fill="none" stroke="#63b8ff" d="M287.93,-48.41C280.07,-47.12 271.99,-45.8 264.2,-44.52"/>
<polygon fill="#63b8ff" stroke="#63b8ff" points="287.33,-51.85 297.76,-50.01 288.46,-44.94 287.33,-51.85"/>
</a>
</g>
</g>
<!-- Node4 -->
<g id="Node000004" class="node">
<title>Node4</title>
<g id="a_Node000004"><a xlink:href="namespaceeglt.html#a95366fc4aaf2b267febdfedd75fab80f" target="_top" xlink:title=" ">
<polygon fill="white" stroke="#666666" points="125.5,-67.88 0,-67.88 0,-48.62 125.5,-48.62 125.5,-67.88"/>
<text text-anchor="middle" x="62.75" y="-54.38" font-family="Helvetica,sans-Serif" font-size="10.00">MakeActionInConnection</text>
</a>
</g>
</g>
<!-- Node3&#45;&gt;Node4 -->
<g id="edge3_Node000003_Node000004" class="edge">
<title>Node3&#45;&gt;Node4</title>
<g id="a_edge3_Node000003_Node000004"><a xlink:title=" ">
<path fill="none" stroke="#63b8ff" d="M150,-45.42C141.99,-46.61 133.79,-47.83 125.77,-49.02"/>
<polygon fill="#63b8ff" stroke="#63b8ff" points="150.28,-48.92 159.65,-43.98 149.25,-41.99 150.28,-48.92"/>
</a>
</g>
</g>
<!-- Node5 -->
<g id="Node000005" class="node">
<title>Node5</title>
<g id="a_Node000005"><a xlink:href="classeglt_1_1_action.html#a9da84dfe723ceffb3aa40b722e9bc38c" target="_top" xlink:title="Makes a different action in the same session. Should be used to create nested actions.">
<polygon fill="white" stroke="#666666" points="124.38,-30.5 1.12,-30.5 1.12,0 124.38,0 124.38,-30.5"/>
<text text-anchor="start" x="9.12" y="-17" font-family="Helvetica,sans-Serif" font-size="10.00">eglt::Action::MakeAction</text>
<text text-anchor="middle" x="62.75" y="-5.75" font-family="Helvetica,sans-Serif" font-size="10.00">InSameSession</text>
</a>
</g>
</g>
<!-- Node3&#45;&gt;Node5 -->
<g id="edge4_Node000003_Node000005" class="edge">
<title>Node3&#45;&gt;Node5</title>
<g id="a_edge4_Node000003_Node000005"><a xlink:title=" ">
<path fill="none" stroke="#63b8ff" d="M149.95,-27.49C141.61,-26.31 133.06,-25.09 124.73,-23.91"/>
<polygon fill="#63b8ff" stroke="#63b8ff" points="149.26,-30.93 159.65,-28.87 150.24,-24 149.26,-30.93"/>
</a>
</g>
</g>
</g>
</svg>
