<?xml version="1.0" encoding="UTF-8" standalone="no"?>
<!DOCTYPE svg PUBLIC "-//W3C//DTD SVG 1.1//EN"
 "http://www.w3.org/Graphics/SVG/1.1/DTD/svg11.dtd">
<!-- Generated by graphviz version 12.2.1 (20241206.2353)
 -->
<!-- Title: NewTree Pages: 1 -->
<svg width="402pt" height="137pt"
 viewBox="0.00 0.00 401.75 136.88" xmlns="http://www.w3.org/2000/svg" xmlns:xlink="http://www.w3.org/1999/xlink">
<g id="graph0" class="graph" transform="scale(1 1) rotate(0) translate(4 132.88)">
<title>NewTree</title>
<!-- Node1 -->
<g id="Node000001" class="node">
<title>Node1</title>
<g id="a_Node000001"><a xlink:title=" ">
<polygon fill="#999999" stroke="#666666" points="393.75,-85.88 338,-85.88 338,-66.62 393.75,-66.62 393.75,-85.88"/>
<text text-anchor="middle" x="365.88" y="-72.38" font-family="Helvetica,sans-Serif" font-size="10.00">NewTree</text>
</a>
</g>
</g>
<!-- Node2 -->
<g id="Node000002" class="node">
<title>Node2</title>
<g id="a_Node000002"><a xlink:href="classeglt_1_1_session.html#a9d124daa5a683635acb09dc3d25beac1" target="_top" xlink:title=" ">
<polygon fill="white" stroke="#666666" points="299.75,-128.88 159.25,-128.88 159.25,-109.62 299.75,-109.62 299.75,-128.88"/>
<text text-anchor="middle" x="229.5" y="-115.38" font-family="Helvetica,sans-Serif" font-size="10.00">eglt::Session::DispatchFrom</text>
</a>
</g>
</g>
<!-- Node1&#45;&gt;Node2 -->
<g id="edge1_Node000001_Node000002" class="edge">
<title>Node1&#45;&gt;Node2</title>
<g id="a_edge1_Node000001_Node000002"><a xlink:title=" ">
<path fill="none" stroke="#63b8ff" d="M329.78,-90.39C320.79,-93.81 311.09,-97.32 302,-100.25 292.22,-103.41 281.57,-106.44 271.55,-109.13"/>
<polygon fill="#63b8ff" stroke="#63b8ff" points="330.83,-93.74 338.89,-86.86 328.3,-87.21 330.83,-93.74"/>
</a>
</g>
</g>
<!-- Node3 -->
<g id="Node000003" class="node">
<title>Node3</title>
<g id="a_Node000003"><a xlink:href="classeglt_1_1_service.html#a2f080d2a2960977a7463531eb649cc53" target="_top" xlink:title=" ">
<polygon fill="white" stroke="#666666" points="288.12,-91.5 170.88,-91.5 170.88,-61 288.12,-61 288.12,-91.5"/>
<text text-anchor="start" x="178.88" y="-78" font-family="Helvetica,sans-Serif" font-size="10.00">eglt::Service::Establish</text>
<text text-anchor="middle" x="229.5" y="-66.75" font-family="Helvetica,sans-Serif" font-size="10.00">Connection</text>
</a>
</g>
</g>
<!-- Node1&#45;&gt;Node3 -->
<g id="edge2_Node000001_Node000003" class="edge">
<title>Node1&#45;&gt;Node3</title>
<g id="a_edge2_Node000001_Node000003"><a xlink:title=" ">
<path fill="none" stroke="#63b8ff" d="M326.41,-76.25C314.58,-76.25 301.29,-76.25 288.45,-76.25"/>
<polygon fill="#63b8ff" stroke="#63b8ff" points="326.17,-79.75 336.17,-76.25 326.17,-72.75 326.17,-79.75"/>
</a>
</g>
</g>
<!-- Node5 -->
<g id="Node000005" class="node">
<title>Node5</title>
<g id="a_Node000005"><a xlink:href="classeglt_1_1_chunk_store_reader.html#a487bb77aa51db57e589a7b3df272ab74" target="_top" xlink:title=" ">
<polygon fill="white" stroke="#666666" points="302,-24.88 157,-24.88 157,-5.63 302,-5.63 302,-24.88"/>
<text text-anchor="middle" x="229.5" y="-11.38" font-family="Helvetica,sans-Serif" font-size="10.00">eglt::ChunkStoreReader::Run</text>
</a>
</g>
</g>
<!-- Node1&#45;&gt;Node5 -->
<g id="edge4_Node000001_Node000005" class="edge">
<title>Node1&#45;&gt;Node5</title>
<g id="a_edge4_Node000001_Node000005"><a xlink:title=" ">
<path fill="none" stroke="#63b8ff" d="M332.36,-61.49C307.69,-50.29 274.42,-35.19 252.72,-25.34"/>
<polygon fill="#63b8ff" stroke="#63b8ff" points="330.76,-64.6 341.31,-65.55 333.65,-58.23 330.76,-64.6"/>
</a>
</g>
</g>
<!-- Node4 -->
<g id="Node000004" class="node">
<title>Node4</title>
<g id="a_Node000004"><a xlink:href="classeglt_1_1_service.html#a4dfff76ceb56a099b1a54da73e0c57d4" target="_top" xlink:title=" ">
<polygon fill="white" stroke="#666666" points="119.5,-85.88 1.5,-85.88 1.5,-66.62 119.5,-66.62 119.5,-85.88"/>
<text text-anchor="middle" x="60.5" y="-72.38" font-family="Helvetica,sans-Serif" font-size="10.00">eglt::Service::operator=</text>
</a>
</g>
</g>
<!-- Node3&#45;&gt;Node4 -->
<g id="edge3_Node000003_Node000004" class="edge">
<title>Node3&#45;&gt;Node4</title>
<g id="a_edge3_Node000003_Node000004"><a xlink:title=" ">
<path fill="none" stroke="#63b8ff" d="M159.23,-76.25C146.15,-76.25 132.6,-76.25 119.9,-76.25"/>
<polygon fill="#63b8ff" stroke="#63b8ff" points="159.05,-79.75 169.05,-76.25 159.05,-72.75 159.05,-79.75"/>
</a>
</g>
</g>
<!-- Node5&#45;&gt;Node5 -->
<g id="edge6_Node000005_Node000005" class="edge">
<title>Node5&#45;&gt;Node5</title>
<g id="a_edge6_Node000005_Node000005"><a xlink:title=" ">
<path fill="none" stroke="#63b8ff" d="M253.71,-36.28C250.68,-40.15 242.61,-42.88 229.5,-42.88 205.53,-42.88 198.41,-33.77 208.15,-25.16"/>
<polygon fill="#63b8ff" stroke="#63b8ff" points="257.11,-35.44 251.23,-26.63 250.33,-37.19 257.11,-35.44"/>
</a>
</g>
</g>
<!-- Node6 -->
<g id="Node000006" class="node">
<title>Node6</title>
<g id="a_Node000006"><a xlink:href="classeglt_1_1_chunk_store_reader.html#aaa18bc2443d0fb0b3668a53e1b56a5ae" target="_top" xlink:title=" ">
<polygon fill="white" stroke="#666666" points="121,-30.5 0,-30.5 0,0 121,0 121,-30.5"/>
<text text-anchor="start" x="8" y="-17" font-family="Helvetica,sans-Serif" font-size="10.00">eglt::ChunkStoreReader</text>
<text text-anchor="middle" x="60.5" y="-5.75" font-family="Helvetica,sans-Serif" font-size="10.00">::Next</text>
</a>
</g>
</g>
<!-- Node5&#45;&gt;Node6 -->
<g id="edge5_Node000005_Node000006" class="edge">
<title>Node5&#45;&gt;Node6</title>
<g id="a_edge5_Node000005_Node000006"><a xlink:title=" ">
<path fill="none" stroke="#63b8ff" d="M145.34,-15.25C137.28,-15.25 129.21,-15.25 121.44,-15.25"/>
<polygon fill="#63b8ff" stroke="#63b8ff" points="145.19,-18.75 155.19,-15.25 145.19,-11.75 145.19,-18.75"/>
</a>
</g>
</g>
</g>
</svg>
