<?xml version="1.0" encoding="UTF-8" standalone="no"?>
<!DOCTYPE svg PUBLIC "-//W3C//DTD SVG 1.1//EN"
 "http://www.w3.org/Graphics/SVG/1.1/DTD/svg11.dtd">
<!-- Generated by graphviz version 12.2.1 (20241206.2353)
 -->
<!-- Title: GetGloballySavedEventLoop Pages: 1 -->
<svg width="499pt" height="94pt"
 viewBox="0.00 0.00 498.50 93.88" xmlns="http://www.w3.org/2000/svg" xmlns:xlink="http://www.w3.org/1999/xlink">
<g id="graph0" class="graph" transform="scale(1 1) rotate(0) translate(4 89.88)">
<title>GetGloballySavedEventLoop</title>
<!-- Node1 -->
<g id="Node000001" class="node">
<title>Node1</title>
<g id="a_Node000001"><a xlink:title="Returns the globally saved event loop.">
<polygon fill="#999999" stroke="#666666" points="490.5,-37.25 349.25,-37.25 349.25,-18 490.5,-18 490.5,-37.25"/>
<text text-anchor="middle" x="419.88" y="-23.75" font-family="Helvetica,sans-Serif" font-size="10.00">GetGloballySavedEventLoop</text>
</a>
</g>
</g>
<!-- Node2 -->
<g id="Node000002" class="node">
<title>Node2</title>
<g id="a_Node000002"><a xlink:href="namespaceeglt_1_1pybindings.html#a0cf0e6d7c8ff8c380649ee4598a76045" target="_top" xlink:title="Runs a coroutine in a threadsafe manner in the given event loop.">
<polygon fill="white" stroke="#666666" points="313.25,-56.25 182.5,-56.25 182.5,-37 313.25,-37 313.25,-56.25"/>
<text text-anchor="middle" x="247.88" y="-42.75" font-family="Helvetica,sans-Serif" font-size="10.00">RunThreadsafeIfCoroutine</text>
</a>
</g>
</g>
<!-- Node1&#45;&gt;Node2 -->
<g id="edge1_Node000001_Node000002" class="edge">
<title>Node1&#45;&gt;Node2</title>
<g id="a_edge1_Node000001_Node000002"><a xlink:title=" ">
<path fill="none" stroke="#63b8ff" d="M338.06,-36.66C329.81,-37.58 321.52,-38.51 313.48,-39.4"/>
<polygon fill="#63b8ff" stroke="#63b8ff" points="338.19,-40.17 347.73,-35.58 337.41,-33.21 338.19,-40.17"/>
</a>
</g>
</g>
<!-- Node5 -->
<g id="Node000005" class="node">
<title>Node5</title>
<g id="a_Node000005"><a xlink:href="namespaceeglt_1_1pybindings.html#a1e774758adfcd0aacdef0e757f02c42b" target="_top" xlink:title="Saves the given event loop as a global variable further available to GetGloballySavedEventLoop().">
<polygon fill="white" stroke="#666666" points="308,-19.25 187.75,-19.25 187.75,0 308,0 308,-19.25"/>
<text text-anchor="middle" x="247.88" y="-5.75" font-family="Helvetica,sans-Serif" font-size="10.00">SaveEventLoopGlobally</text>
</a>
</g>
</g>
<!-- Node1&#45;&gt;Node5 -->
<g id="edge4_Node000001_Node000005" class="edge">
<title>Node1&#45;&gt;Node5</title>
<g id="a_edge4_Node000001_Node000005"><a xlink:title=" ">
<path fill="none" stroke="#63b8ff" d="M338.01,-19.06C328.02,-18 317.95,-16.94 308.35,-15.92"/>
<polygon fill="#63b8ff" stroke="#63b8ff" points="337.42,-22.52 347.73,-20.09 338.16,-15.56 337.42,-22.52"/>
</a>
</g>
</g>
<!-- Node3 -->
<g id="Node000003" class="node">
<title>Node3</title>
<g id="a_Node000003"><a xlink:href="classeglt_1_1pybindings_1_1_py_evergreen_stream.html#a614306a5214ae044d261e4c322fed49c" target="_top" xlink:title="Receives an Evergreen session message from the stream.">
<polygon fill="white" stroke="#666666" points="146.5,-85.88 0,-85.88 0,-55.38 146.5,-55.38 146.5,-85.88"/>
<text text-anchor="start" x="8" y="-72.38" font-family="Helvetica,sans-Serif" font-size="10.00">eglt::pybindings::PyEvergreen</text>
<text text-anchor="middle" x="73.25" y="-61.12" font-family="Helvetica,sans-Serif" font-size="10.00">Stream::Receive</text>
</a>
</g>
</g>
<!-- Node2&#45;&gt;Node3 -->
<g id="edge2_Node000002_Node000003" class="edge">
<title>Node2&#45;&gt;Node3</title>
<g id="a_edge2_Node000002_Node000003"><a xlink:title=" ">
<path fill="none" stroke="#63b8ff" d="M170.93,-57.18C162.96,-58.29 154.86,-59.42 146.92,-60.52"/>
<polygon fill="#63b8ff" stroke="#63b8ff" points="171.18,-60.68 180.61,-55.84 170.22,-53.75 171.18,-60.68"/>
</a>
</g>
</g>
<!-- Node4 -->
<g id="Node000004" class="node">
<title>Node4</title>
<g id="a_Node000004"><a xlink:href="classeglt_1_1pybindings_1_1_py_evergreen_stream.html#ae9770c9b3dd950a326ddb9494c426c46" target="_top" xlink:title="Sends an Evergreen session message over the stream.">
<polygon fill="white" stroke="#666666" points="146.5,-36.88 0,-36.88 0,-6.37 146.5,-6.37 146.5,-36.88"/>
<text text-anchor="start" x="8" y="-23.38" font-family="Helvetica,sans-Serif" font-size="10.00">eglt::pybindings::PyEvergreen</text>
<text text-anchor="middle" x="73.25" y="-12.12" font-family="Helvetica,sans-Serif" font-size="10.00">Stream::Send</text>
</a>
</g>
</g>
<!-- Node2&#45;&gt;Node4 -->
<g id="edge3_Node000002_Node000004" class="edge">
<title>Node2&#45;&gt;Node4</title>
<g id="a_edge3_Node000002_Node000004"><a xlink:title=" ">
<path fill="none" stroke="#63b8ff" d="M170.93,-35.63C162.96,-34.47 154.86,-33.3 146.92,-32.15"/>
<polygon fill="#63b8ff" stroke="#63b8ff" points="170.21,-39.06 180.61,-37.03 171.21,-32.13 170.21,-39.06"/>
</a>
</g>
</g>
</g>
</svg>
