<?xml version="1.0" encoding="UTF-8" standalone="no"?>
<!DOCTYPE svg PUBLIC "-//W3C//DTD SVG 1.1//EN"
 "http://www.w3.org/Graphics/SVG/1.1/DTD/svg11.dtd">
<!-- Generated by graphviz version 12.2.1 (20241206.2353)
 -->
<!-- Title: MakeChunkStore Pages: 1 -->
<svg width="263pt" height="101pt"
 viewBox="0.00 0.00 262.75 101.25" xmlns="http://www.w3.org/2000/svg" xmlns:xlink="http://www.w3.org/1999/xlink">

<svg id="main" version="1.1" xmlns="http://www.w3.org/2000/svg" xmlns:xlink="http://www.w3.org/1999/xlink" xml:space="preserve">

<style type="text/css"><![CDATA[
.node, .edge {opacity: 0.7;}
.node.selected, .edge.selected {opacity: 1;}
.edge:hover path { stroke: red; }
.edge:hover polygon { stroke: red; fill: red; }
]]></style>
<script type="application/ecmascript" xlink:href="svg.min.js"/>
<svg id="graph" class="graph">
<g id="graph0" class="graph" transform="scale(1 1) rotate(0) translate(4 97.25)">
<title>MakeChunkStore</title>
<!-- Node1 -->
<g id="Node000001" class="node">
<title>Node1</title>
<g id="a_Node000001"><a xlink:title=" ">
<polygon fill="#999999" stroke="#666666" points="254.75,-56.25 163,-56.25 163,-37 254.75,-37 254.75,-56.25"/>
<text text-anchor="middle" x="208.88" y="-42.75" font-family="Helvetica,sans-Serif" font-size="10.00">MakeChunkStore</text>
</a>
</g>
</g>
<!-- Node1&#45;&gt;Node1 -->
<g id="edge3_Node000001_Node000001" class="edge">
<title>Node1&#45;&gt;Node1</title>
<g id="a_edge3_Node000001_Node000001"><a xlink:title=" ">
<path fill="none" stroke="#63b8ff" d="M234.94,-67.32C231.94,-71.37 223.25,-74.25 208.88,-74.25 183.32,-74.25 175.73,-65.15 186.12,-56.54"/>
<polygon fill="#63b8ff" stroke="#63b8ff" points="238.36,-66.52 232.08,-57.99 231.67,-68.57 238.36,-66.52"/>
</a>
</g>
</g>
<!-- Node2 -->
<g id="Node000002" class="node">
<title>Node2</title>
<g id="a_Node000002"><a xlink:href="classeglt_1_1_node_map.html#a74f14b94853d5f8f2caa7b54202e26dc" target="_top" xlink:title=" ">
<polygon fill="white" stroke="#666666" points="114.25,-93.25 12.75,-93.25 12.75,-74 114.25,-74 114.25,-93.25"/>
<text text-anchor="middle" x="63.5" y="-79.75" font-family="Helvetica,sans-Serif" font-size="10.00">eglt::NodeMap::Get</text>
</a>
</g>
</g>
<!-- Node1&#45;&gt;Node2 -->
<g id="edge1_Node000001_Node000002" class="edge">
<title>Node1&#45;&gt;Node2</title>
<g id="a_edge1_Node000001_Node000002"><a xlink:title=" ">
<path fill="none" stroke="#63b8ff" d="M157.67,-59.58C139.95,-64.15 120.3,-69.23 103.63,-73.53"/>
<polygon fill="#63b8ff" stroke="#63b8ff" points="158.42,-63 167.23,-57.11 156.67,-56.22 158.42,-63"/>
</a>
</g>
</g>
<!-- Node3 -->
<g id="Node000003" class="node">
<title>Node3</title>
<g id="a_Node000003"><a xlink:href="classeglt_1_1_node_map.html#ad7abf2284bbfee75fdd02edbb6f12b9b" target="_top" xlink:title=" ">
<polygon fill="white" stroke="#666666" points="114.25,-56.25 12.75,-56.25 12.75,-37 114.25,-37 114.25,-56.25"/>
<text text-anchor="middle" x="63.5" y="-42.75" font-family="Helvetica,sans-Serif" font-size="10.00">eglt::NodeMap::Get</text>
</a>
</g>
</g>
<!-- Node1&#45;&gt;Node3 -->
<g id="edge2_Node000001_Node000003" class="edge">
<title>Node1&#45;&gt;Node3</title>
<g id="a_edge2_Node000001_Node000003"><a xlink:title=" ">
<path fill="none" stroke="#63b8ff" d="M151.15,-46.62C139.05,-46.62 126.37,-46.62 114.54,-46.62"/>
<polygon fill="#63b8ff" stroke="#63b8ff" points="151,-50.13 161,-46.63 151,-43.13 151,-50.13"/>
</a>
</g>
</g>
<!-- Node4 -->
<g id="Node000004" class="node">
<title>Node4</title>
<g id="a_Node000004"><a xlink:href="classeglt_1_1_node_map.html#ae307cee43e6e72328bc75ac22a6bb59c" target="_top" xlink:title=" ">
<polygon fill="white" stroke="#666666" points="127,-19.25 0,-19.25 0,0 127,0 127,-19.25"/>
<text text-anchor="middle" x="63.5" y="-5.75" font-family="Helvetica,sans-Serif" font-size="10.00">eglt::NodeMap::operator[]</text>
</a>
</g>
</g>
<!-- Node1&#45;&gt;Node4 -->
<g id="edge4_Node000001_Node000004" class="edge">
<title>Node1&#45;&gt;Node4</title>
<g id="a_edge4_Node000001_Node000004"><a xlink:title=" ">
<path fill="none" stroke="#63b8ff" d="M157.67,-33.67C139.95,-29.1 120.3,-24.02 103.63,-19.72"/>
<polygon fill="#63b8ff" stroke="#63b8ff" points="156.67,-37.03 167.23,-36.14 158.42,-30.25 156.67,-37.03"/>
</a>
</g>
</g>
</g>
</svg>
</svg>

<style type='text/css'>
<![CDATA[
[data-mouse-over-selected='false'] { opacity: 0.7; }
[data-mouse-over-selected='true']  { opacity: 1.0; }
]]>
</style>
<script type="application/ecmascript"><![CDATA[
document.addEventListener('DOMContentLoaded', (event) => {
  highlightEdges();
  highlightAdjacentNodes();
});
]]></script>
</svg>
