<?xml version="1.0" encoding="UTF-8" standalone="no"?>
<!DOCTYPE svg PUBLIC "-//W3C//DTD SVG 1.1//EN"
 "http://www.w3.org/Graphics/SVG/1.1/DTD/svg11.dtd">
<!-- Generated by graphviz version 12.2.1 (20241206.2353)
 -->
<!-- Title: OnCancel Pages: 1 -->
<svg width="349pt" height="88pt"
 viewBox="0.00 0.00 349.25 87.50" xmlns="http://www.w3.org/2000/svg" xmlns:xlink="http://www.w3.org/1999/xlink">
<g id="graph0" class="graph" transform="scale(1 1) rotate(0) translate(4 83.5)">
<title>OnCancel</title>
<!-- Node1 -->
<g id="Node000001" class="node">
<title>Node1</title>
<g id="a_Node000001"><a xlink:title=" ">
<polygon fill="#999999" stroke="#666666" points="341.25,-48.88 281.75,-48.88 281.75,-29.62 341.25,-29.62 341.25,-48.88"/>
<text text-anchor="middle" x="311.5" y="-35.38" font-family="Helvetica,sans-Serif" font-size="10.00">OnCancel</text>
</a>
</g>
</g>
<!-- Node2 -->
<g id="Node000002" class="node">
<title>Node2</title>
<g id="a_Node000002"><a xlink:href="namespaceeglt_1_1concurrency.html#a172b6da7e04d2db1133206130594ee9e" target="_top" xlink:title="Gets the current fiber&#39;s cancellation case.">
<polygon fill="white" stroke="#666666" points="245.75,-54.5 148.75,-54.5 148.75,-24 245.75,-24 245.75,-54.5"/>
<text text-anchor="start" x="156.75" y="-41" font-family="Helvetica,sans-Serif" font-size="10.00">eglt::concurrency::</text>
<text text-anchor="middle" x="197.25" y="-29.75" font-family="Helvetica,sans-Serif" font-size="10.00">OnCancel</text>
</a>
</g>
</g>
<!-- Node1&#45;&gt;Node2 -->
<g id="edge1_Node000001_Node000002" class="edge">
<title>Node1&#45;&gt;Node2</title>
<g id="a_edge1_Node000001_Node000002"><a xlink:title=" ">
<path fill="none" stroke="#63b8ff" d="M269.93,-39.25C262.16,-39.25 253.97,-39.25 246,-39.25"/>
<polygon fill="#63b8ff" stroke="#63b8ff" points="269.79,-42.75 279.79,-39.25 269.79,-35.75 269.79,-42.75"/>
</a>
</g>
</g>
<!-- Node3 -->
<g id="Node000003" class="node">
<title>Node3</title>
<g id="a_Node000003"><a xlink:href="classeglt_1_1_local_chunk_store.html#a6016beca22856b29c54245b31477794f" target="_top" xlink:title=" ">
<polygon fill="white" stroke="#666666" points="112.75,-79.5 0,-79.5 0,-49 112.75,-49 112.75,-79.5"/>
<text text-anchor="start" x="8" y="-66" font-family="Helvetica,sans-Serif" font-size="10.00">eglt::LocalChunkStore</text>
<text text-anchor="middle" x="56.38" y="-54.75" font-family="Helvetica,sans-Serif" font-size="10.00">::WaitForArrivalOffset</text>
</a>
</g>
</g>
<!-- Node2&#45;&gt;Node3 -->
<g id="edge2_Node000002_Node000003" class="edge">
<title>Node2&#45;&gt;Node3</title>
<g id="a_edge2_Node000002_Node000003"><a xlink:title=" ">
<path fill="none" stroke="#63b8ff" d="M137.23,-49.88C129.16,-51.33 120.9,-52.81 112.9,-54.25"/>
<polygon fill="#63b8ff" stroke="#63b8ff" points="137.75,-53.34 146.97,-48.12 136.51,-46.45 137.75,-53.34"/>
</a>
</g>
</g>
<!-- Node4 -->
<g id="Node000004" class="node">
<title>Node4</title>
<g id="a_Node000004"><a xlink:href="classeglt_1_1_local_chunk_store.html#aa8b6b2e66ec7a2e7074c0d08a6e22782" target="_top" xlink:title=" ">
<polygon fill="white" stroke="#666666" points="112.75,-30.5 0,-30.5 0,0 112.75,0 112.75,-30.5"/>
<text text-anchor="start" x="8" y="-17" font-family="Helvetica,sans-Serif" font-size="10.00">eglt::LocalChunkStore</text>
<text text-anchor="middle" x="56.38" y="-5.75" font-family="Helvetica,sans-Serif" font-size="10.00">::WaitForSeqId</text>
</a>
</g>
</g>
<!-- Node2&#45;&gt;Node4 -->
<g id="edge3_Node000002_Node000004" class="edge">
<title>Node2&#45;&gt;Node4</title>
<g id="a_edge3_Node000002_Node000004"><a xlink:title=" ">
<path fill="none" stroke="#63b8ff" d="M137.23,-29.05C129.16,-27.66 120.9,-26.23 112.9,-24.85"/>
<polygon fill="#63b8ff" stroke="#63b8ff" points="136.52,-32.48 146.97,-30.73 137.71,-25.58 136.52,-32.48"/>
</a>
</g>
</g>
</g>
</svg>
