<?xml version="1.0" encoding="UTF-8" standalone="no"?>
<!DOCTYPE svg PUBLIC "-//W3C//DTD SVG 1.1//EN"
 "http://www.w3.org/Graphics/SVG/1.1/DTD/svg11.dtd">
<!-- Generated by graphviz version 12.2.1 (20241206.2353)
 -->
<!-- Title: RunThreadsafeIfCoroutine Pages: 1 -->
<svg width="321pt" height="88pt"
 viewBox="0.00 0.00 321.25 87.50" xmlns="http://www.w3.org/2000/svg" xmlns:xlink="http://www.w3.org/1999/xlink">
<g id="graph0" class="graph" transform="scale(1 1) rotate(0) translate(4 83.5)">
<title>RunThreadsafeIfCoroutine</title>
<!-- Node1 -->
<g id="Node000001" class="node">
<title>Node1</title>
<g id="a_Node000001"><a xlink:title="Runs a coroutine in a threadsafe manner in the given event loop.">
<polygon fill="#999999" stroke="#666666" points="313.25,-48.88 182.5,-48.88 182.5,-29.62 313.25,-29.62 313.25,-48.88"/>
<text text-anchor="middle" x="247.88" y="-35.38" font-family="Helvetica,sans-Serif" font-size="10.00">RunThreadsafeIfCoroutine</text>
</a>
</g>
</g>
<!-- Node2 -->
<g id="Node000002" class="node">
<title>Node2</title>
<g id="a_Node000002"><a xlink:href="classeglt_1_1pybindings_1_1_py_evergreen_stream.html#a614306a5214ae044d261e4c322fed49c" target="_top" xlink:title="Receives an Evergreen session message from the stream.">
<polygon fill="white" stroke="#666666" points="146.5,-79.5 0,-79.5 0,-49 146.5,-49 146.5,-79.5"/>
<text text-anchor="start" x="8" y="-66" font-family="Helvetica,sans-Serif" font-size="10.00">eglt::pybindings::PyEvergreen</text>
<text text-anchor="middle" x="73.25" y="-54.75" font-family="Helvetica,sans-Serif" font-size="10.00">Stream::Receive</text>
</a>
</g>
</g>
<!-- Node1&#45;&gt;Node2 -->
<g id="edge1_Node000001_Node000002" class="edge">
<title>Node1&#45;&gt;Node2</title>
<g id="a_edge1_Node000001_Node000002"><a xlink:title=" ">
<path fill="none" stroke="#63b8ff" d="M170.93,-50.25C162.96,-51.4 154.86,-52.58 146.92,-53.73"/>
<polygon fill="#63b8ff" stroke="#63b8ff" points="171.21,-53.74 180.61,-48.85 170.21,-46.82 171.21,-53.74"/>
</a>
</g>
</g>
<!-- Node3 -->
<g id="Node000003" class="node">
<title>Node3</title>
<g id="a_Node000003"><a xlink:href="classeglt_1_1pybindings_1_1_py_evergreen_stream.html#ae9770c9b3dd950a326ddb9494c426c46" target="_top" xlink:title="Sends an Evergreen session message over the stream.">
<polygon fill="white" stroke="#666666" points="146.5,-30.5 0,-30.5 0,0 146.5,0 146.5,-30.5"/>
<text text-anchor="start" x="8" y="-17" font-family="Helvetica,sans-Serif" font-size="10.00">eglt::pybindings::PyEvergreen</text>
<text text-anchor="middle" x="73.25" y="-5.75" font-family="Helvetica,sans-Serif" font-size="10.00">Stream::Send</text>
</a>
</g>
</g>
<!-- Node1&#45;&gt;Node3 -->
<g id="edge2_Node000001_Node000003" class="edge">
<title>Node1&#45;&gt;Node3</title>
<g id="a_edge2_Node000001_Node000003"><a xlink:title=" ">
<path fill="none" stroke="#63b8ff" d="M170.93,-28.69C162.96,-27.58 154.86,-26.46 146.92,-25.35"/>
<polygon fill="#63b8ff" stroke="#63b8ff" points="170.22,-32.13 180.61,-30.04 171.18,-25.19 170.22,-32.13"/>
</a>
</g>
</g>
</g>
</svg>
