<?xml version="1.0" encoding="UTF-8" standalone="no"?>
<!DOCTYPE svg PUBLIC "-//W3C//DTD SVG 1.1//EN"
 "http://www.w3.org/Graphics/SVG/1.1/DTD/svg11.dtd">
<!-- Generated by graphviz version 12.2.1 (20241206.2353)
 -->
<!-- Title: NewTree Pages: 1 -->
<!--zoomable 137 -->

<svg id="main" version="1.1" xmlns="http://www.w3.org/2000/svg" xmlns:xlink="http://www.w3.org/1999/xlink" xml:space="preserve" onload="init(evt)">

<style type="text/css"><![CDATA[
.node, .edge {opacity: 0.7;}
.node.selected, .edge.selected {opacity: 1;}
.edge:hover path { stroke: red; }
.edge:hover polygon { stroke: red; fill: red; }
]]></style>

<defs>
  <circle id="rim" cx="0" cy="0" r="7"/>
  <circle id="rim2" cx="0" cy="0" r="3.5"/>
  <g id="zoomPlus">
    <use xlink:href="#rim" fill="#404040"><set attributeName="fill" to="#808080" begin="zoomplus.mouseover" end="zoomplus.mouseout"/></use>
    <path d="M-4,0h8M0,-4v8" fill="none" stroke="white" stroke-width="1.5" pointer-events="none"/>
  </g>
  <g id="zoomMin">
    <use xlink:href="#rim" fill="#404040"><set attributeName="fill" to="#808080" begin="zoomminus.mouseover" end="zoomminus.mouseout"/></use>
    <path d="M-4,0h8" fill="none" stroke="white" stroke-width="1.5" pointer-events="none"/>
  </g>
  <g id="arrowUp" transform="translate(30 24)">
    <use xlink:href="#rim"/>
    <path pointer-events="none" fill="none" stroke="white" stroke-width="1.5" d="M0,-3.0v7 M-2.5,-0.5L0,-3.0L2.5,-0.5"/>
  </g>
  <g id="arrowRight" transform="rotate(90) translate(36 -43)">
    <use xlink:href="#rim"/>
    <path pointer-events="none" fill="none" stroke="white" stroke-width="1.5" d="M0,-3.0v7 M-2.5,-0.5L0,-3.0L2.5,-0.5"/>
  </g>
  <g id="arrowDown" transform="rotate(180) translate(-30 -48)">
    <use xlink:href="#rim"/>
    <path pointer-events="none" fill="none" stroke="white" stroke-width="1.5" d="M0,-3.0v7 M-2.5,-0.5L0,-3.0L2.5,-0.5"/>
  </g>
  <g id="arrowLeft" transform="rotate(270) translate(-36 17)">
    <use xlink:href="#rim"/>
    <path pointer-events="none" fill="none" stroke="white" stroke-width="1.5" d="M0,-3.0v7 M-2.5,-0.5L0,-3.0L2.5,-0.5"/>
  </g>
  <g id="resetDef">
    <use xlink:href="#rim2" fill="#404040"><set attributeName="fill" to="#808080" begin="reset.mouseover" end="reset.mouseout"/></use>
  </g>
</defs>
<script type="application/ecmascript">
var viewWidth = 535;
var viewHeight = 137;
var sectionId = 'dynsection-4';
</script>
<script type="application/ecmascript" xlink:href="svg.min.js"/>
<svg id="graph" class="graph">
<g id="viewport">
<title>NewTree</title>
<!-- Node1 -->
<g id="Node000001" class="node">
<title>Node1</title>
<g id="a_Node000001"><a xlink:title=" ">
<polygon fill="#999999" stroke="#666666" points="526.75,-85.88 471,-85.88 471,-66.62 526.75,-66.62 526.75,-85.88"/>
<text text-anchor="middle" x="498.88" y="-72.38" font-family="Helvetica,sans-Serif" font-size="10.00">NewTree</text>
</a>
</g>
</g>
<!-- Node2 -->
<g id="Node000002" class="node">
<title>Node2</title>
<g id="a_Node000002"><a xlink:href="namespaceeglt_1_1concurrency.html#a067e4d00cd95f30c0dc114fbdbedf10a" target="_top" xlink:title=" ">
<polygon fill="white" stroke="#666666" points="435,-91.5 338,-91.5 338,-61 435,-61 435,-91.5"/>
<text text-anchor="start" x="346" y="-78" font-family="Helvetica,sans-Serif" font-size="10.00">eglt::concurrency::</text>
<text text-anchor="middle" x="386.5" y="-66.75" font-family="Helvetica,sans-Serif" font-size="10.00">NewTree</text>
</a>
</g>
</g>
<!-- Node1&#45;&gt;Node2 -->
<g id="edge1_Node000001_Node000002" class="edge">
<title>Node1&#45;&gt;Node2</title>
<g id="a_edge1_Node000001_Node000002"><a xlink:title=" ">
<path fill="none" stroke="#63b8ff" d="M459.23,-76.25C451.44,-76.25 443.16,-76.25 435.1,-76.25"/>
<polygon fill="#63b8ff" stroke="#63b8ff" points="459.08,-79.75 469.08,-76.25 459.08,-72.75 459.08,-79.75"/>
</a>
</g>
</g>
<!-- Node3 -->
<g id="Node000003" class="node">
<title>Node3</title>
<g id="a_Node000003"><a xlink:href="classeglt_1_1_session.html#a9d124daa5a683635acb09dc3d25beac1" target="_top" xlink:title=" ">
<polygon fill="white" stroke="#666666" points="299.75,-128.88 159.25,-128.88 159.25,-109.62 299.75,-109.62 299.75,-128.88"/>
<text text-anchor="middle" x="229.5" y="-115.38" font-family="Helvetica,sans-Serif" font-size="10.00">eglt::Session::DispatchFrom</text>
</a>
</g>
</g>
<!-- Node2&#45;&gt;Node3 -->
<g id="edge2_Node000002_Node000003" class="edge">
<title>Node2&#45;&gt;Node3</title>
<g id="a_edge2_Node000002_Node000003"><a xlink:title=" ">
<path fill="none" stroke="#63b8ff" d="M326.98,-93.23C318.6,-95.62 310.09,-98.01 302,-100.25 291.35,-103.19 279.79,-106.3 269.13,-109.14"/>
<polygon fill="#63b8ff" stroke="#63b8ff" points="327.75,-96.65 336.4,-90.54 325.83,-89.92 327.75,-96.65"/>
</a>
</g>
</g>
<!-- Node4 -->
<g id="Node000004" class="node">
<title>Node4</title>
<g id="a_Node000004"><a xlink:href="classeglt_1_1_service.html#a2f080d2a2960977a7463531eb649cc53" target="_top" xlink:title=" ">
<polygon fill="white" stroke="#666666" points="288.12,-91.5 170.88,-91.5 170.88,-61 288.12,-61 288.12,-91.5"/>
<text text-anchor="start" x="178.88" y="-78" font-family="Helvetica,sans-Serif" font-size="10.00">eglt::Service::Establish</text>
<text text-anchor="middle" x="229.5" y="-66.75" font-family="Helvetica,sans-Serif" font-size="10.00">Connection</text>
</a>
</g>
</g>
<!-- Node2&#45;&gt;Node4 -->
<g id="edge3_Node000002_Node000004" class="edge">
<title>Node2&#45;&gt;Node4</title>
<g id="a_edge3_Node000002_Node000004"><a xlink:title=" ">
<path fill="none" stroke="#63b8ff" d="M326.51,-76.25C314.05,-76.25 300.91,-76.25 288.48,-76.25"/>
<polygon fill="#63b8ff" stroke="#63b8ff" points="326.22,-79.75 336.22,-76.25 326.22,-72.75 326.22,-79.75"/>
</a>
</g>
</g>
<!-- Node6 -->
<g id="Node000006" class="node">
<title>Node6</title>
<g id="a_Node000006"><a xlink:href="classeglt_1_1_chunk_store_reader.html#a487bb77aa51db57e589a7b3df272ab74" target="_top" xlink:title=" ">
<polygon fill="white" stroke="#666666" points="302,-24.88 157,-24.88 157,-5.63 302,-5.63 302,-24.88"/>
<text text-anchor="middle" x="229.5" y="-11.38" font-family="Helvetica,sans-Serif" font-size="10.00">eglt::ChunkStoreReader::Run</text>
</a>
</g>
</g>
<!-- Node2&#45;&gt;Node6 -->
<g id="edge5_Node000002_Node000006" class="edge">
<title>Node2&#45;&gt;Node6</title>
<g id="a_edge5_Node000002_Node000006"><a xlink:title=" ">
<path fill="none" stroke="#63b8ff" d="M335.01,-56.38C308.67,-46.01 277.57,-33.77 256.18,-25.36"/>
<polygon fill="#63b8ff" stroke="#63b8ff" points="333.59,-59.58 344.18,-59.99 336.15,-53.07 333.59,-59.58"/>
</a>
</g>
</g>
<!-- Node5 -->
<g id="Node000005" class="node">
<title>Node5</title>
<g id="a_Node000005"><a xlink:href="classeglt_1_1_service.html#a4dfff76ceb56a099b1a54da73e0c57d4" target="_top" xlink:title=" ">
<polygon fill="white" stroke="#666666" points="119.5,-85.88 1.5,-85.88 1.5,-66.62 119.5,-66.62 119.5,-85.88"/>
<text text-anchor="middle" x="60.5" y="-72.38" font-family="Helvetica,sans-Serif" font-size="10.00">eglt::Service::operator=</text>
</a>
</g>
</g>
<!-- Node4&#45;&gt;Node5 -->
<g id="edge4_Node000004_Node000005" class="edge">
<title>Node4&#45;&gt;Node5</title>
<g id="a_edge4_Node000004_Node000005"><a xlink:title=" ">
<path fill="none" stroke="#63b8ff" d="M159.23,-76.25C146.15,-76.25 132.6,-76.25 119.9,-76.25"/>
<polygon fill="#63b8ff" stroke="#63b8ff" points="159.05,-79.75 169.05,-76.25 159.05,-72.75 159.05,-79.75"/>
</a>
</g>
</g>
<!-- Node6&#45;&gt;Node6 -->
<g id="edge7_Node000006_Node000006" class="edge">
<title>Node6&#45;&gt;Node6</title>
<g id="a_edge7_Node000006_Node000006"><a xlink:title=" ">
<path fill="none" stroke="#63b8ff" d="M257.65,-35.94C254.41,-39.99 245.02,-42.88 229.5,-42.88 201.9,-42.88 193.71,-33.77 204.92,-25.16"/>
<polygon fill="#63b8ff" stroke="#63b8ff" points="261.02,-34.99 254.56,-26.6 254.38,-37.19 261.02,-34.99"/>
</a>
</g>
</g>
<!-- Node7 -->
<g id="Node000007" class="node">
<title>Node7</title>
<g id="a_Node000007"><a xlink:href="classeglt_1_1_chunk_store_reader.html#aaa18bc2443d0fb0b3668a53e1b56a5ae" target="_top" xlink:title=" ">
<polygon fill="white" stroke="#666666" points="121,-30.5 0,-30.5 0,0 121,0 121,-30.5"/>
<text text-anchor="start" x="8" y="-17" font-family="Helvetica,sans-Serif" font-size="10.00">eglt::ChunkStoreReader</text>
<text text-anchor="middle" x="60.5" y="-5.75" font-family="Helvetica,sans-Serif" font-size="10.00">::Next</text>
</a>
</g>
</g>
<!-- Node6&#45;&gt;Node7 -->
<g id="edge6_Node000006_Node000007" class="edge">
<title>Node6&#45;&gt;Node7</title>
<g id="a_edge6_Node000006_Node000007"><a xlink:title=" ">
<path fill="none" stroke="#63b8ff" d="M145.34,-15.25C137.28,-15.25 129.21,-15.25 121.44,-15.25"/>
<polygon fill="#63b8ff" stroke="#63b8ff" points="145.19,-18.75 155.19,-15.25 145.19,-11.75 145.19,-18.75"/>
</a>
</g>
</g>
</g>
</svg>

<g id="navigator" transform="translate(0 0)" fill="#404254">
  <rect fill="#f2f5e9" fill-opacity="0.5" stroke="#606060" stroke-width=".5" x="0" y="0" width="60" height="60"/>
  <use id="zoomplus" xlink:href="#zoomPlus" x="17" y="9" onmousedown="handleZoom(evt,'in')"/>
  <use id="zoomminus" xlink:href="#zoomMin" x="42" y="9" onmousedown="handleZoom(evt,'out')"/>
  <use id="reset" xlink:href="#resetDef" x="30" y="36" onmousedown="handleReset()"/>
   <use id="arrowup" xlink:href="#arrowUp" x="0" y="0" onmousedown="handlePan(0,-1)"/>
  <use id="arrowright" xlink:href="#arrowRight" x="0" y="0" onmousedown="handlePan(1,0)"/>
  <use id="arrowdown" xlink:href="#arrowDown" x="0" y="0" onmousedown="handlePan(0,1)"/>
  <use id="arrowleft" xlink:href="#arrowLeft" x="0" y="0" onmousedown="handlePan(-1,0)"/>
</g>
<svg viewBox="0 0 15 15" width="100%" height="30px" preserveAspectRatio="xMaxYMin meet">
 <g id="arrow_out" transform="scale(0.3 0.3)">
  <a xlink:href="namespaceeglt_1_1concurrency_1_1impl_a01f9bd53ed4228bd1d16d93c7715da9b_icgraph_org.svg" target="_base">
   <rect id="button" ry="5" rx="5" y="6" x="6" height="38" width="38"
        fill="#f2f5e9" fill-opacity="0.5" stroke="#606060" stroke-width="1.0"/>
   <path id="arrow"
     d="M 11.500037,31.436501 C 11.940474,20.09759 22.043105,11.32322 32.158766,21.979434 L 37.068811,17.246167 C 37.068811,17.246167 37.088388,32 37.088388,32 L 22.160133,31.978069 C 22.160133,31.978069 26.997745,27.140456 26.997745,27.140456 C 18.528582,18.264221 13.291696,25.230495 11.500037,31.436501 z"
     style="fill:#404040;"/>
  </a>
 </g>
</svg>

<style type='text/css'>
<![CDATA[
[data-mouse-over-selected='false'] { opacity: 0.7; }
[data-mouse-over-selected='true']  { opacity: 1.0; }
]]>
</style>
<script type="application/ecmascript"><![CDATA[
document.addEventListener('DOMContentLoaded', (event) => {
  highlightEdges();
  highlightAdjacentNodes();
});
]]></script>
</svg>
