<?xml version="1.0" encoding="UTF-8" standalone="no"?>
<!DOCTYPE svg PUBLIC "-//W3C//DTD SVG 1.1//EN"
 "http://www.w3.org/Graphics/SVG/1.1/DTD/svg11.dtd">
<!-- Generated by graphviz version 12.2.1 (20241206.2353)
 -->
<!-- Title: SelectUntil Pages: 1 -->
<svg width="362pt" height="186pt"
 viewBox="0.00 0.00 362.00 185.50" xmlns="http://www.w3.org/2000/svg" xmlns:xlink="http://www.w3.org/1999/xlink">

<svg id="main" version="1.1" xmlns="http://www.w3.org/2000/svg" xmlns:xlink="http://www.w3.org/1999/xlink" xml:space="preserve">

<style type="text/css"><![CDATA[
.node, .edge {opacity: 0.7;}
.node.selected, .edge.selected {opacity: 1;}
.edge:hover path { stroke: red; }
.edge:hover polygon { stroke: red; fill: red; }
]]></style>
<script type="application/ecmascript" xlink:href="svg.min.js"/>
<svg id="graph" class="graph">
<g id="graph0" class="graph" transform="scale(1 1) rotate(0) translate(4 181.5)">
<title>SelectUntil</title>
<!-- Node1 -->
<g id="Node000001" class="node">
<title>Node1</title>
<g id="a_Node000001"><a xlink:title=" ">
<polygon fill="#999999" stroke="#666666" points="354,-118.88 290,-118.88 290,-99.62 354,-99.62 354,-118.88"/>
<text text-anchor="middle" x="322" y="-105.38" font-family="Helvetica,sans-Serif" font-size="10.00">SelectUntil</text>
</a>
</g>
</g>
<!-- Node2 -->
<g id="Node000002" class="node">
<title>Node2</title>
<g id="a_Node000002"><a xlink:href="namespaceeglt_1_1concurrency_1_1impl.html#a4aad6b0fb87adc2f41f048458a6ffab2" target="_top" xlink:title=" ">
<polygon fill="white" stroke="#666666" points="227.38,-155.88 183.62,-155.88 183.62,-136.62 227.38,-136.62 227.38,-155.88"/>
<text text-anchor="middle" x="205.5" y="-142.38" font-family="Helvetica,sans-Serif" font-size="10.00">Select</text>
</a>
</g>
</g>
<!-- Node1&#45;&gt;Node2 -->
<g id="edge1_Node000001_Node000002" class="edge">
<title>Node1&#45;&gt;Node2</title>
<g id="a_edge1_Node000001_Node000002"><a xlink:title=" ">
<path fill="none" stroke="#63b8ff" d="M279.14,-122.78C261.63,-128.44 242.04,-134.77 227.62,-139.43"/>
<polygon fill="#63b8ff" stroke="#63b8ff" points="279.83,-126.23 288.27,-119.83 277.68,-119.57 279.83,-126.23"/>
</a>
</g>
</g>
<!-- Node4 -->
<g id="Node000004" class="node">
<title>Node4</title>
<g id="a_Node000004"><a xlink:href="namespaceeglt_1_1concurrency.html#aa5de78b4be4257d25503525e169c8977" target="_top" xlink:title=" ">
<polygon fill="white" stroke="#666666" points="254,-103.5 157,-103.5 157,-73 254,-73 254,-103.5"/>
<text text-anchor="start" x="165" y="-90" font-family="Helvetica,sans-Serif" font-size="10.00">eglt::concurrency::</text>
<text text-anchor="middle" x="205.5" y="-78.75" font-family="Helvetica,sans-Serif" font-size="10.00">SelectUntil</text>
</a>
</g>
</g>
<!-- Node1&#45;&gt;Node4 -->
<g id="edge3_Node000001_Node000004" class="edge">
<title>Node1&#45;&gt;Node4</title>
<g id="a_edge3_Node000001_Node000004"><a xlink:title=" ">
<path fill="none" stroke="#63b8ff" d="M278.45,-101.45C270.51,-99.99 262.16,-98.46 254.08,-96.98"/>
<polygon fill="#63b8ff" stroke="#63b8ff" points="277.76,-104.88 288.22,-103.24 279.02,-97.99 277.76,-104.88"/>
</a>
</g>
</g>
<!-- Node3 -->
<g id="Node000003" class="node">
<title>Node3</title>
<g id="a_Node000003"><a xlink:href="namespaceeglt_1_1concurrency.html#a4aad6b0fb87adc2f41f048458a6ffab2" target="_top" xlink:title=" ">
<polygon fill="white" stroke="#666666" points="109,-177.5 12,-177.5 12,-147 109,-147 109,-177.5"/>
<text text-anchor="start" x="20" y="-164" font-family="Helvetica,sans-Serif" font-size="10.00">eglt::concurrency::</text>
<text text-anchor="middle" x="60.5" y="-152.75" font-family="Helvetica,sans-Serif" font-size="10.00">Select</text>
</a>
</g>
</g>
<!-- Node2&#45;&gt;Node3 -->
<g id="edge2_Node000002_Node000003" class="edge">
<title>Node2&#45;&gt;Node3</title>
<g id="a_edge2_Node000002_Node000003"><a xlink:title=" ">
<path fill="none" stroke="#63b8ff" d="M172.04,-149.88C153.51,-151.96 129.94,-154.59 109.33,-156.9"/>
<polygon fill="#63b8ff" stroke="#63b8ff" points="172.35,-153.37 181.9,-148.78 171.57,-146.41 172.35,-153.37"/>
</a>
</g>
</g>
<!-- Node5 -->
<g id="Node000005" class="node">
<title>Node5</title>
<g id="a_Node000005"><a xlink:href="classeglt_1_1_chunk_store_reader.html#aaa18bc2443d0fb0b3668a53e1b56a5ae" target="_top" xlink:title=" ">
<polygon fill="white" stroke="#666666" points="121,-128.5 0,-128.5 0,-98 121,-98 121,-128.5"/>
<text text-anchor="start" x="8" y="-115" font-family="Helvetica,sans-Serif" font-size="10.00">eglt::ChunkStoreReader</text>
<text text-anchor="middle" x="60.5" y="-103.75" font-family="Helvetica,sans-Serif" font-size="10.00">::Next</text>
</a>
</g>
</g>
<!-- Node4&#45;&gt;Node5 -->
<g id="edge4_Node000004_Node000005" class="edge">
<title>Node4&#45;&gt;Node5</title>
<g id="a_edge4_Node000004_Node000005"><a xlink:title=" ">
<path fill="none" stroke="#63b8ff" d="M145.72,-98.53C137.68,-99.93 129.43,-101.37 121.37,-102.78"/>
<polygon fill="#63b8ff" stroke="#63b8ff" points="146.14,-102.01 155.39,-96.84 144.94,-95.11 146.14,-102.01"/>
</a>
</g>
</g>
<!-- Node6 -->
<g id="Node000006" class="node">
<title>Node6</title>
<g id="a_Node000006"><a xlink:href="classeglt_1_1_local_chunk_store.html#a6016beca22856b29c54245b31477794f" target="_top" xlink:title=" ">
<polygon fill="white" stroke="#666666" points="116.88,-79.5 4.12,-79.5 4.12,-49 116.88,-49 116.88,-79.5"/>
<text text-anchor="start" x="12.12" y="-66" font-family="Helvetica,sans-Serif" font-size="10.00">eglt::LocalChunkStore</text>
<text text-anchor="middle" x="60.5" y="-54.75" font-family="Helvetica,sans-Serif" font-size="10.00">::WaitForArrivalOffset</text>
</a>
</g>
</g>
<!-- Node4&#45;&gt;Node6 -->
<g id="edge5_Node000004_Node000006" class="edge">
<title>Node4&#45;&gt;Node6</title>
<g id="a_edge5_Node000004_Node000006"><a xlink:title=" ">
<path fill="none" stroke="#63b8ff" d="M145.65,-78.37C136.29,-76.8 126.62,-75.18 117.33,-73.62"/>
<polygon fill="#63b8ff" stroke="#63b8ff" points="144.95,-81.8 155.39,-80.01 146.11,-74.9 144.95,-81.8"/>
</a>
</g>
</g>
<!-- Node7 -->
<g id="Node000007" class="node">
<title>Node7</title>
<g id="a_Node000007"><a xlink:href="classeglt_1_1_local_chunk_store.html#aa8b6b2e66ec7a2e7074c0d08a6e22782" target="_top" xlink:title=" ">
<polygon fill="white" stroke="#666666" points="116.88,-30.5 4.12,-30.5 4.12,0 116.88,0 116.88,-30.5"/>
<text text-anchor="start" x="12.12" y="-17" font-family="Helvetica,sans-Serif" font-size="10.00">eglt::LocalChunkStore</text>
<text text-anchor="middle" x="60.5" y="-5.75" font-family="Helvetica,sans-Serif" font-size="10.00">::WaitForSeqId</text>
</a>
</g>
</g>
<!-- Node4&#45;&gt;Node7 -->
<g id="edge6_Node000004_Node000007" class="edge">
<title>Node4&#45;&gt;Node7</title>
<g id="a_edge6_Node000004_Node000007"><a xlink:title=" ">
<path fill="none" stroke="#63b8ff" d="M169.63,-66.92C154.86,-58.22 137.31,-48.33 121,-40.25 114.57,-37.07 107.64,-33.91 100.86,-30.97"/>
<polygon fill="#63b8ff" stroke="#63b8ff" points="167.68,-69.83 178.06,-71.94 171.26,-63.81 167.68,-69.83"/>
</a>
</g>
</g>
</g>
</svg>
</svg>

<style type='text/css'>
<![CDATA[
[data-mouse-over-selected='false'] { opacity: 0.7; }
[data-mouse-over-selected='true']  { opacity: 1.0; }
]]>
</style>
<script type="application/ecmascript"><![CDATA[
document.addEventListener('DOMContentLoaded', (event) => {
  highlightEdges();
  highlightAdjacentNodes();
});
]]></script>
</svg>
