<?xml version="1.0" encoding="UTF-8" standalone="no"?>
<!DOCTYPE svg PUBLIC "-//W3C//DTD SVG 1.1//EN"
 "http://www.w3.org/Graphics/SVG/1.1/DTD/svg11.dtd">
<!-- Generated by graphviz version 12.2.1 (20241206.2353)
 -->
<!-- Title: NewTree Pages: 1 -->
<svg width="535pt" height="137pt"
 viewBox="0.00 0.00 534.75 136.88" xmlns="http://www.w3.org/2000/svg" xmlns:xlink="http://www.w3.org/1999/xlink">
<g id="graph0" class="graph" transform="scale(1 1) rotate(0) translate(4 132.88)">
<title>NewTree</title>
<!-- Node1 -->
<g id="Node000001" class="node">
<title>Node1</title>
<g id="a_Node000001"><a xlink:title=" ">
<polygon fill="#999999" stroke="#666666" points="526.75,-85.88 471,-85.88 471,-66.62 526.75,-66.62 526.75,-85.88"/>
<text text-anchor="middle" x="498.88" y="-72.38" font-family="Helvetica,sans-Serif" font-size="10.00">NewTree</text>
</a>
</g>
</g>
<!-- Node2 -->
<g id="Node000002" class="node">
<title>Node2</title>
<g id="a_Node000002"><a xlink:href="namespaceeglt_1_1concurrency.html#a067e4d00cd95f30c0dc114fbdbedf10a" target="_top" xlink:title=" ">
<polygon fill="white" stroke="#666666" points="435,-91.5 338,-91.5 338,-61 435,-61 435,-91.5"/>
<text text-anchor="start" x="346" y="-78" font-family="Helvetica,sans-Serif" font-size="10.00">eglt::concurrency::</text>
<text text-anchor="middle" x="386.5" y="-66.75" font-family="Helvetica,sans-Serif" font-size="10.00">NewTree</text>
</a>
</g>
</g>
<!-- Node1&#45;&gt;Node2 -->
<g id="edge1_Node000001_Node000002" class="edge">
<title>Node1&#45;&gt;Node2</title>
<g id="a_edge1_Node000001_Node000002"><a xlink:title=" ">
<path fill="none" stroke="#63b8ff" d="M459.23,-76.25C451.44,-76.25 443.16,-76.25 435.1,-76.25"/>
<polygon fill="#63b8ff" stroke="#63b8ff" points="459.08,-79.75 469.08,-76.25 459.08,-72.75 459.08,-79.75"/>
</a>
</g>
</g>
<!-- Node3 -->
<g id="Node000003" class="node">
<title>Node3</title>
<g id="a_Node000003"><a xlink:href="classeglt_1_1_session.html#a9d124daa5a683635acb09dc3d25beac1" target="_top" xlink:title=" ">
<polygon fill="white" stroke="#666666" points="299.75,-128.88 159.25,-128.88 159.25,-109.62 299.75,-109.62 299.75,-128.88"/>
<text text-anchor="middle" x="229.5" y="-115.38" font-family="Helvetica,sans-Serif" font-size="10.00">eglt::Session::DispatchFrom</text>
</a>
</g>
</g>
<!-- Node2&#45;&gt;Node3 -->
<g id="edge2_Node000002_Node000003" class="edge">
<title>Node2&#45;&gt;Node3</title>
<g id="a_edge2_Node000002_Node000003"><a xlink:title=" ">
<path fill="none" stroke="#63b8ff" d="M326.98,-93.23C318.6,-95.62 310.09,-98.01 302,-100.25 291.35,-103.19 279.79,-106.3 269.13,-109.14"/>
<polygon fill="#63b8ff" stroke="#63b8ff" points="327.75,-96.65 336.4,-90.54 325.83,-89.92 327.75,-96.65"/>
</a>
</g>
</g>
<!-- Node4 -->
<g id="Node000004" class="node">
<title>Node4</title>
<g id="a_Node000004"><a xlink:href="classeglt_1_1_service.html#a2f080d2a2960977a7463531eb649cc53" target="_top" xlink:title=" ">
<polygon fill="white" stroke="#666666" points="288.12,-91.5 170.88,-91.5 170.88,-61 288.12,-61 288.12,-91.5"/>
<text text-anchor="start" x="178.88" y="-78" font-family="Helvetica,sans-Serif" font-size="10.00">eglt::Service::Establish</text>
<text text-anchor="middle" x="229.5" y="-66.75" font-family="Helvetica,sans-Serif" font-size="10.00">Connection</text>
</a>
</g>
</g>
<!-- Node2&#45;&gt;Node4 -->
<g id="edge3_Node000002_Node000004" class="edge">
<title>Node2&#45;&gt;Node4</title>
<g id="a_edge3_Node000002_Node000004"><a xlink:title=" ">
<path fill="none" stroke="#63b8ff" d="M326.51,-76.25C314.05,-76.25 300.91,-76.25 288.48,-76.25"/>
<polygon fill="#63b8ff" stroke="#63b8ff" points="326.22,-79.75 336.22,-76.25 326.22,-72.75 326.22,-79.75"/>
</a>
</g>
</g>
<!-- Node6 -->
<g id="Node000006" class="node">
<title>Node6</title>
<g id="a_Node000006"><a xlink:href="classeglt_1_1_chunk_store_reader.html#a487bb77aa51db57e589a7b3df272ab74" target="_top" xlink:title=" ">
<polygon fill="white" stroke="#666666" points="302,-24.88 157,-24.88 157,-5.63 302,-5.63 302,-24.88"/>
<text text-anchor="middle" x="229.5" y="-11.38" font-family="Helvetica,sans-Serif" font-size="10.00">eglt::ChunkStoreReader::Run</text>
</a>
</g>
</g>
<!-- Node2&#45;&gt;Node6 -->
<g id="edge5_Node000002_Node000006" class="edge">
<title>Node2&#45;&gt;Node6</title>
<g id="a_edge5_Node000002_Node000006"><a xlink:title=" ">
<path fill="none" stroke="#63b8ff" d="M335.01,-56.38C308.67,-46.01 277.57,-33.77 256.18,-25.36"/>
<polygon fill="#63b8ff" stroke="#63b8ff" points="333.59,-59.58 344.18,-59.99 336.15,-53.07 333.59,-59.58"/>
</a>
</g>
</g>
<!-- Node5 -->
<g id="Node000005" class="node">
<title>Node5</title>
<g id="a_Node000005"><a xlink:href="classeglt_1_1_service.html#a4dfff76ceb56a099b1a54da73e0c57d4" target="_top" xlink:title=" ">
<polygon fill="white" stroke="#666666" points="119.5,-85.88 1.5,-85.88 1.5,-66.62 119.5,-66.62 119.5,-85.88"/>
<text text-anchor="middle" x="60.5" y="-72.38" font-family="Helvetica,sans-Serif" font-size="10.00">eglt::Service::operator=</text>
</a>
</g>
</g>
<!-- Node4&#45;&gt;Node5 -->
<g id="edge4_Node000004_Node000005" class="edge">
<title>Node4&#45;&gt;Node5</title>
<g id="a_edge4_Node000004_Node000005"><a xlink:title=" ">
<path fill="none" stroke="#63b8ff" d="M159.23,-76.25C146.15,-76.25 132.6,-76.25 119.9,-76.25"/>
<polygon fill="#63b8ff" stroke="#63b8ff" points="159.05,-79.75 169.05,-76.25 159.05,-72.75 159.05,-79.75"/>
</a>
</g>
</g>
<!-- Node6&#45;&gt;Node6 -->
<g id="edge7_Node000006_Node000006" class="edge">
<title>Node6&#45;&gt;Node6</title>
<g id="a_edge7_Node000006_Node000006"><a xlink:title=" ">
<path fill="none" stroke="#63b8ff" d="M257.65,-35.94C254.41,-39.99 245.02,-42.88 229.5,-42.88 201.9,-42.88 193.71,-33.77 204.92,-25.16"/>
<polygon fill="#63b8ff" stroke="#63b8ff" points="261.02,-34.99 254.56,-26.6 254.38,-37.19 261.02,-34.99"/>
</a>
</g>
</g>
<!-- Node7 -->
<g id="Node000007" class="node">
<title>Node7</title>
<g id="a_Node000007"><a xlink:href="classeglt_1_1_chunk_store_reader.html#aaa18bc2443d0fb0b3668a53e1b56a5ae" target="_top" xlink:title=" ">
<polygon fill="white" stroke="#666666" points="121,-30.5 0,-30.5 0,0 121,0 121,-30.5"/>
<text text-anchor="start" x="8" y="-17" font-family="Helvetica,sans-Serif" font-size="10.00">eglt::ChunkStoreReader</text>
<text text-anchor="middle" x="60.5" y="-5.75" font-family="Helvetica,sans-Serif" font-size="10.00">::Next</text>
</a>
</g>
</g>
<!-- Node6&#45;&gt;Node7 -->
<g id="edge6_Node000006_Node000007" class="edge">
<title>Node6&#45;&gt;Node7</title>
<g id="a_edge6_Node000006_Node000007"><a xlink:title=" ">
<path fill="none" stroke="#63b8ff" d="M145.34,-15.25C137.28,-15.25 129.21,-15.25 121.44,-15.25"/>
<polygon fill="#63b8ff" stroke="#63b8ff" points="145.19,-18.75 155.19,-15.25 145.19,-11.75 145.19,-18.75"/>
</a>
</g>
</g>
</g>
</svg>
