<?xml version="1.0" encoding="UTF-8" standalone="no"?>
<!DOCTYPE svg PUBLIC "-//W3C//DTD SVG 1.1//EN"
 "http://www.w3.org/Graphics/SVG/1.1/DTD/svg11.dtd">
<!-- Generated by graphviz version 12.2.1 (20241206.2353)
 -->
<!-- Title: IsNullChunk Pages: 1 -->
<svg width="235pt" height="113pt"
 viewBox="0.00 0.00 235.00 112.88" xmlns="http://www.w3.org/2000/svg" xmlns:xlink="http://www.w3.org/1999/xlink">
<g id="graph0" class="graph" transform="scale(1 1) rotate(0) translate(4 108.88)">
<title>IsNullChunk</title>
<!-- Node1 -->
<g id="Node000001" class="node">
<title>Node1</title>
<g id="a_Node000001"><a xlink:title=" ">
<polygon fill="#999999" stroke="#666666" points="227,-56.25 157,-56.25 157,-37 227,-37 227,-56.25"/>
<text text-anchor="middle" x="192" y="-42.75" font-family="Helvetica,sans-Serif" font-size="10.00">IsNullChunk</text>
</a>
</g>
</g>
<!-- Node2 -->
<g id="Node000002" class="node">
<title>Node2</title>
<g id="a_Node000002"><a xlink:href="classeglt_1_1_chunk_store_reader.html#aaa18bc2443d0fb0b3668a53e1b56a5ae" target="_top" xlink:title=" ">
<polygon fill="white" stroke="#666666" points="121,-104.88 0,-104.88 0,-74.38 121,-74.38 121,-104.88"/>
<text text-anchor="start" x="8" y="-91.38" font-family="Helvetica,sans-Serif" font-size="10.00">eglt::ChunkStoreReader</text>
<text text-anchor="middle" x="60.5" y="-80.12" font-family="Helvetica,sans-Serif" font-size="10.00">::Next</text>
</a>
</g>
</g>
<!-- Node1&#45;&gt;Node2 -->
<g id="edge1_Node000001_Node000002" class="edge">
<title>Node1&#45;&gt;Node2</title>
<g id="a_edge1_Node000001_Node000002"><a xlink:title=" ">
<path fill="none" stroke="#63b8ff" d="M150.06,-60.22C136.99,-64.56 122.4,-69.4 108.9,-73.88"/>
<polygon fill="#63b8ff" stroke="#63b8ff" points="150.81,-63.66 159.2,-57.18 148.61,-57.01 150.81,-63.66"/>
</a>
</g>
</g>
<!-- Node3 -->
<g id="Node000003" class="node">
<title>Node3</title>
<g id="a_Node000003"><a xlink:href="classeglt_1_1_async_node.html#a1fdb1ae5ba58cbb9dceecdbc976669d7" target="_top" xlink:title=" ">
<polygon fill="white" stroke="#666666" points="115.38,-56.25 5.62,-56.25 5.62,-37 115.38,-37 115.38,-56.25"/>
<text text-anchor="middle" x="60.5" y="-42.75" font-family="Helvetica,sans-Serif" font-size="10.00">eglt::AsyncNode::Put</text>
</a>
</g>
</g>
<!-- Node1&#45;&gt;Node3 -->
<g id="edge2_Node000001_Node000003" class="edge">
<title>Node1&#45;&gt;Node3</title>
<g id="a_edge2_Node000001_Node000003"><a xlink:title=" ">
<path fill="none" stroke="#63b8ff" d="M145.29,-46.62C135.68,-46.62 125.46,-46.62 115.58,-46.62"/>
<polygon fill="#63b8ff" stroke="#63b8ff" points="145.12,-50.13 155.12,-46.63 145.12,-43.13 145.12,-50.13"/>
</a>
</g>
</g>
<!-- Node4 -->
<g id="Node000004" class="node">
<title>Node4</title>
<g id="a_Node000004"><a xlink:href="classeglt_1_1_chunk_store.html#a832798f275e3ec06e697840ef19cf827" target="_top" xlink:title=" ">
<polygon fill="white" stroke="#666666" points="115.75,-19.25 5.25,-19.25 5.25,0 115.75,0 115.75,-19.25"/>
<text text-anchor="middle" x="60.5" y="-5.75" font-family="Helvetica,sans-Serif" font-size="10.00">eglt::ChunkStore::Put</text>
</a>
</g>
</g>
<!-- Node1&#45;&gt;Node4 -->
<g id="edge3_Node000001_Node000004" class="edge">
<title>Node1&#45;&gt;Node4</title>
<g id="a_edge3_Node000001_Node000004"><a xlink:title=" ">
<path fill="none" stroke="#63b8ff" d="M145.87,-33.73C129.84,-29.15 112.03,-24.06 96.93,-19.75"/>
<polygon fill="#63b8ff" stroke="#63b8ff" points="144.6,-37.01 155.18,-36.39 146.53,-30.28 144.6,-37.01"/>
</a>
</g>
</g>
</g>
</svg>
