<?xml version="1.0" encoding="UTF-8" standalone="no"?>
<!DOCTYPE svg PUBLIC "-//W3C//DTD SVG 1.1//EN"
 "http://www.w3.org/Graphics/SVG/1.1/DTD/svg11.dtd">
<!-- Generated by graphviz version 12.2.1 (20241206.2353)
 -->
<!-- Title: FindOrDie Pages: 1 -->
<!--zoomable 186 -->

<svg id="main" version="1.1" xmlns="http://www.w3.org/2000/svg" xmlns:xlink="http://www.w3.org/1999/xlink" xml:space="preserve" onload="init(evt)">

<style type="text/css"><![CDATA[
.node, .edge {opacity: 0.7;}
.node.selected, .edge.selected {opacity: 1;}
.edge:hover path { stroke: red; }
.edge:hover polygon { stroke: red; fill: red; }
]]></style>

<defs>
  <circle id="rim" cx="0" cy="0" r="7"/>
  <circle id="rim2" cx="0" cy="0" r="3.5"/>
  <g id="zoomPlus">
    <use xlink:href="#rim" fill="#404040"><set attributeName="fill" to="#808080" begin="zoomplus.mouseover" end="zoomplus.mouseout"/></use>
    <path d="M-4,0h8M0,-4v8" fill="none" stroke="white" stroke-width="1.5" pointer-events="none"/>
  </g>
  <g id="zoomMin">
    <use xlink:href="#rim" fill="#404040"><set attributeName="fill" to="#808080" begin="zoomminus.mouseover" end="zoomminus.mouseout"/></use>
    <path d="M-4,0h8" fill="none" stroke="white" stroke-width="1.5" pointer-events="none"/>
  </g>
  <g id="arrowUp" transform="translate(30 24)">
    <use xlink:href="#rim"/>
    <path pointer-events="none" fill="none" stroke="white" stroke-width="1.5" d="M0,-3.0v7 M-2.5,-0.5L0,-3.0L2.5,-0.5"/>
  </g>
  <g id="arrowRight" transform="rotate(90) translate(36 -43)">
    <use xlink:href="#rim"/>
    <path pointer-events="none" fill="none" stroke="white" stroke-width="1.5" d="M0,-3.0v7 M-2.5,-0.5L0,-3.0L2.5,-0.5"/>
  </g>
  <g id="arrowDown" transform="rotate(180) translate(-30 -48)">
    <use xlink:href="#rim"/>
    <path pointer-events="none" fill="none" stroke="white" stroke-width="1.5" d="M0,-3.0v7 M-2.5,-0.5L0,-3.0L2.5,-0.5"/>
  </g>
  <g id="arrowLeft" transform="rotate(270) translate(-36 17)">
    <use xlink:href="#rim"/>
    <path pointer-events="none" fill="none" stroke="white" stroke-width="1.5" d="M0,-3.0v7 M-2.5,-0.5L0,-3.0L2.5,-0.5"/>
  </g>
  <g id="resetDef">
    <use xlink:href="#rim2" fill="#404040"><set attributeName="fill" to="#808080" begin="reset.mouseover" end="reset.mouseout"/></use>
  </g>
</defs>
<script type="application/ecmascript">
var viewWidth = 753;
var viewHeight = 186;
var sectionId = 'dynsection-0';
</script>
<script type="application/ecmascript" xlink:href="svg.min.js"/>
<svg id="graph" class="graph">
<g id="viewport">
<title>FindOrDie</title>
<!-- Node1 -->
<g id="Node000001" class="node">
<title>Node1</title>
<g id="a_Node000001"><a xlink:title=" ">
<polygon fill="#999999" stroke="#666666" points="744.5,-97.88 684.25,-97.88 684.25,-78.62 744.5,-78.62 744.5,-97.88"/>
<text text-anchor="middle" x="714.38" y="-84.38" font-family="Helvetica,sans-Serif" font-size="10.00">FindOrDie</text>
</a>
</g>
</g>
<!-- Node2 -->
<g id="Node000002" class="node">
<title>Node2</title>
<g id="a_Node000002"><a xlink:href="classeglt_1_1_action_registry.html#a669380102ecdd51e9c68e3cd71cb87f7" target="_top" xlink:title=" ">
<polygon fill="white" stroke="#666666" points="642.62,-177.5 540.38,-177.5 540.38,-147 642.62,-147 642.62,-177.5"/>
<text text-anchor="start" x="548.38" y="-164" font-family="Helvetica,sans-Serif" font-size="10.00">eglt::ActionRegistry</text>
<text text-anchor="middle" x="591.5" y="-152.75" font-family="Helvetica,sans-Serif" font-size="10.00">::GetDefinition</text>
</a>
</g>
</g>
<!-- Node1&#45;&gt;Node2 -->
<g id="edge1_Node000001_Node000002" class="edge">
<title>Node1&#45;&gt;Node2</title>
<g id="a_edge1_Node000001_Node000002"><a xlink:title=" ">
<path fill="none" stroke="#63b8ff" d="M693.28,-105.22C680.81,-115.28 664.17,-127.85 648.25,-137.25 642.68,-140.54 636.6,-143.68 630.56,-146.56"/>
<polygon fill="#63b8ff" stroke="#63b8ff" points="695.26,-108.13 700.76,-99.08 690.81,-102.72 695.26,-108.13"/>
</a>
</g>
</g>
<!-- Node7 -->
<g id="Node000007" class="node">
<title>Node7</title>
<g id="a_Node000007"><a xlink:href="classeglt_1_1_action_registry.html#adc33de5dd06408f5ba198c195bfac477" target="_top" xlink:title=" ">
<polygon fill="white" stroke="#666666" points="642.62,-128.5 540.38,-128.5 540.38,-98 642.62,-98 642.62,-128.5"/>
<text text-anchor="start" x="548.38" y="-115" font-family="Helvetica,sans-Serif" font-size="10.00">eglt::ActionRegistry</text>
<text text-anchor="middle" x="591.5" y="-103.75" font-family="Helvetica,sans-Serif" font-size="10.00">::GetHandler</text>
</a>
</g>
</g>
<!-- Node1&#45;&gt;Node7 -->
<g id="edge6_Node000001_Node000007" class="edge">
<title>Node1&#45;&gt;Node7</title>
<g id="a_edge6_Node000001_Node000007"><a xlink:title=" ">
<path fill="none" stroke="#63b8ff" d="M672.63,-96.68C663.11,-98.65 652.85,-100.77 642.96,-102.81"/>
<polygon fill="#63b8ff" stroke="#63b8ff" points="673.24,-100.13 682.32,-94.67 671.82,-93.27 673.24,-100.13"/>
</a>
</g>
</g>
<!-- Node8 -->
<g id="Node000008" class="node">
<title>Node8</title>
<g id="a_Node000008"><a xlink:href="classeglt_1_1_action_registry.html#a46cdfcfce135eff394148025bc0ac44e" target="_top" xlink:title=" ">
<polygon fill="white" stroke="#666666" points="642.62,-79.5 540.38,-79.5 540.38,-49 642.62,-49 642.62,-79.5"/>
<text text-anchor="start" x="548.38" y="-66" font-family="Helvetica,sans-Serif" font-size="10.00">eglt::ActionRegistry</text>
<text text-anchor="middle" x="591.5" y="-54.75" font-family="Helvetica,sans-Serif" font-size="10.00">::MakeAction</text>
</a>
</g>
</g>
<!-- Node1&#45;&gt;Node8 -->
<g id="edge8_Node000001_Node000008" class="edge">
<title>Node1&#45;&gt;Node8</title>
<g id="a_edge8_Node000001_Node000008"><a xlink:title=" ">
<path fill="none" stroke="#63b8ff" d="M672.63,-80.16C663.11,-78.27 652.85,-76.23 642.96,-74.27"/>
<polygon fill="#63b8ff" stroke="#63b8ff" points="671.83,-83.57 682.32,-82.08 673.19,-76.7 671.83,-83.57"/>
</a>
</g>
</g>
<!-- Node11 -->
<g id="Node000011" class="node">
<title>Node11</title>
<g id="a_Node000011"><a xlink:href="classeglt_1_1_action_registry.html#af54e9a07763b724e7c437b016a7dc894" target="_top" xlink:title=" ">
<polygon fill="white" stroke="#666666" points="648.25,-30.5 534.75,-30.5 534.75,0 648.25,0 648.25,-30.5"/>
<text text-anchor="start" x="542.75" y="-17" font-family="Helvetica,sans-Serif" font-size="10.00">eglt::ActionRegistry</text>
<text text-anchor="middle" x="591.5" y="-5.75" font-family="Helvetica,sans-Serif" font-size="10.00">::MakeActionMessage</text>
</a>
</g>
</g>
<!-- Node1&#45;&gt;Node11 -->
<g id="edge11_Node000001_Node000011" class="edge">
<title>Node1&#45;&gt;Node11</title>
<g id="a_edge11_Node000001_Node000011"><a xlink:title=" ">
<path fill="none" stroke="#63b8ff" d="M692.77,-71.3C680.34,-61.52 663.91,-49.39 648.25,-40.25 642.66,-36.99 636.57,-33.86 630.54,-30.99"/>
<polygon fill="#63b8ff" stroke="#63b8ff" points="690.26,-73.76 700.25,-77.28 694.63,-68.3 690.26,-73.76"/>
</a>
</g>
</g>
<!-- Node3 -->
<g id="Node000003" class="node">
<title>Node3</title>
<g id="a_Node000003"><a xlink:href="classeglt_1_1_action.html#a4dd180ef78de62aead953c6c82dfafcd" target="_top" xlink:title=" ">
<polygon fill="white" stroke="#666666" points="496.88,-152.5 375.12,-152.5 375.12,-122 496.88,-122 496.88,-152.5"/>
<text text-anchor="start" x="383.12" y="-139" font-family="Helvetica,sans-Serif" font-size="10.00">eglt::Action::FromAction</text>
<text text-anchor="middle" x="436" y="-127.75" font-family="Helvetica,sans-Serif" font-size="10.00">Message</text>
</a>
</g>
</g>
<!-- Node2&#45;&gt;Node3 -->
<g id="edge2_Node000002_Node000003" class="edge">
<title>Node2&#45;&gt;Node3</title>
<g id="a_edge2_Node000002_Node000003"><a xlink:title=" ">
<path fill="none" stroke="#63b8ff" d="M529.07,-152.24C518.59,-150.54 507.72,-148.77 497.27,-147.07"/>
<polygon fill="#63b8ff" stroke="#63b8ff" points="528.31,-155.67 538.74,-153.82 529.44,-148.76 528.31,-155.67"/>
</a>
</g>
</g>
<!-- Node4 -->
<g id="Node000004" class="node">
<title>Node4</title>
<g id="a_Node000004"><a xlink:href="classeglt_1_1_session.html#a4f5864acdd447efd6bf08f67e6bdb944" target="_top" xlink:title=" ">
<polygon fill="white" stroke="#666666" points="337.25,-146.88 179.5,-146.88 179.5,-127.62 337.25,-127.62 337.25,-146.88"/>
<text text-anchor="middle" x="258.38" y="-133.38" font-family="Helvetica,sans-Serif" font-size="10.00">eglt::Session::DispatchMessage</text>
</a>
</g>
</g>
<!-- Node3&#45;&gt;Node4 -->
<g id="edge3_Node000003_Node000004" class="edge">
<title>Node3&#45;&gt;Node4</title>
<g id="a_edge3_Node000003_Node000004"><a xlink:title=" ">
<path fill="none" stroke="#63b8ff" d="M363.58,-137.25C355.05,-137.25 346.31,-137.25 337.69,-137.25"/>
<polygon fill="#63b8ff" stroke="#63b8ff" points="363.54,-140.75 373.54,-137.25 363.54,-133.75 363.54,-140.75"/>
</a>
</g>
</g>
<!-- Node5 -->
<g id="Node000005" class="node">
<title>Node5</title>
<g id="a_Node000005"><a xlink:href="classeglt_1_1_session.html#a9d124daa5a683635acb09dc3d25beac1" target="_top" xlink:title=" ">
<polygon fill="white" stroke="#666666" points="142,-165.88 1.5,-165.88 1.5,-146.62 142,-146.62 142,-165.88"/>
<text text-anchor="middle" x="71.75" y="-152.38" font-family="Helvetica,sans-Serif" font-size="10.00">eglt::Session::DispatchFrom</text>
</a>
</g>
</g>
<!-- Node4&#45;&gt;Node5 -->
<g id="edge4_Node000004_Node000005" class="edge">
<title>Node4&#45;&gt;Node5</title>
<g id="a_edge4_Node000004_Node000005"><a xlink:title=" ">
<path fill="none" stroke="#63b8ff" d="M167.87,-146.46C159.31,-147.34 150.72,-148.23 142.39,-149.08"/>
<polygon fill="#63b8ff" stroke="#63b8ff" points="167.98,-149.97 177.57,-145.46 167.27,-143 167.98,-149.97"/>
</a>
</g>
</g>
<!-- Node6 -->
<g id="Node000006" class="node">
<title>Node6</title>
<g id="a_Node000006"><a xlink:href="namespaceeglt.html#a64b25ce286e2492002d161095e418aa4" target="_top" xlink:title=" ">
<polygon fill="white" stroke="#666666" points="143.5,-128.88 0,-128.88 0,-109.62 143.5,-109.62 143.5,-128.88"/>
<text text-anchor="middle" x="71.75" y="-115.38" font-family="Helvetica,sans-Serif" font-size="10.00">RunSimpleEvergreenSession</text>
</a>
</g>
</g>
<!-- Node4&#45;&gt;Node6 -->
<g id="edge5_Node000004_Node000006" class="edge">
<title>Node4&#45;&gt;Node6</title>
<g id="a_edge5_Node000004_Node000006"><a xlink:title=" ">
<path fill="none" stroke="#63b8ff" d="M167.77,-128.51C159.74,-127.73 151.68,-126.95 143.84,-126.18"/>
<polygon fill="#63b8ff" stroke="#63b8ff" points="167.28,-131.98 177.57,-129.47 167.96,-125.02 167.28,-131.98"/>
</a>
</g>
</g>
<!-- Node7&#45;&gt;Node3 -->
<g id="edge7_Node000007_Node000003" class="edge">
<title>Node7&#45;&gt;Node3</title>
<g id="a_edge7_Node000007_Node000003"><a xlink:title=" ">
<path fill="none" stroke="#63b8ff" d="M529.07,-122.86C518.59,-124.49 507.72,-126.19 497.27,-127.83"/>
<polygon fill="#63b8ff" stroke="#63b8ff" points="529.4,-126.35 538.74,-121.34 528.32,-119.43 529.4,-126.35"/>
</a>
</g>
</g>
<!-- Node9 -->
<g id="Node000009" class="node">
<title>Node9</title>
<g id="a_Node000009"><a xlink:href="namespaceeglt.html#a95366fc4aaf2b267febdfedd75fab80f" target="_top" xlink:title=" ">
<polygon fill="white" stroke="#666666" points="498.75,-76.88 373.25,-76.88 373.25,-57.62 498.75,-57.62 498.75,-76.88"/>
<text text-anchor="middle" x="436" y="-63.38" font-family="Helvetica,sans-Serif" font-size="10.00">MakeActionInConnection</text>
</a>
</g>
</g>
<!-- Node8&#45;&gt;Node9 -->
<g id="edge9_Node000008_Node000009" class="edge">
<title>Node8&#45;&gt;Node9</title>
<g id="a_edge9_Node000008_Node000009"><a xlink:title=" ">
<path fill="none" stroke="#63b8ff" d="M528.93,-65.45C519.13,-65.64 508.99,-65.84 499.18,-66.03"/>
<polygon fill="#63b8ff" stroke="#63b8ff" points="528.8,-68.96 538.73,-65.26 528.66,-61.96 528.8,-68.96"/>
</a>
</g>
</g>
<!-- Node10 -->
<g id="Node000010" class="node">
<title>Node10</title>
<g id="a_Node000010"><a xlink:href="classeglt_1_1_action.html#a9da84dfe723ceffb3aa40b722e9bc38c" target="_top" xlink:title="Makes a different action in the same session. Should be used to create nested actions.">
<polygon fill="white" stroke="#666666" points="497.62,-39.5 374.38,-39.5 374.38,-9 497.62,-9 497.62,-39.5"/>
<text text-anchor="start" x="382.38" y="-26" font-family="Helvetica,sans-Serif" font-size="10.00">eglt::Action::MakeAction</text>
<text text-anchor="middle" x="436" y="-14.75" font-family="Helvetica,sans-Serif" font-size="10.00">InSameSession</text>
</a>
</g>
</g>
<!-- Node8&#45;&gt;Node10 -->
<g id="edge10_Node000008_Node000010" class="edge">
<title>Node8&#45;&gt;Node10</title>
<g id="a_edge10_Node000008_Node000010"><a xlink:title=" ">
<path fill="none" stroke="#63b8ff" d="M529.4,-48.33C518.82,-45.57 507.83,-42.71 497.27,-39.96"/>
<polygon fill="#63b8ff" stroke="#63b8ff" points="528.21,-51.64 538.77,-50.77 529.98,-44.86 528.21,-51.64"/>
</a>
</g>
</g>
</g>
</svg>

<g id="navigator" transform="translate(0 0)" fill="#404254">
  <rect fill="#f2f5e9" fill-opacity="0.5" stroke="#606060" stroke-width=".5" x="0" y="0" width="60" height="60"/>
  <use id="zoomplus" xlink:href="#zoomPlus" x="17" y="9" onmousedown="handleZoom(evt,'in')"/>
  <use id="zoomminus" xlink:href="#zoomMin" x="42" y="9" onmousedown="handleZoom(evt,'out')"/>
  <use id="reset" xlink:href="#resetDef" x="30" y="36" onmousedown="handleReset()"/>
   <use id="arrowup" xlink:href="#arrowUp" x="0" y="0" onmousedown="handlePan(0,-1)"/>
  <use id="arrowright" xlink:href="#arrowRight" x="0" y="0" onmousedown="handlePan(1,0)"/>
  <use id="arrowdown" xlink:href="#arrowDown" x="0" y="0" onmousedown="handlePan(0,1)"/>
  <use id="arrowleft" xlink:href="#arrowLeft" x="0" y="0" onmousedown="handlePan(-1,0)"/>
</g>
<svg viewBox="0 0 15 15" width="100%" height="30px" preserveAspectRatio="xMaxYMin meet">
 <g id="arrow_out" transform="scale(0.3 0.3)">
  <a xlink:href="namespaceeglt_a9d3d4ae0a50cc3d000ef7d0e90916135_icgraph_org.svg" target="_base">
   <rect id="button" ry="5" rx="5" y="6" x="6" height="38" width="38"
        fill="#f2f5e9" fill-opacity="0.5" stroke="#606060" stroke-width="1.0"/>
   <path id="arrow"
     d="M 11.500037,31.436501 C 11.940474,20.09759 22.043105,11.32322 32.158766,21.979434 L 37.068811,17.246167 C 37.068811,17.246167 37.088388,32 37.088388,32 L 22.160133,31.978069 C 22.160133,31.978069 26.997745,27.140456 26.997745,27.140456 C 18.528582,18.264221 13.291696,25.230495 11.500037,31.436501 z"
     style="fill:#404040;"/>
  </a>
 </g>
</svg>

<style type='text/css'>
<![CDATA[
[data-mouse-over-selected='false'] { opacity: 0.7; }
[data-mouse-over-selected='true']  { opacity: 1.0; }
]]>
</style>
<script type="application/ecmascript"><![CDATA[
document.addEventListener('DOMContentLoaded', (event) => {
  highlightEdges();
  highlightAdjacentNodes();
});
]]></script>
</svg>
