<?xml version="1.0" encoding="UTF-8" standalone="no"?>
<!DOCTYPE svg PUBLIC "-//W3C//DTD SVG 1.1//EN"
 "http://www.w3.org/Graphics/SVG/1.1/DTD/svg11.dtd">
<!-- Generated by graphviz version 12.2.1 (20241206.2353)
 -->
<!-- Title: RunSimpleEvergreenSession Pages: 1 -->
<svg width="345pt" height="76pt"
 viewBox="0.00 0.00 345.25 75.88" xmlns="http://www.w3.org/2000/svg" xmlns:xlink="http://www.w3.org/1999/xlink">
<g id="graph0" class="graph" transform="scale(1 1) rotate(0) translate(4 71.88)">
<title>RunSimpleEvergreenSession</title>
<!-- Node1 -->
<g id="Node000001" class="node">
<title>Node1</title>
<g id="a_Node000001"><a xlink:title=" ">
<polygon fill="#999999" stroke="#666666" points="143.5,-45.88 0,-45.88 0,-26.62 143.5,-26.62 143.5,-45.88"/>
<text text-anchor="middle" x="71.75" y="-32.38" font-family="Helvetica,sans-Serif" font-size="10.00">RunSimpleEvergreenSession</text>
</a>
</g>
</g>
<!-- Node2 -->
<g id="Node000002" class="node">
<title>Node2</title>
<g id="a_Node000002"><a xlink:href="classeglt_1_1_session.html#a4f5864acdd447efd6bf08f67e6bdb944" target="_top" xlink:title=" ">
<polygon fill="white" stroke="#666666" points="337.25,-67.88 179.5,-67.88 179.5,-48.62 337.25,-48.62 337.25,-67.88"/>
<text text-anchor="middle" x="258.38" y="-54.38" font-family="Helvetica,sans-Serif" font-size="10.00">eglt::Session::DispatchMessage</text>
</a>
</g>
</g>
<!-- Node1&#45;&gt;Node2 -->
<g id="edge1_Node000001_Node000002" class="edge">
<title>Node1&#45;&gt;Node2</title>
<g id="a_edge1_Node000001_Node000002"><a xlink:title=" ">
<path fill="none" stroke="#63b8ff" d="M143.87,-44.72C151.74,-45.66 159.83,-46.63 167.89,-47.59"/>
<polygon fill="#63b8ff" stroke="#63b8ff" points="167.39,-51.05 177.73,-48.76 168.22,-44.1 167.39,-51.05"/>
</a>
</g>
</g>
<!-- Node3 -->
<g id="Node000003" class="node">
<title>Node3</title>
<g id="a_Node000003"><a xlink:href="classeglt_1_1base_1_1_evergreen_stream.html#a6c4496a164d28e4abd08fa3ebc83d79d" target="_top" xlink:title="Receives an Evergreen session message from the stream.">
<polygon fill="white" stroke="#666666" points="328.62,-30.5 188.12,-30.5 188.12,0 328.62,0 328.62,-30.5"/>
<text text-anchor="start" x="196.12" y="-17" font-family="Helvetica,sans-Serif" font-size="10.00">eglt::base::EvergreenStream</text>
<text text-anchor="middle" x="258.38" y="-5.75" font-family="Helvetica,sans-Serif" font-size="10.00">::Receive</text>
</a>
</g>
</g>
<!-- Node1&#45;&gt;Node3 -->
<g id="edge2_Node000001_Node000003" class="edge">
<title>Node1&#45;&gt;Node3</title>
<g id="a_edge2_Node000001_Node000003"><a xlink:title=" ">
<path fill="none" stroke="#63b8ff" d="M143.87,-28.16C154.57,-26.94 165.68,-25.68 176.57,-24.44"/>
<polygon fill="#63b8ff" stroke="#63b8ff" points="176.77,-27.94 186.31,-23.33 175.98,-20.99 176.77,-27.94"/>
</a>
</g>
</g>
</g>
</svg>
