<?xml version="1.0" encoding="UTF-8" standalone="no"?>
<!DOCTYPE svg PUBLIC "-//W3C//DTD SVG 1.1//EN"
 "http://www.w3.org/Graphics/SVG/1.1/DTD/svg11.dtd">
<!-- Generated by graphviz version 12.2.1 (20241206.2353)
 -->
<!-- Title: Detach Pages: 1 -->
<svg width="559pt" height="76pt"
 viewBox="0.00 0.00 558.75 75.88" xmlns="http://www.w3.org/2000/svg" xmlns:xlink="http://www.w3.org/1999/xlink">
<g id="graph0" class="graph" transform="scale(1 1) rotate(0) translate(4 71.88)">
<title>Detach</title>
<!-- Node1 -->
<g id="Node000001" class="node">
<title>Node1</title>
<g id="a_Node000001"><a xlink:title=" ">
<polygon fill="#999999" stroke="#666666" points="550.75,-45.88 503.25,-45.88 503.25,-26.62 550.75,-26.62 550.75,-45.88"/>
<text text-anchor="middle" x="527" y="-32.38" font-family="Helvetica,sans-Serif" font-size="10.00">Detach</text>
</a>
</g>
</g>
<!-- Node2 -->
<g id="Node000002" class="node">
<title>Node2</title>
<g id="a_Node000002"><a xlink:href="namespaceeglt_1_1concurrency.html#a77157cd3b42efdd8a4591aa709d4d457" target="_top" xlink:title=" ">
<polygon fill="white" stroke="#666666" points="467.25,-51.5 370.25,-51.5 370.25,-21 467.25,-21 467.25,-51.5"/>
<text text-anchor="start" x="378.25" y="-38" font-family="Helvetica,sans-Serif" font-size="10.00">eglt::concurrency::</text>
<text text-anchor="middle" x="418.75" y="-26.75" font-family="Helvetica,sans-Serif" font-size="10.00">Detach</text>
</a>
</g>
</g>
<!-- Node1&#45;&gt;Node2 -->
<g id="edge1_Node000001_Node000002" class="edge">
<title>Node1&#45;&gt;Node2</title>
<g id="a_edge1_Node000001_Node000002"><a xlink:title=" ">
<path fill="none" stroke="#63b8ff" d="M491.54,-36.25C483.91,-36.25 475.69,-36.25 467.63,-36.25"/>
<polygon fill="#63b8ff" stroke="#63b8ff" points="491.43,-39.75 501.43,-36.25 491.43,-32.75 491.43,-39.75"/>
</a>
</g>
</g>
<!-- Node3 -->
<g id="Node000003" class="node">
<title>Node3</title>
<g id="a_Node000003"><a xlink:href="classeglt_1_1_session.html#a4f5864acdd447efd6bf08f67e6bdb944" target="_top" xlink:title=" ">
<polygon fill="white" stroke="#666666" points="334.25,-45.88 176.5,-45.88 176.5,-26.62 334.25,-26.62 334.25,-45.88"/>
<text text-anchor="middle" x="255.38" y="-32.38" font-family="Helvetica,sans-Serif" font-size="10.00">eglt::Session::DispatchMessage</text>
</a>
</g>
</g>
<!-- Node2&#45;&gt;Node3 -->
<g id="edge2_Node000002_Node000003" class="edge">
<title>Node2&#45;&gt;Node3</title>
<g id="a_edge2_Node000002_Node000003"><a xlink:title=" ">
<path fill="none" stroke="#63b8ff" d="M358.33,-36.25C350.63,-36.25 342.65,-36.25 334.7,-36.25"/>
<polygon fill="#63b8ff" stroke="#63b8ff" points="358.26,-39.75 368.26,-36.25 358.26,-32.75 358.26,-39.75"/>
</a>
</g>
</g>
<!-- Node4 -->
<g id="Node000004" class="node">
<title>Node4</title>
<g id="a_Node000004"><a xlink:href="classeglt_1_1_session.html#a9d124daa5a683635acb09dc3d25beac1" target="_top" xlink:title=" ">
<polygon fill="white" stroke="#666666" points="140.5,-67.88 0,-67.88 0,-48.62 140.5,-48.62 140.5,-67.88"/>
<text text-anchor="middle" x="70.25" y="-54.38" font-family="Helvetica,sans-Serif" font-size="10.00">eglt::Session::DispatchFrom</text>
</a>
</g>
</g>
<!-- Node3&#45;&gt;Node4 -->
<g id="edge3_Node000003_Node000004" class="edge">
<title>Node3&#45;&gt;Node4</title>
<g id="a_edge3_Node000003_Node000004"><a xlink:title=" ">
<path fill="none" stroke="#63b8ff" d="M164.81,-47.01C156.74,-47.98 148.65,-48.95 140.79,-49.9"/>
<polygon fill="#63b8ff" stroke="#63b8ff" points="165.17,-50.49 174.68,-45.82 164.33,-43.54 165.17,-50.49"/>
</a>
</g>
</g>
<!-- Node5 -->
<g id="Node000005" class="node">
<title>Node5</title>
<g id="a_Node000005"><a xlink:href="namespaceeglt.html#a64b25ce286e2492002d161095e418aa4" target="_top" xlink:title=" ">
<polygon fill="white" stroke="#666666" points="135.25,-30.5 5.25,-30.5 5.25,0 135.25,0 135.25,-30.5"/>
<text text-anchor="start" x="13.25" y="-17" font-family="Helvetica,sans-Serif" font-size="10.00">eglt::RunSimpleEvergreen</text>
<text text-anchor="middle" x="70.25" y="-5.75" font-family="Helvetica,sans-Serif" font-size="10.00">Session</text>
</a>
</g>
</g>
<!-- Node3&#45;&gt;Node5 -->
<g id="edge4_Node000003_Node000005" class="edge">
<title>Node3&#45;&gt;Node5</title>
<g id="a_edge4_Node000003_Node000005"><a xlink:title=" ">
<path fill="none" stroke="#63b8ff" d="M165.03,-26C155.12,-24.87 145.18,-23.73 135.67,-22.64"/>
<polygon fill="#63b8ff" stroke="#63b8ff" points="164.34,-29.45 174.68,-27.11 165.14,-22.49 164.34,-29.45"/>
</a>
</g>
</g>
</g>
</svg>
