<?xml version="1.0" encoding="UTF-8" standalone="no"?>
<!DOCTYPE svg PUBLIC "-//W3C//DTD SVG 1.1//EN"
 "http://www.w3.org/Graphics/SVG/1.1/DTD/svg11.dtd">
<!-- Generated by graphviz version 12.2.1 (20241206.2353)
 -->
<!-- Title: JoinOptimally Pages: 1 -->
<svg width="373pt" height="57pt"
 viewBox="0.00 0.00 373.25 56.50" xmlns="http://www.w3.org/2000/svg" xmlns:xlink="http://www.w3.org/1999/xlink">
<g id="graph0" class="graph" transform="scale(1 1) rotate(0) translate(4 52.5)">
<title>JoinOptimally</title>
<!-- Node1 -->
<g id="Node000001" class="node">
<title>Node1</title>
<g id="a_Node000001"><a xlink:title=" ">
<polygon fill="#999999" stroke="#666666" points="365.25,-24.88 290,-24.88 290,-5.63 365.25,-5.63 365.25,-24.88"/>
<text text-anchor="middle" x="327.62" y="-11.38" font-family="Helvetica,sans-Serif" font-size="10.00">JoinOptimally</text>
</a>
</g>
</g>
<!-- Node2 -->
<g id="Node000002" class="node">
<title>Node2</title>
<g id="a_Node000002"><a xlink:href="namespaceeglt_1_1concurrency.html#af4dd997ec76a8839824265cf37360b8f" target="_top" xlink:title=" ">
<polygon fill="white" stroke="#666666" points="254,-30.5 157,-30.5 157,0 254,0 254,-30.5"/>
<text text-anchor="start" x="165" y="-17" font-family="Helvetica,sans-Serif" font-size="10.00">eglt::concurrency::</text>
<text text-anchor="middle" x="205.5" y="-5.75" font-family="Helvetica,sans-Serif" font-size="10.00">JoinOptimally</text>
</a>
</g>
</g>
<!-- Node1&#45;&gt;Node2 -->
<g id="edge1_Node000001_Node000002" class="edge">
<title>Node1&#45;&gt;Node2</title>
<g id="a_edge1_Node000001_Node000002"><a xlink:title=" ">
<path fill="none" stroke="#63b8ff" d="M278.27,-15.25C270.36,-15.25 262.16,-15.25 254.25,-15.25"/>
<polygon fill="#63b8ff" stroke="#63b8ff" points="278.09,-18.75 288.09,-15.25 278.09,-11.75 278.09,-18.75"/>
</a>
</g>
</g>
<!-- Node3 -->
<g id="Node000003" class="node">
<title>Node3</title>
<g id="a_Node000003"><a xlink:href="classeglt_1_1_chunk_store_reader.html#aa99cfd374b58b92c5f3e6968c83779d7" target="_top" xlink:title=" ">
<polygon fill="white" stroke="#666666" points="121,-30.5 0,-30.5 0,0 121,0 121,-30.5"/>
<text text-anchor="start" x="8" y="-17" font-family="Helvetica,sans-Serif" font-size="10.00">eglt::ChunkStoreReader</text>
<text text-anchor="middle" x="60.5" y="-5.75" font-family="Helvetica,sans-Serif" font-size="10.00">::~ChunkStoreReader</text>
</a>
</g>
</g>
<!-- Node2&#45;&gt;Node3 -->
<g id="edge2_Node000002_Node000003" class="edge">
<title>Node2&#45;&gt;Node3</title>
<g id="a_edge2_Node000002_Node000003"><a xlink:title=" ">
<path fill="none" stroke="#63b8ff" d="M145.44,-15.25C137.49,-15.25 129.33,-15.25 121.37,-15.25"/>
<polygon fill="#63b8ff" stroke="#63b8ff" points="145.37,-18.75 155.37,-15.25 145.37,-11.75 145.37,-18.75"/>
</a>
</g>
</g>
<!-- Node3&#45;&gt;Node3 -->
<g id="edge3_Node000003_Node000003" class="edge">
<title>Node3&#45;&gt;Node3</title>
<g id="a_edge3_Node000003_Node000003"><a xlink:title=" ">
<path fill="none" stroke="#63b8ff" d="M84.82,-42.2C80.84,-45.97 72.74,-48.5 60.5,-48.5 38.13,-48.5 29.56,-40.06 34.81,-30.99"/>
<polygon fill="#63b8ff" stroke="#63b8ff" points="88.26,-42.84 86.01,-32.49 81.32,-41.99 88.26,-42.84"/>
</a>
</g>
</g>
</g>
</svg>
